<svg width="65" height="69" viewBox="0 0 65 69" fill="none" xmlns="http://www.w3.org/2000/svg">
<mask id="path-1-outside-1" maskUnits="userSpaceOnUse" x="-7.64823" y="-3.64035" width="74.9027" height="73.4589" fill="black">
<rect fill="white" x="-7.64823" y="-3.64035" width="74.9027" height="73.4589"/>
<path d="M22.6812 7.48953C22.9586 7.15198 23.423 7.03356 23.8281 7.19708L34.441 11.4806C34.5554 11.5268 34.6773 11.5514 34.8006 11.5532L46.2442 11.7207C46.681 11.7271 47.0631 12.0164 47.1879 12.4351L50.4559 23.4033C50.4911 23.5215 50.5479 23.6322 50.6234 23.7297L57.6273 32.7811C57.8947 33.1266 57.9068 33.6057 57.6573 33.9643L51.1195 43.3579C51.0491 43.4591 50.9979 43.5725 50.9687 43.6924L48.259 54.8117C48.1556 55.2362 47.7885 55.5444 47.3526 55.5728L35.9321 56.3182C35.809 56.3263 35.6885 56.357 35.5766 56.4089L25.1937 61.2231C24.7973 61.4069 24.3275 61.3121 24.0335 60.989L16.3301 52.5249C16.2471 52.4337 16.1479 52.3586 16.0376 52.3035L5.80004 47.1874C5.40922 46.9921 5.19044 46.5657 5.25971 46.1343L7.07427 34.8343C7.09382 34.7126 7.09068 34.5882 7.06499 34.4676L4.68188 23.2737C4.59091 22.8464 4.78787 22.4095 5.16832 22.1947L15.1344 16.5679C15.2418 16.5073 15.337 16.4273 15.4153 16.332L22.6812 7.48953Z"/>
</mask>
<path d="M22.6812 7.48953C22.9586 7.15198 23.423 7.03356 23.8281 7.19708L34.441 11.4806C34.5554 11.5268 34.6773 11.5514 34.8006 11.5532L46.2442 11.7207C46.681 11.7271 47.0631 12.0164 47.1879 12.4351L50.4559 23.4033C50.4911 23.5215 50.5479 23.6322 50.6234 23.7297L57.6273 32.7811C57.8947 33.1266 57.9068 33.6057 57.6573 33.9643L51.1195 43.3579C51.0491 43.4591 50.9979 43.5725 50.9687 43.6924L48.259 54.8117C48.1556 55.2362 47.7885 55.5444 47.3526 55.5728L35.9321 56.3182C35.809 56.3263 35.6885 56.357 35.5766 56.4089L25.1937 61.2231C24.7973 61.4069 24.3275 61.3121 24.0335 60.989L16.3301 52.5249C16.2471 52.4337 16.1479 52.3586 16.0376 52.3035L5.80004 47.1874C5.40922 46.9921 5.19044 46.5657 5.25971 46.1343L7.07427 34.8343C7.09382 34.7126 7.09068 34.5882 7.06499 34.4676L4.68188 23.2737C4.59091 22.8464 4.78787 22.4095 5.16832 22.1947L15.1344 16.5679C15.2418 16.5073 15.337 16.4273 15.4153 16.332L22.6812 7.48953Z" fill="#EF6088"/>
<path d="M15.1344 16.5679L13.6594 13.9555L15.1344 16.5679ZM15.4153 16.332L13.0975 14.4274L15.4153 16.332ZM5.16832 22.1947L6.64325 24.8071L5.16832 22.1947ZM7.07427 34.8343L4.11221 34.3587L7.07427 34.8343ZM7.06499 34.4676L9.99924 33.8429L7.06499 34.4676ZM5.80004 47.1874L7.14111 44.5038L5.80004 47.1874ZM5.25971 46.1343L2.29766 45.6587L5.25971 46.1343ZM16.3301 52.5249L14.1115 54.5442L16.3301 52.5249ZM16.0376 52.3035L14.6965 54.987L16.0376 52.3035ZM35.9321 56.3182L35.7367 53.3246L35.9321 56.3182ZM35.5766 56.4089L36.8386 59.1306L35.5766 56.4089ZM48.259 54.8117L51.1737 55.522L48.259 54.8117ZM47.3526 55.5728L47.1572 52.5792L47.3526 55.5728ZM51.1195 43.3579L53.5819 45.0716L51.1195 43.3579ZM50.9687 43.6924L53.8834 44.4027L50.9687 43.6924ZM57.6273 32.7811L55.2547 34.617L57.6273 32.7811ZM57.6573 33.9643L55.1949 32.2506L57.6573 33.9643ZM50.4559 23.4033L47.5808 24.2599L50.4559 23.4033ZM50.6234 23.7297L52.996 21.8938L50.6234 23.7297ZM46.2442 11.7207L46.2002 14.7204L46.2442 11.7207ZM47.1879 12.4351L44.3128 13.2917L47.1879 12.4351ZM34.441 11.4806L35.5638 8.69868L34.441 11.4806ZM34.8006 11.5532L34.7567 14.5529L34.8006 11.5532ZM23.8281 7.19708L24.951 4.41514L23.8281 7.19708ZM22.7053 9.97903L33.3182 14.2626L35.5638 8.69868L24.951 4.41514L22.7053 9.97903ZM34.7567 14.5529L46.2002 14.7204L46.2881 8.72104L34.8446 8.55352L34.7567 14.5529ZM44.3128 13.2917L47.5808 24.2599L53.331 22.5466L50.063 11.5784L44.3128 13.2917ZM48.2508 25.5657L55.2547 34.617L60 30.9451L52.996 21.8938L48.2508 25.5657ZM55.1949 32.2506L48.6572 41.6442L53.5819 45.0716L60.1196 35.678L55.1949 32.2506ZM48.054 42.9821L45.3443 54.1014L51.1737 55.522L53.8834 44.4027L48.054 42.9821ZM47.1572 52.5792L35.7367 53.3246L36.1275 59.3119L47.548 58.5665L47.1572 52.5792ZM34.3147 53.6872L23.9317 58.5015L26.4556 63.9448L36.8386 59.1306L34.3147 53.6872ZM26.2522 58.9697L18.5488 50.5056L14.1115 54.5442L21.8148 63.0083L26.2522 58.9697ZM17.3787 49.6199L7.14111 44.5038L4.45896 49.871L14.6965 54.987L17.3787 49.6199ZM8.22176 46.61L10.0363 35.31L4.11221 34.3587L2.29766 45.6587L8.22176 46.61ZM9.99924 33.8429L7.61612 22.649L1.74764 23.8984L4.13075 35.0922L9.99924 33.8429ZM6.64325 24.8071L16.6093 19.1803L13.6594 13.9555L3.69338 19.5823L6.64325 24.8071ZM17.7332 18.2366L24.9991 9.39413L20.3633 5.58493L13.0975 14.4274L17.7332 18.2366ZM16.6093 19.1803C17.0389 18.9377 17.42 18.6178 17.7332 18.2366L13.0975 14.4274C13.2541 14.2368 13.4446 14.0768 13.6594 13.9555L16.6093 19.1803ZM7.61612 22.649C7.79807 23.5036 7.40414 24.3775 6.64325 24.8071L3.69338 19.5823C2.1716 20.4415 1.38375 22.1891 1.74764 23.8984L7.61612 22.649ZM10.0363 35.31C10.1145 34.8229 10.102 34.3254 9.99924 33.8429L4.13075 35.0922C4.07939 34.851 4.0731 34.6023 4.11221 34.3587L10.0363 35.31ZM7.14111 44.5038C7.92273 44.8944 8.3603 45.7472 8.22176 46.61L2.29766 45.6587C2.02058 47.3841 2.89572 49.0898 4.45896 49.871L7.14111 44.5038ZM18.5488 50.5056C18.2167 50.1407 17.82 49.8404 17.3787 49.6199L14.6965 54.987C14.4759 54.8768 14.2775 54.7266 14.1115 54.5442L18.5488 50.5056ZM23.9317 58.5015C24.7244 58.1339 25.664 58.3235 26.2522 58.9697L21.8148 63.0083C22.9911 64.3007 24.8702 64.6799 26.4556 63.9448L23.9317 58.5015ZM35.7367 53.3246C35.2444 53.3567 34.7623 53.4797 34.3147 53.6872L36.8386 59.1306C36.6148 59.2343 36.3737 59.2958 36.1275 59.3119L35.7367 53.3246ZM45.3443 54.1014C45.5512 53.2525 46.2852 52.6361 47.1572 52.5792L47.548 58.5665C49.2918 58.4526 50.7599 57.2199 51.1737 55.522L45.3443 54.1014ZM48.6572 41.6442C48.3753 42.0491 48.1708 42.5027 48.054 42.9821L53.8834 44.4027C53.825 44.6424 53.7228 44.8692 53.5819 45.0716L48.6572 41.6442ZM55.2547 34.617C54.72 33.9259 54.6958 32.9677 55.1949 32.2506L60.1196 35.678C61.1179 34.2437 61.0695 32.3272 60 30.9451L55.2547 34.617ZM47.5808 24.2599C47.7217 24.7328 47.9488 25.1755 48.2508 25.5657L52.996 21.8938C53.147 22.0889 53.2606 22.3102 53.331 22.5466L47.5808 24.2599ZM46.2002 14.7204C45.3266 14.7076 44.5623 14.1291 44.3128 13.2917L50.063 11.5784C49.564 9.9036 48.0355 8.74661 46.2881 8.72104L46.2002 14.7204ZM33.3182 14.2626C33.7757 14.4472 34.2634 14.5457 34.7567 14.5529L34.8446 8.55352C35.0912 8.55714 35.3351 8.60635 35.5638 8.69868L33.3182 14.2626ZM24.951 4.41514C23.3304 3.76105 21.4728 4.23472 20.3633 5.58493L24.9991 9.39413C24.4443 10.0692 23.5156 10.3061 22.7053 9.97903L24.951 4.41514Z" fill="white" mask="url(#path-1-outside-1)"/>
<path d="M19.2994 35.6254L22.835 32.0898L33.4416 39.868L28.4918 44.8178L19.2994 35.6254Z" fill="white"/>
<path d="M39.8055 26.433L43.341 29.9685L28.4917 44.8178L23.542 39.868L39.8055 26.433Z" fill="white"/>
</svg>
