<svg height='100px' width='100px'  fill="#3b4aff" xmlns="http://www.w3.org/2000/svg" xmlns:xlink="http://www.w3.org/1999/xlink" version="1.1" x="0px" y="0px" viewBox="0 0 66 66" style="enable-background:new 0 0 66 66;" xml:space="preserve"><g><path d="M62.2,35l-5.8-1.2l-5.3-10.6c-0.2-0.3-0.5-0.6-0.9-0.6l-2.7,0l0-1.7c0-2.2-1.8-3.9-3.9-3.9c-2.2,0-3.9,1.8-3.9,3.9l0,1.7   l-2.3,0l0-5.2c0-0.6-0.4-1-1-1L2,16.3c-0.6,0-1,0.4-1,1c0,5.4,0,22.6,0,31.4c0,0.6,0.4,1,1,1l6.2,0c0.5,3.3,3.3,5.8,6.7,5.8   c3.4,0,6.2-2.5,6.7-5.8l14.8,0l7.1,0c0.5,3.3,3.3,5.8,6.7,5.8c3.4,0,6.2-2.5,6.7-5.8l4.7,0c1.9,0,3.4-1.5,3.4-3.4l0-8.1   c0,0,0,0,0,0C65,36.6,63.8,35.2,62.2,35z M41.7,20.9c0-1.1,0.9-1.9,1.9-1.9s1.9,0.9,1.9,1.9l0,1.7l-3.8,0L41.7,20.9z M49.6,24.6   l5.2,10.5c0.1,0.3,0.4,0.5,0.7,0.5l6.3,1.3c0.7,0.1,1.2,0.7,1.2,1.4l0,0.2l-25.6,0l0-13.8L49.6,24.6z M35.4,18.4   c0,4.8,0,15.3,0,20.1L3,38.4l0-20.1L35.4,18.4z M3,40.4l32.4,0l0,7.3l-13.8,0c-0.5-3.3-3.3-5.8-6.7-5.8s-6.2,2.5-6.7,5.8l-5.2,0   L3,40.4z M14.9,53.5c-2.6,0-4.8-2.1-4.8-4.8c0-2.6,2.1-4.8,4.8-4.8c2.6,0,4.8,2.1,4.8,4.8c0,0,0,0,0,0c0,0,0,0,0,0   C19.7,51.4,17.5,53.5,14.9,53.5z M50.2,53.5c-2.6,0-4.8-2.1-4.8-4.8c0,0,0,0,0,0c0,0,0,0,0,0c0-2.6,2.1-4.8,4.8-4.8   c2.6,0,4.8,2.1,4.8,4.8v0c0,0,0,0,0,0c0,0,0,0,0,0C54.9,51.4,52.8,53.5,50.2,53.5z M61.6,47.8l-4.7,0c-0.5-3.3-3.3-5.8-6.7-5.8   s-6.2,2.5-6.7,5.8l-6.1,0l0-7.3l25.6,0l0,5.9C63,47.2,62.4,47.8,61.6,47.8z"></path><path d="M40,36.6l11.7,0c0.3,0,0.7-0.2,0.9-0.5c0.2-0.3,0.2-0.7,0-1l-4-8.1c-0.2-0.3-0.5-0.6-0.9-0.6l-7.6,0c-0.6,0-1,0.4-1,1   l0,8.1C39,36.1,39.5,36.6,40,36.6z M41,28.5l6,0l3,6.1l-9,0L41,28.5z"></path><path d="M27.7,26.2l5.4,0c0.6,0,1-0.4,1-1l0-4.3c0-0.6-0.4-1-1-1l-5.4,0c-0.6,0-1,0.4-1,1l0,4.3C26.7,25.7,27.2,26.2,27.7,26.2z    M28.7,21.8l3.4,0l0,2.3l-3.4,0L28.7,21.8z"></path><path d="M5.4,26.1l5.4,0c0.6,0,1-0.4,1-1l0-4.3c0-0.6-0.4-1-1-1l-5.4,0c-0.6,0-1,0.4-1,1l0,4.3C4.4,25.7,4.8,26.1,5.4,26.1z    M6.4,21.8l3.4,0l0,2.3l-3.4,0L6.4,21.8z"></path><path d="M13.3,32.7l2.9,0l0,2.9c0,0.6,0.4,1,1,1l4,0c0.6,0,1-0.4,1-1l0-2.9l2.9,0c0.6,0,1-0.4,1-1l0-4c0-0.6-0.4-1-1-1l-2.9,0   l0-2.9c0-0.6-0.4-1-1-1l-4,0c-0.6,0-1,0.4-1,1l0,2.9l-2.9,0c-0.6,0-1,0.4-1,1l0,4C12.3,32.3,12.8,32.7,13.3,32.7z M14.3,28.8l2.9,0   c0.6,0,1-0.4,1-1l0-2.9l2,0l0,2.9c0,0.6,0.4,1,1,1l2.9,0l0,2l-2.9,0c-0.6,0-1,0.4-1,1l0,2.9l-2,0l0-2.9c0-0.6-0.4-1-1-1l-2.9,0   L14.3,28.8z"></path><path d="M37.8,15.8l1.6,0.7c0.5,0.2,1.1,0,1.3-0.5c0.2-0.5,0-1.1-0.5-1.3L38.6,14c-0.5-0.2-1.1,0-1.3,0.5   C37.1,15,37.3,15.6,37.8,15.8z"></path><path d="M43.6,14.2c0.6,0,1-0.4,1-1l0-1.8c0-0.6-0.4-1-1-1s-1,0.4-1,1l0,1.8C42.6,13.8,43.1,14.2,43.6,14.2z"></path><path d="M47.8,16.5l1.6-0.7c0.5-0.2,0.7-0.8,0.5-1.3s-0.8-0.7-1.3-0.5L47,14.7c-0.5,0.2-0.7,0.8-0.5,1.3   C46.7,16.5,47.3,16.8,47.8,16.5z"></path></g></svg>