<svg height='100px' width='100px'  fill="#3b4aff" xmlns="http://www.w3.org/2000/svg" xmlns:xlink="http://www.w3.org/1999/xlink" version="1.0" x="0px" y="0px" viewBox="0 0 100 100" style="enable-background:new 0 0 100 100;" xml:space="preserve"><g><circle cx="50.3" cy="76" r="6.6"></circle><path d="M50.3,51.5c-7.5,0-14.5,3.4-19.2,9.3c-0.6,0.8-0.6,1.9,0.2,2.7l2.9,2.9c0.4,0.4,0.9,0.6,1.4,0.6c0,0,0.1,0,0.1,0   c0.6,0,1.1-0.3,1.5-0.8c3.1-4.2,7.9-6.6,13.1-6.6s10,2.4,13.1,6.6c0.3,0.5,0.9,0.8,1.5,0.8c0,0,0.1,0,0.1,0c0.5,0,1-0.2,1.4-0.6   l2.9-2.9c0.7-0.7,0.8-1.9,0.2-2.7C64.7,54.9,57.8,51.5,50.3,51.5z"></path><path d="M50.3,34.3c-12,0-23.4,5.2-31.3,14.2c-0.7,0.8-0.7,2,0.1,2.7l2.9,2.9c0.4,0.4,0.9,0.6,1.4,0.6c0,0,0,0,0.1,0   c0.6,0,1.1-0.3,1.4-0.7c6.4-7.4,15.6-11.6,25.4-11.6c9.7,0,19,4.2,25.4,11.6c0.4,0.4,0.9,0.7,1.4,0.7c0,0,0,0,0.1,0   c0.5,0,1-0.2,1.4-0.6l2.9-2.9c0.7-0.7,0.8-1.9,0.1-2.7C73.6,39.5,62.2,34.3,50.3,34.3z"></path><path d="M94.6,35.4C83.2,23,67.1,15.8,50.3,15.8S17.3,23,5.9,35.4c-0.7,0.8-0.7,2,0.1,2.8L8.9,41c0.4,0.4,0.9,0.6,1.4,0.6   c0,0,0,0,0,0c0.5,0,1.1-0.2,1.4-0.7c9.9-10.8,23.9-17.1,38.5-17.1S78.9,30.1,88.8,41c0.4,0.4,0.9,0.6,1.4,0.7c0,0,0,0,0,0   c0.5,0,1-0.2,1.4-0.6l2.9-2.9C95.3,37.4,95.3,36.2,94.6,35.4z"></path></g></svg>