<svg height='100px' width='100px'  fill="#3b4aff" xmlns="http://www.w3.org/2000/svg" xmlns:xlink="http://www.w3.org/1999/xlink" version="1.1" x="0px" y="0px" viewBox="0 0 50 50" style="enable-background:new 0 0 50 50;" xml:space="preserve"><path d="M8.9990234,34.8252563c0,0.4492188,0.3886719,0.9707031,0.890625,0.9707031s0.890625-0.5214844,0.890625-0.9707031  c0-0.1582031-0.0644531-0.6748047-0.890625-0.6748047S8.9990234,34.6670532,8.9990234,34.8252563z M9.8896484,34.6504517  c0.390625,0,0.390625,0.1318359,0.390625,0.1748047c0,0.1972656-0.1972656,0.4707031-0.390625,0.4707031  s-0.390625-0.2734375-0.390625-0.4707031C9.4990234,34.7822876,9.4990234,34.6504517,9.8896484,34.6504517z M10.9296875,33.4336548  c0.4375,0,0.7929688-0.3564453,0.7929688-0.7939453s-0.3554688-0.7929688-0.7929688-0.7929688  s-0.7939453,0.3554688-0.7939453,0.7929688S10.4921875,33.4336548,10.9296875,33.4336548z M10.9296875,32.3467407  c0.1611328,0,0.2929688,0.1318359,0.2929688,0.2929688c0,0.1621094-0.1318359,0.2939453-0.2929688,0.2939453  c-0.1621094,0-0.2939453-0.1318359-0.2939453-0.2939453C10.6357422,32.4785767,10.7675781,32.3467407,10.9296875,32.3467407z   M8.7880859,33.4307251c0.4375,0,0.7929688-0.3554688,0.7929688-0.7929688s-0.3554688-0.7929688-0.7929688-0.7929688  s-0.7929688,0.3554688-0.7929688,0.7929688S8.3505859,33.4307251,8.7880859,33.4307251z M8.7880859,32.3447876  c0.1611328,0,0.2929688,0.1318359,0.2929688,0.2929688s-0.1318359,0.2929688-0.2929688,0.2929688  s-0.2929688-0.1318359-0.2929688-0.2929688S8.6269531,32.3447876,8.7880859,32.3447876z M26.2519531,14.210022  c0.4990234,0,0.9052734-0.40625,0.9052734-0.9052734s-0.40625-0.9047852-0.9052734-0.9047852  s-0.9042969,0.4057617-0.9042969,0.9047852S25.7529297,14.210022,26.2519531,14.210022z M26.2519531,12.8999634  c0.2236328,0,0.4052734,0.1816406,0.4052734,0.4047852c0,0.2236328-0.1816406,0.4052734-0.4052734,0.4052734  c-0.2226563,0-0.4042969-0.1816406-0.4042969-0.4052734C25.8476563,13.081604,26.0292969,12.8999634,26.2519531,12.8999634z   M23.7929688,14.2105103c0.4990234,0,0.9042969-0.4057617,0.9042969-0.9047852s-0.4052734-0.9052734-0.9042969-0.9052734  s-0.9052734,0.40625-0.9052734,0.9052734S23.2939453,14.2105103,23.7929688,14.2105103z M23.7929688,12.9004517  c0.2226563,0,0.4042969,0.1816406,0.4042969,0.4052734c0,0.2231445-0.1816406,0.4047852-0.4042969,0.4047852  c-0.2236328,0-0.4052734-0.1816406-0.4052734-0.4047852C23.3876953,13.0820923,23.5693359,12.9004517,23.7929688,12.9004517z   M25.406311,17.1702271c-0.102356-0.1055298-0.0997314-0.2740479,0.0057373-0.3763428  c0.1055298-0.102356,0.2740479-0.0997925,0.3763428,0.0057373c0.102356,0.1054688,0.0997925,0.2739868-0.0057373,0.3763428  C25.6771851,17.2783203,25.508667,17.2756958,25.406311,17.1702271z M24.6386108,16.7996216  c0.102356,0.1054688,0.0997314,0.2739868-0.0057373,0.3763428c-0.1055298,0.102356-0.2740479,0.0997314-0.3763428-0.0057373  c-0.102356-0.1055298-0.0997925-0.2740479,0.0057373-0.3763428C24.3677368,16.6915283,24.5362549,16.6940918,24.6386108,16.7996216z   M40.2529297,28.6084595c0.4414063,0,0.8007813-0.359375,0.8007813-0.8017578s-0.359375-0.8017578-0.8007813-0.8017578  c-0.4423828,0-0.8017578,0.359375-0.8017578,0.8017578S39.8105469,28.6084595,40.2529297,28.6084595z M40.2529297,27.5049438  c0.1660156,0,0.3007813,0.1357422,0.3007813,0.3017578s-0.1347656,0.3017578-0.3007813,0.3017578  s-0.3017578-0.1357422-0.3017578-0.3017578S40.0869141,27.5049438,40.2529297,27.5049438z M35.3798828,27.8067017  c0,0.4423828,0.359375,0.8017578,0.8017578,0.8017578c0.4414063,0,0.8007813-0.359375,0.8007813-0.8017578  s-0.359375-0.8017578-0.8007813-0.8017578C35.7392578,27.0049438,35.3798828,27.3643188,35.3798828,27.8067017z   M36.1816406,27.5049438c0.1660156,0,0.3007813,0.1357422,0.3007813,0.3017578s-0.1347656,0.3017578-0.3007813,0.3017578  s-0.3017578-0.1357422-0.3017578-0.3017578S36.015625,27.5049438,36.1816406,27.5049438z M45.5712891,34.5342407h-2.682373  c-0.0362549-1.2194824-0.3337402-2.3672485-0.8688965-3.3547974c1.5587158-0.6520386,3.7286377-2.7352295,3.7719727-3.8434448  c0.0888672-2.277832-2.5546875-3.7133789-3.4882813-4.0366211c-0.6807861-0.2366943-1.2452393,0.1889648-1.5481567,0.5665283  c-0.6935425-0.4741821-1.6470947-0.5802002-2.5387573-0.5802002c-0.008667,0-0.0176392,0.0007935-0.0263672,0.0007935v-0.7634888  l2.0869141-2.6932373c0.0470581-0.0132446,0.0944824-0.0092163,0.1416016-0.0279541  c0.203125,0.5927734,0.7539063,1.0063477,1.3964844,1.0063477s1.1933594-0.4135742,1.3964844-1.0058594  c0.1630859,0.0644531,0.3251953,0.0961914,0.4902344,0.0961914c0.8261719,0,1.4980469-0.671875,1.4980469-1.4975586  c0-0.1210938-0.015625-0.2421875-0.0458984-0.3613281c0.4082031-0.2773438,0.6542969-0.7294922,0.6542969-1.2246094  s-0.2460938-0.9477539-0.6542969-1.2250977c0.0302734-0.1191406,0.0458984-0.2397461,0.0458984-0.3608398  c0-0.8261719-0.671875-1.4980469-1.4980469-1.4980469c-0.1650391,0-0.3271484,0.0317383-0.4902344,0.0961914  c-0.203125-0.5922852-0.7539063-1.0058594-1.3964844-1.0058594c-0.1518555,0-0.2974243,0.0300293-0.4390869,0.074585  c-0.0597534-0.0497437-0.1125488-0.1060181-0.1790771-0.1488037c0.0449219-0.1616211,0.0683594-0.3276367,0.0683594-0.4956055  c0-1.0229492-0.8320313-1.8549805-1.8544922-1.8549805c-0.2275391,0-0.4501953,0.0488281-0.6748047,0.1484375  c-0.2314453-0.7724609-0.9316406-1.3188477-1.7529297-1.3188477s-1.5214844,0.5463867-1.7519531,1.3188477  c-0.2246094-0.0996094-0.4472656-0.1484375-0.6748047-0.1484375c-1.0234375,0-1.8554688,0.8320313-1.8554688,1.8549805  c0,0.1669922,0.0234375,0.3330078,0.0693359,0.4960938c-0.1251831,0.0802002-0.2363281,0.1754761-0.336731,0.2792969  c-0.0603027-0.0075073-0.1195068-0.0209961-0.1808472-0.0209961c-0.6425781,0-1.1933594,0.4135742-1.3964844,1.0063477  c-0.1630859-0.0649414-0.3251953-0.0966797-0.4902344-0.0966797c-0.8261719,0-1.4980469,0.671875-1.4980469,1.4975586  c0,0.121582,0.015625,0.2426758,0.0449219,0.3613281c-0.4072266,0.2773438-0.6533203,0.7294922-0.6533203,1.2246094  c0,0.4946289,0.2460938,0.9472656,0.6533203,1.2250977c-0.0292969,0.1181641-0.0449219,0.2392578-0.0449219,0.3608398  c0,0.8261719,0.671875,1.4980469,1.4980469,1.4980469c0.1650391,0,0.3271484-0.0317383,0.4902344-0.0966797  c0.203125,0.5922852,0.7539063,1.0058594,1.3964844,1.0058594s1.1933594-0.4135742,1.3964844-1.0053711  c0.114502,0.0452271,0.2293091,0.0541382,0.3441772,0.0675049l1.8843384,2.4813232v1.1930542  c-0.0714722,0.0388794-0.1328125,0.0916748-0.199585,0.1373291c-0.3018799-0.3772583-0.8634644-0.803772-1.5474854-0.5667114  c-0.9326172,0.3232422-3.5771484,1.7578125-3.4892578,4.0366211c0.0039063,0.0974731,0.0407104,0.2112427,0.0754395,0.3239136  c-0.4887695-0.1891479-1.0149536-0.3034058-1.5695801-0.3034058c-0.7955933,0-1.5322266,0.2295532-2.1757202,0.6022949  l-0.9005127-9.6919556c0.5621338-0.2701416,0.9385376-0.7422485,0.9385376-1.2819214  c0-0.2154541-0.0612183-0.4197388-0.1685791-0.6056519c0.524353-0.866333,1.2089844-2.4824829,1.1412354-3.7903442  c-0.0016479-0.031311-0.0127563-0.06073-0.0158081-0.0917969c0.9231567-0.1748047,1.4517212-0.7224731,1.6222534-1.2255859  c0.1455078-0.4301758,0.0751953-0.8466797-0.1835938-1.0878906c-0.3095703-0.2880859-0.7978516-0.3583984-1.2773438-0.1806641  c-0.3667603,0.1365967-0.7695923,0.4486084-0.9845581,0.9475708c-0.244812-0.2220459-0.5314331-0.4046021-0.8476563-0.5426025  l0.3078613-0.9376831c0.005188,0.0001221,0.0093994,0.0029297,0.0145874,0.0029297  c0.4658203,0,0.8447266-0.3793945,0.8447266-0.8452148c0-0.4663086-0.3789063-0.8457031-0.8447266-0.8457031  c-0.4667969,0-0.8457031,0.3793945-0.8457031,0.8457031c0,0.2817993,0.1477661,0.5197144,0.3606567,0.6734009l-0.3101196,0.944519  c-0.2573242-0.0672607-0.5223389-0.114502-0.7976074-0.114502s-0.5422974,0.0493164-0.8019409,0.1196289l-0.3115845-0.9491577  c0.2128906-0.1536865,0.3605957-0.3916016,0.3605957-0.6734009c0-0.4663086-0.3789063-0.8457031-0.8457031-0.8457031  c-0.4658203,0-0.8447266,0.3793945-0.8447266,0.8457031c0,0.4658203,0.3789063,0.8452148,0.8447266,0.8452148  c0.005188,0,0.0093994-0.0028076,0.0145874-0.0029297l0.310791,0.9467163  c-0.3148804,0.1405029-0.6011963,0.3250732-0.8467407,0.5482788c-0.213562-0.5067139-0.6184692-0.8244629-0.9884033-0.9622803  c-0.4785156-0.1762695-0.9667969-0.1083984-1.2773438,0.1811523c-0.2587891,0.2407227-0.3291016,0.6572266-0.1835938,1.0869141  c0.1705322,0.5036621,0.6992188,1.0513916,1.6226196,1.2261353c-0.0031128,0.0310059-0.0145264,0.0605469-0.0161743,0.0917358  c-0.0709839,1.3747559,0.65802,2.9783936,1.1173096,3.7511597c-0.1225586,0.1964111-0.1964111,0.413269-0.1964111,0.6443481  c0,0.5638428,0.4127808,1.0514526,1.0175781,1.31427l-0.8989868,9.675293  c-0.6499023-0.3829346-1.3972778-0.617981-2.2045288-0.617981c-2.4121094,0-4.375,1.9628906-4.375,4.375v2.8027344h-1.3173828  v-5.7167969l2.0869141-2.6937256c0.0470581-0.0132446,0.0944824-0.0093384,0.1416016-0.0279541  c0.203125,0.5917969,0.7539063,1.0058594,1.3964844,1.0058594s1.1933594-0.4130859,1.3964844-1.0048828  c0.1630859,0.0644531,0.3251953,0.0957031,0.4902344,0.0957031c0.8261719,0,1.4980469-0.671875,1.4980469-1.4975586  c0-0.1210938-0.015625-0.2421875-0.0458984-0.3613281c0.4082031-0.2773438,0.6542969-0.7294922,0.6542969-1.2246094  s-0.2460938-0.9477539-0.6542969-1.2250977c0.0302734-0.1191406,0.0458984-0.2397461,0.0458984-0.3608398  c0-0.8261719-0.671875-1.4980469-1.4980469-1.4980469c-0.1650391,0-0.3271484,0.0317383-0.4902344,0.0961914  c-0.203125-0.5917969-0.7539063-1.0053711-1.3964844-1.0053711c-0.1517334,0-0.2975464,0.0299072-0.4389648,0.0742188  c-0.0597534-0.0498047-0.1126099-0.1061401-0.1791992-0.1489258c0.0449219-0.1616211,0.0683594-0.3276367,0.0683594-0.4956055  c0-1.0229492-0.8320313-1.8549805-1.8544922-1.8549805c-0.2275391,0-0.4501953,0.0488281-0.6748047,0.1484375  c-0.1583862-0.5281982-0.5450439-0.9353027-1.0309448-1.1496582c-0.0336914-0.3765259-0.1338501-0.7200928-0.2356567-1.0212402  c-0.0576172-0.171875-0.1123047-0.3305664-0.140625-0.4755859c-0.0205078-0.1083984-0.0136719-0.2866211-0.0068359-0.4589844  c0.0087891-0.2319336,0.0175781-0.472168-0.0263672-0.6811523c-0.1376953-0.6538086-0.7089844-1.4145508-1.8613281-1.4145508  c-0.0058594,0-0.0117188,0-0.0166016,0c-0.350769,0.0020142-1.0789795,0.1868286-1.3325195,0.5352783  c-0.3821411,0.0046387-1.3925171,0.0726929-2.4487305,0.6331787c-2.0302734,1.0771484-1.8457031,2.4438477-1.8369141,2.5019531  c0.0107422,0.0703125,0.0517578,0.1328125,0.1113281,0.171875c0.0410156,0.0263672,0.0878906,0.0400391,0.1357422,0.0400391  c0.0224609,0,0.0449219-0.0029297,0.0664063-0.0092773c0.0097656-0.0024414,0.9853516-0.2700195,2.2675781-0.4443359  c0.7807007-0.1062622,1.3950806-0.0800171,1.7450562-0.0458984c-0.0343628,0.0516357-0.069397,0.1019287-0.1112671,0.1567383  c-0.140625,0.1855469-0.2998047,0.3964844-0.4042969,0.7822266c-0.0966187,0.3543701-0.0870361,0.6885376-0.0142212,1.0067139  c-0.5342407,0.3259277-0.8949585,0.9089355-0.8949585,1.5792236c0,0.1669922,0.0234375,0.3330078,0.0693359,0.4960938  c-0.1251831,0.0802002-0.2363281,0.1754761-0.336731,0.2792969c-0.0603027-0.0075073-0.1195068-0.0209961-0.1808472-0.0209961  c-0.6425781,0-1.1933594,0.4135742-1.3964844,1.0063477c-0.1630859-0.0649414-0.3251953-0.0966797-0.4902344-0.0966797  c-0.8261719,0-1.4980469,0.671875-1.4980469,1.4975586c0,0.1220703,0.015625,0.2426758,0.0449219,0.3613281  c-0.4072266,0.2773438-0.6533203,0.7299805-0.6533203,1.2246094s0.2460938,0.9472656,0.6533203,1.2250977  c-0.0292969,0.1186523-0.0449219,0.2392578-0.0449219,0.3613281c0,0.8256836,0.671875,1.4975586,1.4980469,1.4975586  c0.1650391,0,0.3271484-0.0322266,0.4902344-0.0966797c0.203125,0.5917969,0.7539063,1.0058594,1.3964844,1.0058594  s1.1933594-0.4130859,1.3964844-1.0048828c0.114563,0.0452881,0.2293701,0.0540161,0.3442993,0.0671997l1.8842163,2.4806519  v0.6200562c-0.4182739,0.2996826-0.8959351,0.5999756-1.3330078,0.850647l0.2597656-0.8945313  c0.0380859-0.1318359-0.0380859-0.2705078-0.1708984-0.3095703c-0.125-0.0380859-0.2705078,0.0380859-0.3095703,0.1708984  l-0.3570557,1.2301636c-0.335022-0.0927124-0.701416-0.1559448-1.1234131-0.1559448  c-0.4257813,0-0.7904053,0.0613403-1.1229248,0.1517944l-0.3575439-1.2289429  c-0.0390625-0.1318359-0.1787109-0.2089844-0.3105469-0.1699219s-0.2080078,0.1777344-0.1699219,0.3105469l0.2607422,0.8935547  c-0.9108276-0.5209961-2.0059204-1.2567749-2.3272095-1.7542725l0.8643188-0.5953369  c0.1142578-0.078125,0.1425781-0.234375,0.0644531-0.3476563s-0.234375-0.140625-0.3476563-0.0644531l-0.737793,0.5081787  c-0.109375-0.7821655,0.0780029-1.7979736,0.0805664-1.80896c0.0253906-0.1357422-0.0644531-0.2666016-0.1992188-0.2919922  c-0.1503906-0.0371094-0.2666016,0.0644531-0.2929688,0.1982422c-0.0107422,0.0605469-0.2763672,1.4892578,0.0078125,2.3955078  c0.005188,0.0166016,0.022644,0.0351563,0.0291748,0.052002c0.0026855,0.0045166,0.000061,0.0100098,0.0030518,0.0144043  c0.0026245,0.0037842,0.0070801,0.0050659,0.0098877,0.008667c0.3207397,0.7620239,1.9189453,1.7376099,2.7128296,2.1838989  c-0.1358643,0.0873413-0.2531738,0.1886597-0.3574219,0.3009033c-0.2407227-0.196228-0.4831543-0.2403564-0.6611938-0.2258911  c-0.8886719,0.0498047-1.6982422,1.3046875-1.7880859,1.4472656c-0.0664063,0.1064453-0.0439453,0.2451172,0.0527344,0.3251953  c0.2216797,0.1835938,0.6582031,0.4013672,1.1904297,0.4013672c0.2635498,0,0.5508423-0.0540771,0.8469238-0.1918335  c0.0983276,0.3699951,0.2563477,0.7442017,0.4157715,1.1137085c0.0814209,0.1881714,0.1609497,0.378418,0.2338867,0.5673828  H4.4912109c-0.1376953,0-0.25,0.1123047-0.25,0.25v8.4873047c0,0.1376953,0.1123047,0.25,0.25,0.25h12.28125h0.0175781h8.2324219  h8.25h12.2988281c0.1376953,0,0.25-0.1123047,0.25-0.25v-8.4873047  C45.8212891,34.6465454,45.7089844,34.5342407,45.5712891,34.5342407z M26.6181641,8.2822876  c0.1904297,0,0.3447266,0.1552734,0.3447266,0.3457031s-0.1542969,0.3452148-0.3447266,0.3452148  s-0.3457031-0.1547852-0.3457031-0.3452148S26.4277344,8.2822876,26.6181641,8.2822876z M23.0820313,8.628479  c0-0.1904297,0.1542969-0.3457031,0.3447266-0.3457031s0.3457031,0.1552734,0.3457031,0.3457031  s-0.1552734,0.3452148-0.3457031,0.3452148S23.0820313,8.8189087,23.0820313,8.628479z M42.3889771,34.5342407h-2.0084839  c-0.0714722-0.1552734-0.1636963-0.3302002-0.2886963-0.5537109c-0.2177734-0.390625-0.4648438-0.8339844-0.5039063-1.1210938  c-0.0444946-0.3323364-0.0767822-0.7530518-0.0546875-1.1494141c0.0707397,0.065979,0.1426392,0.1307373,0.2158203,0.1787109  c0.3144531,0.2060547,0.7236328,0.2617188,1.0712891,0.2617188c0.3828125,0,0.6904297-0.0673828,0.7148438-0.0722656  c0.0957031-0.0214844,0.1708984-0.0976563,0.1904297-0.1943359s-0.0195313-0.1953125-0.0996094-0.2529297  c-0.1027222-0.0740356-0.2210693-0.163269-0.3407593-0.2555542c0.0821533-0.0056152,0.1672974-0.0165405,0.2578735-0.0370483  C42.0649414,32.2695923,42.3521118,33.366272,42.3889771,34.5342407z M40.0625,30.7637329  c0.0429688,0.1083984,0.0869141,0.2197266,0.1572266,0.3232422c0.0996094,0.1455078,0.3574219,0.3681641,0.6035156,0.5634766  c-0.0009766,0-0.0019531,0-0.0029297,0c-0.2802734,0-0.5859375-0.0410156-0.796875-0.1796875  c-0.2509766-0.1650391-0.5214844-0.5292969-0.5244141-0.8105469c-0.0009766-0.0751953,0.0253906-0.1376953,0.078125-0.1855469  c0.0458984-0.0419922,0.1064453-0.0664063,0.1601563-0.0664063c0.0058594,0,0.0117188,0,0.0166016,0.0009766  C39.9150391,30.4258423,39.9638672,30.5147095,40.0625,30.7637329z M42.1396484,23.7720337  c1.0595703,0.3666992,3.2246094,1.7163086,3.1523438,3.5444336c-0.0371094,0.96875-2.8076172,3.5683594-4.0957031,3.5683594  c-0.4544678,0-0.6781616-0.3493042-0.7763672-0.572937l0.0078125-0.005188  c0.6328125-0.4160156,1.1318359-0.7441406,1.4287109-1.6318359c0.1552734-0.4667969,0.0820313-0.9355469-0.0019531-1.4775391  c-0.0566406-0.3642578-0.1152344-0.7412109-0.1152344-1.1738281c0-0.258606-0.0314941-0.4815674-0.0717163-0.6943359  c0.1129761-0.1558838,0.3304443-0.3876953,0.5228882-0.3984375c0.2226563,0.0175781,0.984375,0.6523438,1.6464844,1.4208984  c0.0498047,0.0576172,0.1191406,0.0869141,0.1894531,0.0869141c0.0576172,0,0.1162109-0.0195313,0.1630859-0.0605469  c0.1044922-0.0898438,0.1162109-0.2480469,0.0263672-0.3525391c-0.3251953-0.3769531-1.4199219-1.5947266-2.0292969-1.5947266  c-0.0078125,0-0.0166016,0.0004883-0.0244141,0.0009766c-0.2680664,0.0150757-0.4996338,0.1745605-0.6696777,0.3375854  c-0.0961914-0.2214355-0.2139282-0.4158325-0.3586426-0.5765991C41.3017578,23.9779053,41.6713257,23.6078491,42.1396484,23.7720337  z M41.2392578,26.0234985c0,0.4707031,0.0644531,0.8847656,0.1210938,1.2509766  c0.0771484,0.4970703,0.1386719,0.890625,0.0214844,1.2421875c-0.2412109,0.7236328-0.6337891,0.9814453-1.2285156,1.3720703  l-0.1323242,0.0877075c-0.0656738-0.0270386-0.1292114-0.0561523-0.2143555-0.0652466  c-0.2001953-0.0166016-0.4101563,0.0527344-0.5664063,0.1933594c-0.1582031,0.1445313-0.2441406,0.34375-0.2412109,0.5615234  c0.0015259,0.1524658,0.0487671,0.3034668,0.1124878,0.4504395c-0.1337891,0.5767212-0.0884399,1.2938843-0.0197144,1.8093262  c0.0517578,0.3818359,0.3115234,0.8476563,0.5634766,1.2978516c0.1416016,0.2539063,0.3554688,0.6367188,0.3603516,0.7216797  c-0.0498047,0.1503906-0.5068359,0.4277344-0.7158203,0.3789063c-0.2675781-0.1308594-1.3466797-1.7333984-1.5644531-2.5  c-0.046875-0.1660156-0.0820313-0.3828125-0.1220703-0.6191406c-0.060791-0.3702393-0.137085-0.7797241-0.263916-1.142395  c0.0499878-0.1300049,0.0838623-0.2631836,0.0852051-0.3966675c0.0029297-0.2177734-0.0830078-0.4169922-0.2412109-0.5615234  c-0.1572266-0.1416016-0.375-0.2089844-0.5664063-0.1933594c-0.0847778,0.0090332-0.1480713,0.038147-0.213501,0.0650024  l-0.1331787-0.0884399c-0.5947266-0.390625-0.9873047-0.6484375-1.2285156-1.3710938  c-0.1171875-0.3515625-0.0556641-0.7441406,0.0214844-1.2421875c0.0576172-0.3652344,0.1220703-0.7792969,0.1220703-1.2509766  c0-1.8574219,1.2080078-2.237793,3.0214844-2.237793C40.03125,23.7857056,41.2392578,24.1660767,41.2392578,26.0234985z   M33.3540649,30.5959473c0.3168945,0.2178345,0.6849976,0.4367676,1.0568848,0.5904541  c-0.5328369,0.9858398-0.8300171,2.1300049-0.8660889,3.3478394h-0.0223999v-2.8027344  C33.5224609,31.3363037,33.4528198,30.9603882,33.3540649,30.5959473z M34.8908691,31.3450317  c0.0887451,0.019043,0.1738281,0.0244141,0.2587891,0.0296631c-0.1199951,0.0925903-0.2388306,0.1820679-0.342041,0.2562256  c-0.0791016,0.0576172-0.1181641,0.1572266-0.0986328,0.2529297c0.0195313,0.0966797,0.0947266,0.1728516,0.1904297,0.1943359  c0.0244141,0.0048828,0.3320313,0.0722656,0.7148438,0.0722656c0.3466797,0,0.7558594-0.0556641,1.0703125-0.2617188  c0.1055298-0.0689697,0.2088013-0.1627197,0.3066406-0.267334c0.0508423,0.2219849,0.0933838,0.4497681,0.1289063,0.6657715  c0.0429688,0.2568359,0.0830078,0.4931641,0.1347656,0.6738281c0.0963135,0.3406982,0.4230347,0.9835815,0.7932739,1.5732422  H34.045166C34.0830078,33.3796387,34.376709,32.2652588,34.8908691,31.3450317z M36.4111328,31.4707642  c-0.2119141,0.1386719-0.5175781,0.1796875-0.7978516,0.1796875c-0.0009766,0-0.0009766,0-0.0019531,0  c0.2451172-0.1953125,0.5029297-0.4179688,0.6025391-0.5644531c0.0703125-0.1025391,0.1152344-0.2148438,0.1582031-0.3232422  c0.0986328-0.2480469,0.1474609-0.3369141,0.3076172-0.3535156c0.0498047-0.0107422,0.1259766,0.0195313,0.1767578,0.0654297  c0.0527344,0.0478516,0.0791016,0.1103516,0.078125,0.1855469C36.9316406,30.9414673,36.6611328,31.3067017,36.4111328,31.4707642z   M42.7900391,14.2236938c0.0087891,0.0869141,0.0625,0.1625977,0.140625,0.2006836  c0.0771484,0.0356445,0.1699219,0.0307617,0.2441406-0.015625c0.1875-0.1210938,0.3544922-0.1777344,0.5273438-0.1777344  c0.5507813,0,0.9980469,0.4477539,0.9980469,0.9980469c0,0.1269531-0.0263672,0.2543945-0.078125,0.3789063  c-0.0498047,0.1220703,0.0029297,0.262207,0.1210938,0.3203125c0.3486328,0.1708984,0.5654297,0.5107422,0.5654297,0.8867188  c0,0.3754883-0.2167969,0.715332-0.5654297,0.8862305c-0.1181641,0.0581055-0.1708984,0.1982422-0.1210938,0.3203125  c0.0517578,0.1245117,0.078125,0.2524414,0.078125,0.3793945c0,0.550293-0.4472656,0.9975586-0.9980469,0.9975586  c-0.1728516,0-0.3398438-0.0566406-0.5273438-0.1777344c-0.0732422-0.046875-0.1660156-0.0517578-0.2441406-0.015625  c-0.078125,0.0380859-0.1318359,0.1137695-0.140625,0.2006836c-0.0517578,0.5141602-0.4707031,0.9023438-0.9746094,0.9023438  s-0.9228516-0.3881836-0.9746094-0.9023438c-0.0087891-0.0869141-0.0625-0.1625977-0.140625-0.2001953  c-0.078125-0.0380859-0.1708984-0.0322266-0.2441406,0.0151367c-0.1875,0.1210938-0.3554688,0.1777344-0.5273438,0.1777344  c-0.5507813,0-0.9980469-0.4472656-0.9980469-0.9975586c0-0.0949707,0.0288696-0.1872559,0.0568237-0.27948  c0.1403809,0.0388184,0.2810669,0.0651245,0.423645,0.0651245c1.0224609,0,1.8544922-0.8320313,1.8544922-1.8549805  c0-0.1679688-0.0234375-0.3339844-0.0693359-0.4960938c0.53125-0.3408203,0.8525391-0.9145508,0.8525391-1.5439453  c0-0.3488159-0.1065674-0.675293-0.2845459-0.9595947c0.0177612-0.0009155,0.0332031-0.0106201,0.0511475-0.0106201  C42.3193359,13.3213501,42.7382813,13.7095337,42.7900391,14.2236938z M38.1904297,18.8725586  c0.0931396-0.0844116,0.185791-0.1696167,0.260437-0.2719727c0.0306396,0.2266846,0.1068726,0.4385376,0.227478,0.62146  l-0.487915,0.6027222V18.8725586z M33.1855469,13.0869751c0.1181641-0.0581055,0.1708984-0.1982422,0.1201172-0.3203125  c-0.0693359-0.1679688-0.1044922-0.3413086-0.1044922-0.5151367c0-0.7470703,0.6083984-1.3549805,1.3554688-1.3549805  c0.2333984,0,0.4677734,0.0786133,0.7177734,0.2397461c0.0732422,0.0478516,0.1679688,0.0537109,0.2441406,0.0151367  c0.078125-0.0375977,0.1318359-0.1137695,0.140625-0.2001953c0.0693359-0.6982422,0.6386719-1.2250977,1.3242188-1.2250977  c0.6845703,0,1.2548828,0.5268555,1.3251953,1.2255859c0.0087891,0.0864258,0.0625,0.1621094,0.140625,0.199707  c0.0771484,0.0375977,0.1699219,0.0317383,0.2441406-0.0151367c0.2529297-0.1635742,0.4814453-0.2397461,0.7177734-0.2397461  c0.7470703,0,1.3544922,0.6079102,1.3544922,1.3549805c0,0.175293-0.0351563,0.3486328-0.1035156,0.5151367  c-0.0507813,0.1220703,0.0019531,0.262207,0.1201172,0.3203125c0.4726563,0.2319336,0.7666016,0.6933594,0.7666016,1.2045898  c0,0.5107422-0.2939453,0.972168-0.7666016,1.2050781c-0.1181641,0.0581055-0.1708984,0.1982422-0.1201172,0.3198242  c0.0683594,0.1665039,0.1035156,0.3398438,0.1035156,0.5151367c0,0.7470703-0.6074219,1.3549805-1.3544922,1.3549805  c-0.2363281,0-0.4648438-0.0761719-0.7177734-0.2397461c-0.0722656-0.046875-0.1650391-0.0522461-0.2441406-0.0151367  c-0.078125,0.0375977-0.1318359,0.1132813-0.140625,0.199707c-0.0703125,0.6987305-0.640625,1.2250977-1.3251953,1.2250977  c-0.6855469,0-1.2548828-0.5263672-1.3242188-1.2246094c-0.0087891-0.0864258-0.0625-0.1625977-0.140625-0.2001953  c-0.0341797-0.0166016-0.0712891-0.0249023-0.1083984-0.0249023c-0.046875,0-0.0947266,0.0136719-0.1357422,0.0400391  c-0.25,0.1611328-0.484375,0.2397461-0.7177734,0.2397461c-0.7470703,0-1.3554688-0.6079102-1.3554688-1.3549805  c0-0.1738281,0.0351563-0.347168,0.1044922-0.5151367c0.0507813-0.121582-0.0019531-0.2617188-0.1201172-0.3198242  c-0.4736328-0.2329102-0.7675781-0.6948242-0.7675781-1.2050781C32.4179688,13.7808228,32.7119141,13.3189087,33.1855469,13.0869751  z M35.6246948,18.7138062c0.0804443,0.0926514,0.1564331,0.1901245,0.2532349,0.2647095v0.8609009l-0.4327393-0.5344849  C35.5440674,19.1264038,35.6060791,18.9272461,35.6246948,18.7138062z M33.6123047,19.4053345  c-0.0732422-0.0458984-0.1660156-0.0517578-0.2441406-0.015625c-0.078125,0.0380859-0.1318359,0.1137695-0.140625,0.2006836  c-0.0517578,0.5141602-0.4707031,0.9018555-0.9746094,0.9018555s-0.9228516-0.3876953-0.9746094-0.9018555  c-0.0087891-0.0869141-0.0625-0.1625977-0.140625-0.2001953c-0.078125-0.0380859-0.1708984-0.0322266-0.2441406,0.0151367  c-0.1875,0.1210938-0.3554688,0.1777344-0.5273438,0.1777344c-0.5507813,0-0.9980469-0.4477539-0.9980469-0.9980469  c0-0.128418,0.0253906-0.2558594,0.0771484-0.3789063c0.0498047-0.1220703-0.0029297-0.2617188-0.1210938-0.3198242  c-0.3476563-0.171875-0.5644531-0.5117188-0.5644531-0.887207s0.2158203-0.715332,0.5644531-0.8867188  c0.1181641-0.0581055,0.1708984-0.1977539,0.1210938-0.3193359c-0.0517578-0.1240234-0.0771484-0.2514648-0.0771484-0.3798828  c0-0.550293,0.4472656-0.9975586,0.9980469-0.9975586c0.171875,0,0.3398438,0.0566406,0.5273438,0.1777344  c0.0742188,0.0483398,0.1669922,0.0532227,0.2441406,0.0151367c0.078125-0.0375977,0.1318359-0.1132813,0.140625-0.2001953  c0.0460205-0.4573975,0.3881836-0.798584,0.8167114-0.8720093c-0.1079102,0.2341919-0.177063,0.4873047-0.177063,0.7553101  c0,0.6289063,0.3212891,1.203125,0.8525391,1.5439453c-0.0458984,0.1630859-0.0693359,0.3291016-0.0693359,0.4960938  c0,1.0229492,0.8320313,1.8549805,1.8554688,1.8549805c0.1689453,0,0.3352051-0.0363159,0.5015259-0.0909424  c-0.0025024,0.0371704-0.0134888,0.0737915,0.0014038,0.1104736c0.0517578,0.1245117,0.078125,0.2519531,0.078125,0.3789063  c0,0.550293-0.4472656,0.9980469-0.9980469,0.9980469C33.9667969,19.5830688,33.7998047,19.5264282,33.6123047,19.4053345z   M36.3271484,22.300354l-1.7409058-2.2928467c0.2016602-0.0635376,0.3839722-0.1665649,0.5390015-0.3032227l0.8083496,0.9984131  c0.0488281,0.0600586,0.1201172,0.0927734,0.1943359,0.0927734c0.0283203,0,0.0556641-0.0048828,0.0830078-0.0141602  c0.1005859-0.0356445,0.1669922-0.1298828,0.1669922-0.2358398v-1.2957764  c0.1901855,0.0675659,0.3930664,0.1068115,0.6054688,0.1068115c0.2533569,0,0.4869385-0.0665283,0.7070313-0.1610718v1.3358765  c0,0.105957,0.0664063,0.2001953,0.1669922,0.2358398c0.0273438,0.0092773,0.0546875,0.0141602,0.0830078,0.0141602  c0.0742188,0,0.1455078-0.0327148,0.1943359-0.0927734l0.8908081-1.100708  c0.1729736,0.131897,0.3720093,0.2305908,0.5921631,0.2772827l-1.8745728,2.4191284  c-0.0341797,0.0439453-0.0527344,0.0976563-0.0527344,0.1533203v0.8634644  c-0.4504395,0.0232544-0.9014282,0.0806885-1.3125,0.2128296v-1.0621338  C36.3779297,22.3970337,36.3603516,22.343811,36.3271484,22.300354z M31.1416016,27.3164673  c-0.0712891-1.8291016,2.09375-3.1777344,3.1533203-3.5444336c0.4716187-0.1656494,0.8387451,0.2041016,1.0059204,0.4202271  c-0.1442871,0.1602783-0.2618408,0.3539429-0.3579102,0.5745239c-0.1696777-0.1621094-0.4004517-0.3201294-0.6665649-0.335083  c-0.6279297-0.0400391-1.7246094,1.2109375-2.0546875,1.59375c-0.0898438,0.1044922-0.078125,0.2626953,0.0263672,0.3525391  c0.046875,0.0410156,0.1054688,0.0605469,0.1630859,0.0605469c0.0703125,0,0.1396484-0.0292969,0.1894531-0.0869141  c0.65625-0.7617188,1.4179688-1.4208984,1.640625-1.4208984c0.0029297,0,0.0048828,0,0.0068359,0  c0.1992798,0.0112915,0.4133911,0.2512207,0.5193481,0.394043c-0.0406494,0.2138062-0.0720825,0.4384766-0.0720825,0.6987305  c0,0.4326172-0.0585938,0.8095703-0.1162109,1.1738281c-0.0839844,0.5429688-0.1572266,1.0107422-0.0019531,1.4775391  c0.296875,0.8876953,0.7958984,1.2158203,1.4287109,1.6308594l0.0078125,0.005188  c-0.0985718,0.2228394-0.3231812,0.5739136-0.7753906,0.5739136c-0.4990234,0-1.3554688-0.4511719-2.2353516-1.1767578  c-0.3661499-0.6942139-0.9037476-1.27771-1.5689697-1.6890259C31.2536011,27.7356567,31.1473389,27.4862061,31.1416016,27.3164673z   M26.0440674,23.3812256c-0.447876-0.0858154-0.7969971-0.520813-0.7969971-1.0681763  c0-0.4658203,0.2495117-0.852356,0.6035767-1.0135498L26.0440674,23.3812256z M28.3027344,10.4717407  c0.296875-0.1113281,0.5898438-0.081543,0.7617188,0.078125c0.1083984,0.1000977,0.1289063,0.3310547,0.0507813,0.5610352  c-0.0619507,0.182251-0.3358765,0.7512817-1.2494507,0.9122925c-0.0749512-0.2227783-0.1887817-0.4315186-0.3287354-0.6275024  C27.6512451,10.8969727,27.9897461,10.5881348,28.3027344,10.4717407z M20.9296875,11.1109009  c-0.078125-0.2294922-0.0576172-0.4599609,0.0507813-0.5600586c0.1708984-0.1591797,0.4638672-0.1894531,0.7617188-0.0786133  c0.3157959,0.1174316,0.6582642,0.4301758,0.769104,0.9370117c-0.1390991,0.1930542-0.2526245,0.3978271-0.328186,0.6151123  C21.2662964,11.8643799,20.9917603,11.2938843,20.9296875,11.1109009z M25.0253906,10.6314087  c1.2539063,0,2.4023438,0.9267578,2.4570313,1.9829102c0.0576782,1.1189575-0.5213013,2.5465698-0.9853516,3.366394  c-0.3690796-0.3146362-0.9015503-0.5172729-1.5-0.5172729c-0.5800781,0-1.0996094,0.1890259-1.4673462,0.4865723  c-0.4663086-0.8309326-1.0251465-2.2255859-0.9672241-3.3347168C22.6162109,11.5767212,23.7900391,10.6314087,25.0253906,10.6314087  z M23.4833984,16.9849243c0-0.5537109,0.6933594-1.0214844,1.5136719-1.0214844s1.5126953,0.4677734,1.5126953,1.0214844  s-0.6923828,1.0214844-1.5126953,1.0214844S23.4833984,17.5386353,23.4833984,16.9849243z M24.4240723,19.1518555  c0.2693481,0.1245117,0.447998,0.3425903,0.447998,0.5796509c0,0.2731323-0.2310181,0.5112305-0.5595093,0.6207886  L24.4240723,19.1518555z M23.8440552,25.3945313c0.0961304-0.1068726,0.2368164-0.2216187,0.4254761-0.2216187  c0.4248047,0,0.7841797,0.5878906,0.7841797,1.2832031s-0.359375,1.2822266-0.7841797,1.2822266  c-0.2282104,0-0.4469604-0.178894-0.5991821-0.4735107L23.8440552,25.3945313z M23.604248,27.975708  c0.1973877,0.1652222,0.4240723,0.2626343,0.6652832,0.2626343c0.7197266,0,1.2841797-0.7832031,1.2841797-1.7822266  c0-1-0.5644531-1.7832031-1.2841797-1.7832031c-0.1258545,0-0.2479248,0.0310669-0.3657227,0.0787964l0.3610229-3.8859253  c0.638855-0.1273193,1.1072388-0.5755005,1.1072388-1.1342773c0-0.4904175-0.3669434-0.9022827-0.9013062-1.0824585  l0.0183716-0.1976929c0.163208,0.0323486,0.3314209,0.0550537,0.5079346,0.0550537  c0.2056274,0,0.4002075-0.0302124,0.5872192-0.0737915l0.2196655,2.3641357  c-0.6108398,0.1923218-1.0568848,0.7870483-1.0568848,1.5162964c0,0.8463135,0.59552,1.5344238,1.3456421,1.5919189  l0.4058838,4.3687134c-0.6793823,0.5218506-1.1947021,1.2331543-1.4761353,2.0599976  c-0.2774048-0.8151245-0.7827148-1.5169067-1.447998-2.0368042L23.604248,27.975708z M19.8046875,20.5176392  c0.0087891,0.0869141,0.0625,0.1625977,0.140625,0.2006836c0.0771484,0.0371094,0.1708984,0.0307617,0.2441406-0.015625  c0.1875-0.1210938,0.3544922-0.1777344,0.5273438-0.1777344c0.5507813,0,0.9980469,0.4477539,0.9980469,0.9980469  c0,0.1269531-0.0263672,0.2543945-0.078125,0.3789063c-0.0498047,0.1220703,0.0029297,0.262207,0.1210938,0.3203125  c0.3486328,0.1708984,0.5654297,0.5107422,0.5654297,0.8867188c0,0.3754883-0.2167969,0.715332-0.5654297,0.8862305  c-0.1181641,0.0581055-0.1708984,0.1982422-0.1210938,0.3203125c0.0517578,0.1245117,0.078125,0.2524414,0.078125,0.3793945  c0,0.550293-0.4472656,0.9975586-0.9980469,0.9975586c-0.1728516,0-0.3398438-0.0566406-0.5273438-0.1777344  c-0.0722656-0.046875-0.1660156-0.0527344-0.2441406-0.015625c-0.078125,0.0380859-0.1318359,0.1142578-0.140625,0.2001953  c-0.0517578,0.5146484-0.4707031,0.9023438-0.9746094,0.9023438s-0.9228516-0.3876953-0.9746094-0.9023438  c-0.0087891-0.0859375-0.0625-0.1621094-0.140625-0.2001953c-0.0771484-0.0380859-0.1708984-0.0322266-0.2441406,0.015625  c-0.1875,0.1210938-0.3554688,0.1777344-0.5273438,0.1777344c-0.5507813,0-0.9980469-0.4472656-0.9980469-0.9975586  c0-0.0949097,0.0288696-0.1870728,0.0567627-0.2792358c0.1407471,0.0389404,0.2816162,0.0653687,0.4237061,0.0653687  c1.0224609,0,1.8544922-0.8325195,1.8544922-1.8554688c0-0.1679688-0.0234375-0.3339844-0.0683594-0.4956055  c0.5302734-0.3408203,0.8515625-0.9145508,0.8515625-1.5444336c0-0.3486328-0.1064453-0.6749878-0.2843018-0.9592285  c0.0177002-0.0009155,0.03302-0.010498,0.0509033-0.010498C19.3339844,19.6157837,19.7529297,20.003479,19.8046875,20.5176392z   M15.2050781,25.1665039c0.0931396-0.0844116,0.185791-0.1696167,0.260437-0.2719727  c0.0307007,0.2268066,0.1069946,0.4388428,0.2276611,0.6217651l-0.4880981,0.6029053V25.1665039z M8.8857422,13.2476196  c0.9951172-0.527832,1.9765625-0.5742188,2.2685547-0.5756836c0.0644531,0.0708008,0.1748047,0.2250977,0.2333984,0.4912109  c0.0252686,0.114502,0.0276489,0.2727661,0.022583,0.4408569c-1.4411621,0.0332031-3.031189,0.3658447-3.9587402,0.9783325  C7.6296387,14.2009277,8.0217285,13.7061768,8.8857422,13.2476196z M9.328125,14.5713501  c-0.4537354,0.0614624-0.8636475,0.1333008-1.2119141,0.2018433c0.7926636-0.3804321,1.9822388-0.6345825,3.2557373-0.6677856  c-0.0186157,0.1553955-0.0393677,0.305481-0.0604248,0.4298096C10.9589844,14.4927368,10.2548828,14.4453735,9.328125,14.5713501z   M11.1074219,16.0908813c0.0791016-0.2929688,0.1962891-0.4477539,0.3212891-0.6118164  c0.1201172-0.1586914,0.2441406-0.3232422,0.3242188-0.5878906l-0.0075073-0.0022583  c0.0025024-0.0078125,0.0116577-0.0115967,0.0133667-0.0197144c0.0253906-0.1245117,0.2451172-1.2319336,0.1171875-1.8134766  c-0.0691528-0.3153076-0.1937256-0.5214844-0.2999268-0.6544189c0.1640625-0.1150513,0.5551758-0.2619019,0.8594971-0.2635498  c0.0039063,0,0.0087891,0,0.0126953,0c0.8535156,0,1.2695313,0.5249023,1.3730469,1.0170898  c0.03125,0.1484375,0.0234375,0.3574219,0.015625,0.5595703c-0.0078125,0.2099609-0.015625,0.4077148,0.0166016,0.5722656  c0.03125,0.1645508,0.0908203,0.3457031,0.1572266,0.5410156c0.0749512,0.2223511,0.1426392,0.4701538,0.1862793,0.7254028  c-0.0675659-0.0076294-0.1294556-0.03302-0.1989746-0.03302c-0.8212891,0-1.5214844,0.5463867-1.7519531,1.3188477  c-0.2246094-0.0996094-0.4472656-0.1484375-0.6748047-0.1484375c-0.1723633,0-0.3359375,0.031189-0.4943848,0.0753174  C11.0436401,16.5530396,11.0421753,16.3305054,11.1074219,16.0908813z M10.2001953,19.3809204  c0.1181641-0.0581055,0.1708984-0.1982422,0.1201172-0.3203125c-0.0693359-0.1679688-0.1044922-0.3413086-0.1044922-0.5151367  c0-0.7470703,0.6083984-1.3549805,1.3554688-1.3549805c0.2333984,0,0.4677734,0.0786133,0.7177734,0.2402344  c0.0732422,0.0473633,0.1660156,0.0537109,0.2441406,0.0151367c0.078125-0.0375977,0.1318359-0.1132813,0.140625-0.2001953  c0.0693359-0.6987305,0.6386719-1.2255859,1.3242188-1.2255859c0.6845703,0,1.2548828,0.5268555,1.3251953,1.2260742  c0.0087891,0.0864258,0.0625,0.1621094,0.140625,0.2001953c0.078125,0.0366211,0.1699219,0.0307617,0.2441406-0.015625  c0.25-0.1616211,0.484375-0.2402344,0.7177734-0.2402344c0.7470703,0,1.3544922,0.6079102,1.3544922,1.3549805  c0,0.175293-0.0351563,0.3486328-0.1035156,0.5151367c-0.0507813,0.1220703,0.0019531,0.262207,0.1201172,0.3203125  c0.4726563,0.2319336,0.7666016,0.6933594,0.7666016,1.2045898s-0.2939453,0.9726563-0.7666016,1.2045898  c-0.1181641,0.0581055-0.1708984,0.1982422-0.1201172,0.3203125c0.0683594,0.1665039,0.1035156,0.3398438,0.1035156,0.5151367  c0,0.7475586-0.6074219,1.3554688-1.3544922,1.3554688c-0.2363281,0-0.4638672-0.0761719-0.7177734-0.2402344  c-0.0732422-0.046875-0.1650391-0.0522461-0.2441406-0.0151367c-0.078125,0.0375977-0.1318359,0.1132813-0.140625,0.199707  c-0.0703125,0.6987305-0.640625,1.2250977-1.3251953,1.2250977c-0.6855469,0-1.2548828-0.5263672-1.3242188-1.2246094  c-0.0087891-0.0864258-0.0625-0.1625977-0.140625-0.2001953c-0.0341797-0.0166016-0.0712891-0.0249023-0.1083984-0.0249023  c-0.046875,0-0.0947266,0.0136719-0.1357422,0.0400391c-0.2539063,0.1640625-0.4814453,0.2402344-0.7177734,0.2402344  c-0.7470703,0-1.3554688-0.6079102-1.3554688-1.3554688c0-0.1738281,0.0351563-0.347168,0.1044922-0.5151367  c0.0507813-0.1220703-0.0019531-0.262207-0.1201172-0.3203125c-0.4736328-0.2319336-0.7675781-0.6938477-0.7675781-1.2045898  S9.7265625,19.612854,10.2001953,19.3809204z M12.6394043,25.0078125c0.0804443,0.0926514,0.1563721,0.1900635,0.2531738,0.2646484  v0.8604126l-0.4326172-0.5339966C12.5588379,25.4203491,12.6209106,25.2211914,12.6394043,25.0078125z M10.6269531,25.6992798  c-0.0722656-0.0458984-0.1660156-0.0537109-0.2441406-0.015625s-0.1318359,0.1142578-0.140625,0.2001953  c-0.0517578,0.5146484-0.4707031,0.9023438-0.9746094,0.9023438s-0.9228516-0.3876953-0.9746094-0.9023438  c-0.0087891-0.0859375-0.0625-0.1621094-0.140625-0.2001953s-0.1708984-0.0322266-0.2441406,0.015625  c-0.1875,0.1210938-0.3554688,0.1777344-0.5273438,0.1777344c-0.5507813,0-0.9980469-0.4472656-0.9980469-0.9975586  c0-0.1289063,0.0253906-0.2563477,0.0771484-0.3793945c0.0498047-0.1220703-0.0029297-0.2617188-0.1210938-0.3198242  c-0.3476563-0.171875-0.5644531-0.5117188-0.5644531-0.887207s0.2158203-0.715332,0.5644531-0.8867188  c0.1181641-0.0581055,0.1708984-0.1977539,0.1210938-0.3198242c-0.0517578-0.1230469-0.0771484-0.2504883-0.0771484-0.3793945  c0-0.550293,0.4472656-0.9975586,0.9980469-0.9975586c0.171875,0,0.3398438,0.0566406,0.5273438,0.1777344  c0.0742188,0.0478516,0.1669922,0.0527344,0.2441406,0.0151367c0.078125-0.0375977,0.1318359-0.1132813,0.140625-0.2001953  c0.0460205-0.4573975,0.3881836-0.798584,0.8167114-0.8720093c-0.1079102,0.2341919-0.177063,0.4873047-0.177063,0.7553101  c0,0.6293945,0.3212891,1.2036133,0.8525391,1.5439453c-0.0458984,0.1630859-0.0693359,0.3291016-0.0693359,0.4960938  c0,1.0229492,0.8320313,1.8554688,1.8554688,1.8554688c0.1682739,0,0.3348999-0.036438,0.5015259-0.0913086  c-0.0024414,0.0371094-0.0134888,0.0737305,0.0014038,0.1103516c0.0517578,0.1245117,0.078125,0.2524414,0.078125,0.3793945  c0,0.550293-0.4472656,0.9975586-0.9980469,0.9975586C10.9814453,25.8770142,10.8144531,25.8203735,10.6269531,25.6992798z   M13.3417969,28.593811l-1.7408447-2.2923584c0.2017212-0.0635986,0.3839722-0.166626,0.5390015-0.3032227l0.8082886,0.9979248  c0.0488281,0.0595703,0.1201172,0.0927734,0.1943359,0.0927734c0.0283203,0,0.0556641-0.0048828,0.0830078-0.0146484  c0.1005859-0.0351563,0.1669922-0.1298828,0.1669922-0.2353516v-1.2952881  c0.1901855,0.0675659,0.3930664,0.1068115,0.6054688,0.1068115c0.2533569,0,0.4869385-0.0665283,0.7070313-0.1610718v1.3358765  c0,0.1054688,0.0664063,0.2001953,0.1669922,0.2353516c0.0273438,0.0097656,0.0546875,0.0146484,0.0830078,0.0146484  c0.0742188,0,0.1455078-0.0332031,0.1943359-0.0927734l0.8909912-1.1005249  c0.1729126,0.1318359,0.3718872,0.2304077,0.59198,0.2770996l-1.8745728,2.4191284  c-0.0341797,0.0439453-0.0527344,0.0976563-0.0527344,0.1533203v5.8027344h-1.3125v-1.5006104  c0.4676514-0.0338135,0.8519897-0.2210083,1.0537109-0.3880615c0.0966797-0.0800781,0.1191406-0.21875,0.0527344-0.3251953  c-0.0657959-0.1044312-0.5197754-0.8026733-1.1064453-1.1900024v-1.427063  c0.4764404-0.3631592,0.8684082-0.7475586,1.0124512-1.0889893c0.0028076-0.0036621,0.0073242-0.0049438,0.0100098-0.0087891  c0.0030518-0.0043945,0.0003662-0.0100708,0.0031128-0.0145874c0.0065308-0.0167847,0.0239258-0.0352783,0.0291138-0.0518188  c0.2841797-0.90625,0.0185547-2.3349609,0.0078125-2.3955078c-0.0263672-0.1347656-0.1572266-0.2226563-0.2929688-0.1992188  c-0.1357422,0.0263672-0.2246094,0.1572266-0.1992188,0.2929688c0.0025635,0.0118408,0.1908569,1.0261841,0.0808105,1.8091431  l-0.7380371-0.5083618c-0.1123047-0.0751953-0.2685547-0.0498047-0.3476563,0.0644531  c-0.078125,0.1132813-0.0498047,0.2695313,0.0644531,0.3476563l0.8642578,0.5952759  c-0.1004639,0.1554565-0.2706909,0.3321533-0.4941406,0.5205688v-0.3209229  C13.3925781,28.6904907,13.375,28.6377563,13.3417969,28.593811z M13.9355469,32.3809204  c-0.2728271,0.1419067-0.8102417,0.3051147-1.4362183-0.0465698c0.0184326-0.2839355-0.0272827-0.5617065-0.1552734-0.8303833  c0.1382446-0.1186523,0.260376-0.1310425,0.3375854-0.1318359C13.1269531,31.3965454,13.6523438,31.9922485,13.9355469,32.3809204z   M12.4089355,32.8551025c0.1652222,0.0768433,0.3265381,0.1233521,0.4836426,0.1529541v1.5261841h-1.1325073  c0.0727539-0.1883545,0.1519775-0.3779297,0.2330933-0.5654297C12.1525879,33.5993042,12.3106079,33.2250977,12.4089355,32.8551025z   M12.8925781,30.0600586v0.852356c-0.060791-0.0143433-0.1208496-0.0358276-0.1826172-0.0393066  c-0.1668091-0.0068359-0.4163208,0.0333862-0.6600952,0.2278442c-0.1049194-0.1120605-0.2232666-0.2133179-0.361084-0.3011475  C12.0065308,30.6211548,12.4429321,30.3641968,12.8925781,30.0600586z M5.7822266,32.3799438  c0.2792969-0.3818359,0.8105469-0.984375,1.2529297-1.0097656c0.0831909,0.0023193,0.2024536,0.0154419,0.338501,0.131958  c-0.1279907,0.2686768-0.1737061,0.5463867-0.1552124,0.8303223C6.5944214,32.6831665,6.0577393,32.520874,5.7822266,32.3799438z   M7.8857422,31.5899048c0.3994141-0.6191406,1.2929688-0.7490234,1.9726563-0.7490234  c0.470459,0,0.8765259,0.0657959,1.2073975,0.1881104c0.0115967,0.0045166,0.022583,0.0096436,0.034668,0.0123901  c0.3273315,0.1270752,0.5775146,0.3117065,0.7315674,0.5504761c0.3847656,0.5966797,0.0537109,1.3652344-0.2978516,2.1787109  c-0.2294922,0.5292969-0.4658203,1.078125-0.5087891,1.6103516c-0.03125,0.390625-0.5878906,0.7460938-1.1669922,0.7460938  c-0.5791016-0.0009766-1.1347656-0.3574219-1.1660156-0.7480469c0-0.0009766,0-0.0009766,0-0.0009766  c-0.0429688-0.53125-0.2792969-1.0800781-0.5087891-1.609375C7.8320313,32.9551392,7.5009766,32.1865845,7.8857422,31.5899048z   M4.7412109,35.0342407h3.3833008c0.0339355,0.1312256,0.0598755,0.2600708,0.0698242,0.3837891  c0.0576172,0.7216797,0.9072266,1.2080078,1.6640625,1.2089844c0.7578125,0,1.6074219-0.484375,1.6650391-1.2060547  c0.0100098-0.1246948,0.0363159-0.2545166,0.0705566-0.3867188h4.9284668v7.9873047h-11.78125V35.0342407z M17.0224609,31.7315063  c0-2.1367188,1.7382813-3.875,3.875-3.875s3.875,1.7382813,3.875,3.875v11.2900391H24.140625V31.819397  c0-1.7832031-1.4511719-3.234375-3.234375-3.234375s-3.234375,1.4511719-3.234375,3.234375v11.2021484h-0.6494141V31.7315063z   M23.640625,39.2051392h-1.3886719v-9.7514648c0.8249512,0.4712524,1.3886719,1.3494263,1.3886719,2.3657227V39.2051392z   M21.7519531,39.2051392h-1.7089844v-9.9671631c0.2729492-0.0916138,0.5598145-0.1529541,0.8632813-0.1529541  c0.2969971,0,0.5777588,0.0595703,0.8457031,0.147522V39.2051392z M19.5429688,39.2051392H18.171875V31.819397  c0-1.0091553,0.5556641-1.8824463,1.3710938-2.3562012V39.2051392z M18.171875,39.7051392h1.3710938v3.3164063H18.171875V39.7051392  z M20.0429688,39.7051392h1.7089844v3.3164063h-1.7089844V39.7051392z M22.2519531,39.7051392h1.3886719v3.3164063h-1.3886719  V39.7051392z M30.4550781,39.7051392h1.3798828v3.3164063h-1.3798828V39.7051392z M29.9550781,43.0215454h-1.7089844v-3.3164063  h1.7089844V43.0215454z M31.8349609,39.2051392h-1.3798828v-9.7467041c0.8201904,0.4725952,1.3798828,1.3482666,1.3798828,2.3609619  V39.2051392z M29.9550781,39.2051392h-1.7089844v-9.9698486c0.2704468-0.0897827,0.5542603-0.1502686,0.8544922-0.1502686  s0.5840454,0.0604858,0.8544922,0.1502686V39.2051392z M27.7460938,39.2051392h-1.3798828V31.819397  c0-1.0126953,0.5596924-1.8883667,1.3798828-2.3609619V39.2051392z M26.3662109,39.7051392h1.3798828v3.3164063h-1.3798828  V39.7051392z M33.0224609,43.0215454h-0.6875V31.819397c0-1.7832031-1.4511719-3.234375-3.234375-3.234375  s-3.234375,1.4511719-3.234375,3.234375v11.2021484h-0.59375V31.7315063c0-2.1367188,1.7382813-3.875,3.875-3.875  s3.875,1.7382813,3.875,3.875V43.0215454z M45.3212891,43.0215454H33.5224609v-7.9873047h4.8596191  c0.2979736,0.4118652,0.590271,0.7262573,0.7888184,0.7714844c0.0527344,0.0126953,0.109375,0.0185547,0.1669922,0.0185547  c0.4658203,0,1.0361328-0.3759766,1.1523438-0.7197266c0.0072632-0.0216675,0.0025635-0.0475464,0.0060425-0.0703125h4.8250122  V43.0215454z M12.6083984,13.737854c0.3535156,0,0.6416016-0.2880859,0.6416016-0.6420898s-0.2880859-0.6420898-0.6416016-0.6420898  c-0.3544922,0-0.6425781,0.2880859-0.6425781,0.6420898S12.2539063,13.737854,12.6083984,13.737854z M12.6083984,12.9536743  c0.078125,0,0.1416016,0.0639648,0.1416016,0.1420898c0,0.1567383-0.2832031,0.1547852-0.2841797,0  C12.4658203,13.0176392,12.5292969,12.9536743,12.6083984,12.9536743z M35.2089844,36.6777954  c-0.1376953,0-0.25,0.1123047-0.25,0.25v2.1005859c0,0.1376953,0.1123047,0.25,0.25,0.25h6.015625  c0.1376953,0,0.25-0.1123047,0.25-0.25v-2.1005859c0-0.1376953-0.1123047-0.25-0.25-0.25H35.2089844z M40.9746094,38.7783813  h-5.515625v-1.6005859h5.515625V38.7783813z"></path></svg>