<svg height='100px' width='100px'  fill="#3b4aff" xmlns="http://www.w3.org/2000/svg" viewBox="0 0 64 64" x="0px" y="0px"><title>taxi-car-public transport-cab</title><g><circle cx="48" cy="46" r="2"></circle><circle cx="16" cy="46" r="2"></circle><path d="M61.9,37.583a1,1,0,0,0-.185-.274c-.014-.015-.031-.026-.047-.041a1.11,1.11,0,0,0-.116-.1l-8.695-5.8-3.484-12.2A3.014,3.014,0,0,0,46.491,17H45V14a3,3,0,0,0-3-3H36a3,3,0,0,0-3,3v3H15.509a3.014,3.014,0,0,0-2.885,2.176L9.246,31H7a5.006,5.006,0,0,0-5,5V46a1,1,0,0,0,1,1h7.09a5.993,5.993,0,0,0,11.82,0H42.09a5.993,5.993,0,0,0,11.82,0H61a1,1,0,0,0,1-1V38a1,1,0,0,0-.07-.347C61.921,37.629,61.914,37.606,61.9,37.583ZM58,39h2v2H58ZM35,14a1,1,0,0,1,1-1h6a1,1,0,0,1,1,1v3H35ZM4,39H6v2H4ZM16,50a4,4,0,1,1,4-4A4,4,0,0,1,16,50Zm32,0a4,4,0,1,1,4-4A4,4,0,0,1,48,50Zm5.91-5a5.993,5.993,0,0,0-11.82,0H21.91a5.993,5.993,0,0,0-11.82,0H4V43H7a1,1,0,0,0,1-1V38a1,1,0,0,0-1-1H4V36a3,3,0,0,1,3-3h3a1,1,0,0,0,.962-.726l3.586-12.549A1,1,0,0,1,15.509,19H46.491a1,1,0,0,1,.961.725l3.586,12.549a1.006,1.006,0,0,0,.407.558L57.7,37H57a1,1,0,0,0-1,1v4a1,1,0,0,0,1,1h3v2Z"></path><path d="M45.958,21.713A1,1,0,0,0,45,21H32a1,1,0,0,0-1,1V32a1,1,0,0,0,1,1H48a1,1,0,0,0,.958-1.287ZM33,31V23H44.256l2.4,8Z"></path><path d="M29,32V22a1,1,0,0,0-1-1H17a1,1,0,0,0-.958.713l-3,10A1,1,0,0,0,14,33H28A1,1,0,0,0,29,32Zm-2-1H15.344l2.4-8H27Z"></path><path d="M36,37a1,1,0,0,0,0-2H34a1,1,0,0,0,0,2Z"></path><path d="M18,35H16a1,1,0,0,0,0,2h2a1,1,0,0,0,0-2Z"></path><path d="M42.948,24.684A1,1,0,0,0,42,24H40a1,1,0,0,0,0,2h1.279l.773,2.316a1,1,0,0,0,1.9-.632Z"></path><rect x="2" y="19" width="8" height="2"></rect><rect x="2" y="23" width="6" height="2"></rect><rect x="21" y="39" width="2" height="2"></rect><rect x="23" y="41" width="2" height="2"></rect><rect x="25" y="39" width="2" height="2"></rect><rect x="27" y="41" width="2" height="2"></rect><rect x="29" y="39" width="2" height="2"></rect><rect x="31" y="41" width="2" height="2"></rect><rect x="33" y="39" width="2" height="2"></rect><rect x="35" y="41" width="2" height="2"></rect><rect x="37" y="39" width="2" height="2"></rect><rect x="41" y="39" width="2" height="2"></rect><rect x="39" y="41" width="2" height="2"></rect></g></svg>