<svg height='100px' width='100px'  fill="#3b4aff" xmlns="http://www.w3.org/2000/svg" xmlns:xlink="http://www.w3.org/1999/xlink" version="1.1" x="0px" y="0px" viewBox="0 0 64 64" enable-background="new 0 0 64 64" xml:space="preserve"><g><g><path d="M11.75,35C11.2000122,35,11,35.4500122,11,36v4h16v-4c0-0.5499878-0.7000122-1-1.25-1H11.75z"></path><path d="M37.1699829,50l-2.0799561,4.9899902c-0.0700073,0.1699829-0.1200562,0.3399658-0.1300049,0.5200195    c-0.210022-0.1000366-0.4299927-0.1900024-0.6400146-0.2800293C32.3499756,54.4299927,30.2000122,54,28,54    c-4.4000244,0-8.5999756,1.7099609-11.5200195,4.7000122C16.289978,58.8900146,16.039978,59,15.7700195,59H5    c-0.5499878,0-1-0.4500122-1-1v-8H37.1699829z"></path><path d="M42.2000122,41c-2.0700073,1.5499878-3.6300049,4.2000122-4.2700195,6.7600098    c-0.039978,0.1799927-0.0499878,0.3699951-0.0499878,0.5499878L37.5900269,49H4c-0.5499878,0-1-0.4500122-1-1v-2    c0-2.4099731,1.7199707-4.4299927,4-4.9000244C7.3200073,41.039978,7.6599731,41,8,41H42.2000122z"></path><path d="M46,36.210022V36c0-1.3800049-0.8800049-2-1.75-2h-14C29.1900024,34,28,34.8599854,28,36c0-1.1400146-1.1900024-2-2.25-2    h-14C10.8800049,34,10,34.6199951,10,36v4H8c-0.3099976,0-0.6500244,0.0300293-1,0.0900269V32c0-0.5499878,0.4500122-1,1-1    h39.3200073L46,36.210022z"></path><path d="M45,36v3.7299805C44.6599731,39.7800293,44.3400269,39.8699951,44.0200195,40H29v-4c0-0.5499878,0.7000122-1,1.25-1h14    C44.7999878,35,45,35.4500122,45,36z"></path></g><path d="M56.210022,8.0200195l-8.1000366,32.0999756c-0.289978-0.1500244-0.6099854-0.2700195-0.9400024-0.3499756   c-0.3200073-0.0800171-0.6599731-0.1300049-1-0.1400146l8.1000366-32.0999756   c0.1300049-0.5400391,0.6699829-0.8600464,1.2099609-0.7300415C56.0200195,6.9400024,56.3400269,7.4799805,56.210022,8.0200195z"></path><path d="M50.1900024,52.5899658l-0.6099854,6.2000122c-0.0300293,0.289978-0.1799927,0.5499878-0.4200439,0.7200317   c-0.1699829,0.1199951-0.3699951,0.1799927-0.5799561,0.1799927c-0.0800171,0-0.1600342-0.0100098-0.2399902-0.0300293   l-5.8200073-1.4599609c-0.5400391-0.1400146-0.8600464-0.6800537-0.7300415-1.2200317l0.0599976-0.2000122l-1.3999634,0.6600342   C40.2399902,57.539978,40,57.5599976,39.7800293,57.5l-3.0800171-0.7700195   c-0.2800293-0.0700073-0.5200195-0.2600098-0.6500244-0.5200195c-0.1300049-0.2599487-0.1400146-0.5699463-0.0299683-0.8399658   l2.3999634-5.75c0.2600098,0.2700195,0.5900269,0.4700317,0.960022,0.5700073l9.7000122,2.4400024   c0.1599731,0.039978,0.3299561,0.0599976,0.4899902,0.0599976C49.7800293,52.6900024,49.9899902,52.6599731,50.1900024,52.5899658z   "></path><path d="M46.9208984,40.7416992c-0.3095703-0.078125-0.6318359-0.1176758-0.9570313-0.1176758   c-3.2548828,0-6.1464844,3.7509766-7.0615234,7.3774414c-0.0644531,0.2573242-0.0244141,0.5297852,0.1113281,0.7573242   s0.3564453,0.3920898,0.6142578,0.4570313l9.6972656,2.4453125c0.0800781,0.0200195,0.1621094,0.0302734,0.2441406,0.0302734   c0.1787109,0,0.3564453-0.0483398,0.5126953-0.1416016c0.2275391-0.1357422,0.3925781-0.3569336,0.4570313-0.6137695   C51.5791016,46.8081055,50.3496094,41.6064453,46.9208984,40.7416992z"></path><g><g><path d="M36,26c-0.5527344,0-1-0.4477539-1-1c0-1.6542969-1.3457031-3-3-3c-0.5522461,0-1-0.4477539-1-1s0.4477539-1,1-1     c1.6542969,0,3-1.3457031,3-3c0-0.5522461,0.4472656-1,1-1s1,0.4477539,1,1c0,1.6542969,1.3457031,3,3,3     c0.5527344,0,1,0.4477539,1,1s-0.4472656,1-1,1c-1.6542969,0-3,1.3457031-3,3C37,25.5522461,36.5527344,26,36,26z M34.9970703,21     C35.3769531,21.2851563,35.7148438,21.6235352,36,22.0029297C36.2851563,21.6235352,36.6230469,21.2851563,37.0029297,21     C36.6230469,20.7148438,36.2851563,20.3764648,36,19.9970703C35.7148438,20.3764648,35.3769531,20.7148438,34.9970703,21z"></path></g></g><g><g><path d="M57,53c-0.5527344,0-1-0.4477539-1-1c0-1.6542969-1.3457031-3-3-3c-0.5527344,0-1-0.4477539-1-1s0.4472656-1,1-1     c1.6542969,0,3-1.3457031,3-3c0-0.5522461,0.4472656-1,1-1s1,0.4477539,1,1c0,1.6542969,1.3457031,3,3,3     c0.5527344,0,1,0.4477539,1,1s-0.4472656,1-1,1c-1.6542969,0-3,1.3457031-3,3C58,52.5522461,57.5527344,53,57,53z M55.9970703,48     C56.3769531,48.2851563,56.7148438,48.6235352,57,49.0029297C57.2851563,48.6235352,57.6230469,48.2851563,58.0029297,48     C57.6230469,47.7148438,57.2851563,47.3764648,57,46.9970703C56.7148438,47.3764648,56.3769531,47.7148438,55.9970703,48z"></path></g></g><polygon points="23.9997559,52 24.0001221,52 24,52  "></polygon><polygon points="23.9993896,52 23.9995728,52 23.9995117,52  "></polygon></g></svg>