<svg height='100px' width='100px'  fill="#3b4aff" xmlns="http://www.w3.org/2000/svg" xmlns:xlink="http://www.w3.org/1999/xlink" version="1.1" x="0px" y="0px" viewBox="0 0 500 500" enable-background="new 0 0 500 500" xml:space="preserve"><g><g><g><g><path d="M317,363v19H183v-19h42V216.8c0-5.4-4.5-9.8-9.9-9.8h-22.2c-5.4,0-9.9-4.4-9.9-9.9      c0-2.7,1.1-5.3,2.9-7.1c1.8-1.8,4.2-3,7-3h72.3c5.4,0,9.8,4.7,9.8,10.1V363H317z"></path><g><path d="M314,363c0,6,0,12.6,0,19.2c1-1,1.9-2.2,3-3.2c-39.2,0-78.3,0-117.5,0c-5.5,0-11,0-16.4,0       c1,1,2,2.1,3,3.2c0-6.6,0-13.1,0-19.7c-1,1-1.9,2.5-3,3.5c14,0,27.9,0,41.9,0c1.7,0,3.1-1.8,3.1-3.5c0-29.7,0-59.5,0-89.2       c0-16.3,0-32.7,0-49c0-3,0.3-6.2-0.1-9.2c-1.7-11.7-13-11.2-21.9-11.2c-4.1,0-8.3,0.2-12.4,0c-8.8-0.4-10.1-12.9-0.6-13.7       c5.5-0.4,11.2-0.2,16.6-0.2c17.7,0,35.4,0,53.2,0c5.3,0,9.1,2.6,9.2,8.2c0.1,4.2,0,8.6,0,12.8c0,17.3,0,34.6,0,51.9       c0,32.5-0.5,65.1,0,97.7c0,0.6,0,1.4,0,2c0,1.7,1.4,3.3,3.1,3.3c14,0,27.9,0,41.9,0c4,0,4-7,0-7c-14,0-28,0-41.9,0       c1,1,1.9,2.5,2.9,3.5c0-29.7,0-59.4,0-89.2c0-19,0-38,0-56.9c0-9,3-25.1-6.3-30.6c-4.9-2.9-12.1-1.8-17.6-1.8c-10,0-20,0-30,0       c-8.8,0-17.6,0-26.5,0c-1.6,0-3.2,0-4.7,0.1c-7,0.3-12.9,5.7-13,13c0,6.3,4.7,11.7,10.8,12.8c3.5,0.6,7.3,0.2,10.8,0.2       c6.7,0,19.9-2.6,20.4,7.2c0.6,12.1,0.1,24.4,0.1,36.5c0,35.5,0,71,0,106.6c0,0.7,0,1.5,0,2.2c1-1,1.9-2.5,2.9-3.5       c-14,0-27.9,0-41.9,0c-1.7,0-3,1.8-3,3.5c0,6.6,0,13.1,0,19.7c0,1.7,1.4,2.8,3,2.8c39.2,0,78.3,0,117.5,0c5.5,0,11,0,16.4,0       c1.7,0,3-1.1,3-2.8c0-6.6,0-13.2,0-19.2C320,359,314,359,314,363z"></path></g></g></g><g><circle cx="247.2" cy="143.3" r="25.5"></circle><g><path d="M269.6,143.3c-0.3,12.2-9.9,22.4-22.4,22.4c-12.3,0-22.3-10.2-22.4-22.4c-0.1-12.2,10.2-22.4,22.4-22.4      C259.6,120.9,269.3,131.1,269.6,143.3c0.1,4,6.3,4,6.2,0c-0.3-11.8-7.3-22.5-18.5-26.7c-11.3-4.3-24.4-0.8-32.1,8.4      c-16.7,20.1,1.3,50.9,26.9,46.4c13.8-2.4,23.3-14.5,23.6-28.1C275.9,139.3,269.7,139.3,269.6,143.3z"></path></g></g></g><g><g><path d="M458.7,250c0,5.8-0.2,11.6-0.7,17.4c-0.2,2.8-0.5,5.5-0.8,8.2c-0.1,0.6-0.5,4.2-0.3,2.8     c0.2-1.7-0.1,0.5-0.1,0.7c-0.1,0.9-0.3,1.8-0.4,2.7c-1.8,11.1-4.4,22.1-7.9,32.8c-1.7,5.3-3.6,10.5-5.7,15.6     c-0.2,0.6-0.5,1.2-0.8,1.8c0.1-0.2,0.9-2.1,0.2-0.5c-0.5,1.2-1.1,2.4-1.6,3.6c-1.3,2.8-2.6,5.6-4,8.3c-5,9.8-10.6,19.2-17,28.1     c-1.5,2.1-3.1,4.2-4.7,6.3c-1,1.4,0.2-0.3,0.3-0.4c-0.4,0.5-0.8,1-1.2,1.5c-1,1.2-1.9,2.4-2.9,3.5c-3.5,4.2-7.1,8.2-10.9,12.1     c-3.8,3.9-7.7,7.7-11.8,11.3c-1.9,1.7-3.9,3.5-5.9,5.1c-1,0.8-2,1.7-3,2.5c-0.5,0.4-1,0.8-1.5,1.2c-1.8,1.4,1.8-1.3-0.1,0.1     c-8.7,6.6-17.9,12.6-27.4,17.9c-4.8,2.7-9.7,5.1-14.7,7.4c-1.2,0.6-2.4,1.1-3.6,1.6c-2.6,1.2,1.4-0.5-1.3,0.6     c-2.7,1.1-5.3,2.1-8.1,3.1c-10.7,3.9-21.8,7-33,9.3c-2.7,0.5-5.4,1-8,1.4c-1.4,0.2-2.7,0.4-4.1,0.6c2.8-0.4-1.2,0.1-2.1,0.2     c-5.7,0.7-11.5,1.1-17.3,1.3c-11.6,0.4-23.3,0-34.8-1.4c-1-0.1-4.1-0.6-1.5-0.2c-1.4-0.2-2.7-0.4-4.1-0.6c-2.9-0.5-5.8-1-8.7-1.6     c-5.5-1.1-11-2.4-16.4-4c-5.4-1.5-10.7-3.2-15.9-5.1c-2.5-0.9-5-1.9-7.4-2.9c-0.6-0.2-1.2-0.5-1.8-0.8c0.2,0.1,2.1,0.9,0.5,0.2     c-1.4-0.6-2.8-1.2-4.2-1.9c-10-4.6-19.6-9.9-28.8-15.9c-4.6-3-9-6.1-13.4-9.4c-1.4-1,0.3,0.2,0.4,0.3c-0.7-0.5-1.4-1.1-2-1.6     c-1-0.8-2-1.6-3-2.5c-2.2-1.8-4.3-3.7-6.4-5.6c-8.1-7.3-15.6-15.2-22.6-23.5c-0.8-1-1.7-2-2.5-3c-0.4-0.5-0.8-1-1.2-1.5     c0.1,0.2,1.4,1.8,0.3,0.4c-1.7-2.3-3.4-4.5-5-6.9c-3.1-4.5-6.1-9.1-8.9-13.7c-2.8-4.7-5.5-9.5-7.9-14.4c-1.2-2.4-2.3-4.7-3.4-7.1     c-0.6-1.2-1.1-2.4-1.6-3.6c-0.1-0.2-1-2.2-0.3-0.6c0.7,1.5-0.4-1-0.5-1.3c-4.2-10.3-7.6-21-10.2-31.8c-1.3-5.5-2.4-11-3.3-16.6     c-0.2-1.4-0.4-2.7-0.6-4.1c0.4,2.6-0.1-0.5-0.2-1.5c-0.3-3-0.6-5.9-0.9-8.9c-0.9-11.8-0.9-23.8,0.1-35.6c0.2-2.8,0.5-5.5,0.8-8.2     c0.1-1,0.6-4.1,0.2-1.5c0.2-1.6,0.5-3.2,0.7-4.7c0.9-5.6,2-11.1,3.4-16.6c2.6-10.8,6.2-21.4,10.3-31.8c1.1-2.7-0.6,1.3,0.6-1.3     c0.5-1.2,1.1-2.4,1.6-3.6c1.2-2.6,2.4-5.2,3.7-7.7c2.5-4.9,5.1-9.7,8-14.4c2.8-4.7,5.8-9.2,9-13.7c1.5-2.1,3.1-4.2,4.7-6.3     c1-1.4-0.2,0.3-0.3,0.4c0.4-0.5,0.8-1,1.2-1.5c1-1.2,1.9-2.4,2.9-3.5c7-8.4,14.6-16.2,22.7-23.5c1.9-1.7,3.9-3.5,5.9-5.1     c1.2-1,2.4-1.9,3.5-2.9c0.5-0.4,1-0.8,1.5-1.2c-1.1,0.9-1,0.7,0.1-0.1c4.4-3.3,8.8-6.4,13.4-9.4c9.2-6,18.8-11.3,28.8-15.8     c1.2-0.6,2.4-1.1,3.6-1.6c1.6-0.7-0.3,0.1-0.5,0.2c0.6-0.3,1.2-0.5,1.8-0.8c2.7-1.1,5.4-2.1,8.1-3.1c5.2-1.9,10.6-3.6,15.9-5.1     c5.4-1.5,10.9-2.8,16.4-3.9c2.7-0.5,5.4-1,8-1.4c1.4-0.2,2.7-0.4,4.1-0.6c-2.8,0.4,1.2-0.1,2.1-0.2c11.5-1.3,23.2-1.7,34.8-1.3     c5.8,0.2,11.5,0.7,17.3,1.4c1,0.1,4.1,0.6,1.5,0.2c1.4,0.2,2.7,0.4,4.1,0.6c2.9,0.5,5.8,1,8.7,1.6c11.2,2.3,22.2,5.4,32.9,9.3     c2.5,0.9,5,1.9,7.4,2.9c2.7,1.1-1.3-0.6,1.3,0.6c1.4,0.6,2.8,1.3,4.2,1.9c5,2.3,9.9,4.8,14.7,7.5c9.5,5.3,18.7,11.3,27.4,18     c-2-1.5,0.4,0.3,1.1,0.9c1,0.8,2,1.6,3,2.5c2.2,1.8,4.3,3.7,6.4,5.6c4,3.6,8,7.4,11.7,11.4c3.8,3.9,7.4,8,10.9,12.2     c0.8,1,1.7,2,2.5,3c0.4,0.5,0.8,1,1.2,1.5c-0.1-0.2-1.4-1.8-0.3-0.4c1.7,2.3,3.4,4.5,5,6.9c6.3,9,12,18.4,16.9,28.1     c1.3,2.6,2.5,5.1,3.7,7.7c0.6,1.2,1.1,2.4,1.6,3.6c0.7,1.6-0.1-0.3-0.2-0.5c0.3,0.8,0.7,1.6,1,2.5c2.1,5.1,4,10.4,5.7,15.7     c3.4,10.7,6,21.7,7.8,32.8c0.1,0.6,0.6,4.2,0.4,2.7c-0.2-1.4,0.3,2.2,0.3,2.8c0.3,2.7,0.6,5.5,0.8,8.2     C458.5,238.4,458.7,244.2,458.7,250c0,7.8,6.9,15.4,15,15c8.1-0.4,15-6.6,15-15c-0.2-48.8-15.1-97.5-43.5-137.4     c-28.4-39.8-67.8-70.1-113.7-87C285,8.4,232.7,6.8,185,20.2c-45.9,13-88,40.1-118.3,76.9C35.1,135.5,16,182.2,12,231.9     c-3.9,49,8,99.2,33.4,141.3c24.5,40.6,61.5,74.1,104.7,93.7c46.3,21,97.8,27,147.7,17c47.2-9.4,91.3-34,124.5-68.8     c33.2-34.7,56-79.6,63.2-127.2c1.9-12.6,3-25.1,3.1-37.8c0-7.8-6.9-15.4-15-15C465.6,235.4,458.7,241.6,458.7,250z"></path></g></g></g></svg>