<?xml version="1.0" encoding="utf-8"?>
<!-- Generator: Adobe Illustrator 22.0.1, SVG Export Plug-In . SVG Version: 6.00 Build 0)  -->
<svg version="1.1" id="Layer_1" xmlns="http://www.w3.org/2000/svg" xmlns:xlink="http://www.w3.org/1999/xlink" x="0px" y="0px"
	 viewBox="0 0 806.4 129.6" enable-background="new 0 0 806.4 129.6" xml:space="preserve">
<path fill="#135EAB" d="M144.4,88c3-0.2,6-0.6,9.1-1.2c3.1-0.6,6.1-1.4,8.9-2.5c2.9-1.1,5.6-2.4,8.1-3.9c2.5-1.5,4.7-3.3,6.6-5.3
	c1.9-2,3.4-4.3,4.4-6.8c1.1-2.5,1.6-5.3,1.6-8.5c0-1.8-0.3-3.3-1-4.7c-0.7-1.4-1.6-2.5-2.8-3.4c-1.2-0.9-2.5-1.5-4-2
	c-1.5-0.4-3-0.7-4.5-0.7c-4,0-7.7,0.9-11.1,2.6s-6.5,4-9.3,6.8c-2.8,2.8-5.3,6-7.4,9.6c-2.2,3.6-4,7.3-5.4,11
	c-1.5,3.7-2.6,7.4-3.3,10.9c-0.8,3.5-1.1,6.7-1.1,9.4c0,5.1,0.6,9.3,1.9,12.6c1.3,3.3,2.8,5.9,4.7,7.8c1.9,2,4,3.3,6.3,4.1
	c2.3,0.7,4.5,1.1,6.5,1.1c2.3,0,4.6-0.5,6.9-1.4c2.3-0.9,4.6-2.4,7-4.5c2.3-2.1,4.6-4.7,6.9-8c2.3-3.3,4.5-7.3,6.6-12l-0.8-0.5
	c-1.4,3-3,5.9-4.8,8.5c-1.8,2.7-3.7,5-5.8,7.1c-2.1,2-4.3,3.6-6.6,4.8c-2.3,1.2-4.8,1.8-7.3,1.8c-3.8,0-6.7-1.5-8.8-4.5
	c-2.1-3-3.1-7.2-3.1-12.8c0-2.4,0.2-5,0.5-7.8C143.5,93,143.9,90.4,144.4,88 M148.5,73.5c1.7-4.4,3.6-8.4,5.6-11.8
	c2.1-3.4,4.3-6.2,6.6-8.3c2.3-2.1,4.6-3.1,6.9-3.1c1.3,0,2.3,0.3,3.2,0.9c0.9,0.6,1.6,1.4,2.2,2.3c0.6,1,1,2.1,1.3,3.4
	c0.3,1.3,0.4,2.6,0.4,3.9c0,2-0.5,4.4-1.5,7.1c-1,2.7-2.7,5.4-5,8c-2.4,2.6-5.5,5-9.3,7.1c-3.9,2.1-8.6,3.5-14.3,4.1
	C145.5,82.5,146.8,77.9,148.5,73.5"/>
<path fill="#135EAB" d="M36.8,26.9h-8.7l-6.1,24.8H8.7L8,53.9h13.4c-0.2,0.6-0.6,2.1-1.2,4.4c-0.6,2.3-1.3,5.1-2.2,8.3
	c-0.9,3.2-1.8,6.7-2.8,10.5c-1,3.7-1.9,7.3-2.8,10.7c-0.9,3.4-1.7,6.5-2.4,9.2c-0.7,2.7-1.2,4.7-1.4,5.9c-0.2,0.9-0.5,2.2-0.9,3.9
	c-0.4,1.7-0.5,3.5-0.5,5.3c0,2.4,0.3,4.5,0.9,6c0.6,1.6,1.4,2.9,2.4,3.8c1,0.9,2.2,1.6,3.5,1.9c1.3,0.4,2.8,0.5,4.2,0.5
	c2.4,0,4.6-0.6,6.6-1.8c2-1.2,3.8-2.9,5.4-5.1c1.6-2.2,3.1-4.8,4.5-7.8c1.4-3,2.7-6.3,4-9.8l-0.9-0.3c-1.2,3.4-2.4,6.4-3.8,9.2
	c-1.4,2.8-2.8,5.1-4.3,7.1c-1.5,1.9-3.1,3.5-4.7,4.5c-1.6,1.1-3.2,1.6-4.9,1.6c-0.7,0-1.3-0.1-2-0.3c-0.6-0.2-1.2-0.6-1.6-1.1
	c-0.5-0.5-0.8-1.2-1.1-2c-0.3-0.9-0.4-1.9-0.4-3.2c0-0.6,0.1-1.4,0.2-2.4c0.2-1,0.4-2,0.6-3.2c0.3-1.2,0.6-2.4,0.9-3.7
	c0.3-1.3,0.6-2.5,0.9-3.7c0.2-0.9,0.5-2.5,1.1-4.6c0.5-2.1,1.2-4.5,1.9-7.3c0.7-2.8,1.5-5.8,2.3-9.1c0.8-3.3,1.7-6.6,2.6-9.9
	s1.7-6.5,2.5-9.6c0.8-3.1,1.5-5.9,2.1-8.3h17.5l0.7-2.2H30.5L36.8,26.9z"/>
<path fill="#135EAB" d="M116.2,116.2c-2.8,3.9-5.8,5.8-9.1,5.8c-0.6,0-1.3-0.1-1.9-0.2c-0.6-0.2-1.2-0.4-1.7-0.8
	c-0.5-0.4-0.9-0.9-1.2-1.7c-0.3-0.7-0.5-1.6-0.5-2.7c0-0.7,0.1-1.5,0.3-2.6c0.2-1,0.4-2.2,0.7-3.4c0.3-1.2,0.6-2.6,1-4
	c0.4-1.4,0.8-2.8,1.3-4.2l7.7-23.5c0.4-1.1,0.7-2.2,1-3.4c0.3-1.2,0.6-2.3,0.8-3.5c0.2-1.1,0.4-2.2,0.6-3.2c0.1-1,0.2-1.9,0.2-2.7
	c0-2.2-0.3-4.3-0.8-6.4c-0.5-2.1-1.4-3.9-2.6-5.4c-1.2-1.6-2.7-2.8-4.5-3.7c-1.8-0.9-4-1.4-6.5-1.4c-2.2,0-4.3,0.5-6.4,1.6
	c-2.1,1.1-4,2.5-5.9,4.3c-1.9,1.7-3.6,3.7-5.2,6c-1.6,2.2-3.1,4.5-4.4,6.8l-0.3-0.2L97,4.2L70.3,5.9v0.8c0.8,0,1.6,0.1,2.3,0.1
	c0.7,0,1.4,0.1,2.1,0.1c0.7,0,1.4,0.1,2.2,0.2c0.7,0.1,1.6,0.2,2.5,0.3C80.7,7.5,82,8,83,8.7c1,0.7,1.5,1.9,1.5,3.7
	c0,1-0.1,2.4-0.4,4.1c-0.3,1.7-0.8,3.9-1.5,6.6l-27.2,99.7h8.9l13.4-49.7c0.9-2.1,2.1-4.3,3.5-6.7c1.4-2.4,3-4.6,4.9-6.6
	s3.9-3.7,6.1-5c2.2-1.3,4.6-1.9,7.2-1.9c0.9,0,1.8,0.1,2.8,0.2c1,0.2,1.8,0.5,2.7,1.1c0.8,0.5,1.5,1.3,2,2.3c0.5,1,0.8,2.4,0.8,4
	c0,0.8-0.1,1.7-0.3,2.7c-0.2,1-0.4,2.1-0.7,3.3c-0.3,1.2-0.6,2.4-1,3.6c-0.4,1.2-0.7,2.5-1.1,3.7l-8.1,25c-0.9,2.7-1.6,5.1-2.2,7.2
	c-0.6,2.1-0.8,4.1-0.8,6c0,2.4,0.3,4.5,1,6.1c0.7,1.6,1.6,2.9,2.7,3.8c1.1,0.9,2.4,1.6,3.8,2c1.4,0.4,2.8,0.6,4.3,0.6
	c2.4,0,4.6-0.6,6.5-1.8c1.9-1.2,3.6-2.8,5.2-5c1.5-2.1,3-4.7,4.2-7.6c1.3-3,2.5-6.2,3.8-9.8l-1-0.3
	C121.6,106.9,119,112.3,116.2,116.2"/>
<path d="M318.9,14.6c0.9-0.1,1.7-0.2,2.4-0.3l0.1-0.6H296c-0.3,0.9-0.9,2.6-2,5.1c-1.1,2.5-2.5,5.4-4.3,8.7l-43.9,78.1L228,13.7
	h-23.1l-0.3,0.6c0.9,0,1.9,0.2,2.9,0.4c1,0.2,2.1,0.5,3.1,0.9c1,0.4,2,0.9,2.9,1.4c0.9,0.5,1.7,1.2,2.4,2c1.1,1.3,1.8,3,2,5.1
	c0.3,2.1,0.1,4.8-0.7,8l-14.6,62.2c-1.5,6.4-3.1,11.7-4.7,15.6c-1.6,4-3.4,6.6-5.2,8c-0.7,0.5-1.6,1-2.9,1.4
	c-1.2,0.5-2.5,0.9-3.9,1.4c-1.4,0.4-2.7,0.8-3.9,1c-1.3,0.3-2.3,0.4-3,0.5l-0.1,0.6h39.7l0.2-0.6c-0.6-0.1-1.7-0.2-3.1-0.5
	c-1.5-0.3-3-0.7-4.6-1.1c-1.6-0.5-3.1-1-4.5-1.6c-1.4-0.6-2.4-1.2-3-1.9c-0.9-1-1.4-2.6-1.5-4.7c-0.1-2.1-0.1-4.3,0.2-6.7
	c0.2-2.4,0.6-4.7,1.1-6.9c0.5-2.2,0.9-4,1.2-5.3l15.7-68.3l13.9,73.6c0.3,1.9,0.7,3.8,1.1,5.7c0.4,1.9,0.8,3.8,1.2,5.7
	c0.4,1.9,0.7,3.7,1,5.5c0.3,1.8,0.4,3.6,0.5,5.2h0.7l56.2-99.6l-20,91.3c-0.4,1.7-1,3.2-1.9,4.6c-0.9,1.4-2.2,2.5-4,3.2
	c-0.5,0.2-1.2,0.4-2,0.6c-0.9,0.2-1.8,0.3-2.7,0.5c-1,0.2-1.9,0.3-2.8,0.4c-0.9,0.1-1.6,0.1-2.2,0.2l-0.1,0.6h38.4l0.1-0.6
	c-0.7-0.1-1.5-0.2-2.5-0.3c-1-0.2-1.9-0.4-2.9-0.6c-1-0.2-1.9-0.5-2.8-0.7c-0.9-0.3-1.5-0.5-1.9-0.8c-1.4-0.8-2.3-1.8-2.7-3.2
	c-0.3-1.3-0.3-2.8,0.2-4.4l19.5-87.9c0.5-2,1.2-3.6,2-5c0.9-1.4,2.2-2.3,4.1-3c0.6-0.2,1.4-0.4,2.4-0.6c1-0.2,1.9-0.4,3-0.6
	C317,14.9,318,14.7,318.9,14.6"/>
<path d="M560.4,14.8c2.2,0,4.4,0.1,6.6,0.2c2.2,0.1,4,0.3,5.5,0.5c1.5,0.3,2.8,1.1,3.9,2.6c1.1,1.5,2,3.3,2.7,5.5
	c0.7,2.2,1.3,4.6,1.6,7.3c0.4,2.7,0.5,5.3,0.5,7.9h0.7l5.9-25H519l-0.3,0.6c0.6,0.1,1.4,0.2,2.4,0.4c0.9,0.2,1.9,0.4,2.9,0.7
	c1,0.3,2,0.5,2.9,0.9c0.9,0.3,1.6,0.6,2.2,0.9c0.8,0.5,1.4,1,1.8,1.6c0.4,0.6,0.7,1.2,0.8,1.9c0.1,0.7,0.1,1.4,0,2.2
	c-0.1,0.8-0.2,1.6-0.4,2.4l-20.8,87c-0.4,1.8-1.1,3.4-1.9,4.8c-0.9,1.4-2.2,2.4-4,3.2c-0.6,0.3-1.4,0.5-2.5,0.7
	c-1.1,0.2-2.2,0.4-3.4,0.6c-1.2,0.2-2.3,0.3-3.3,0.4c-1.1,0.1-1.8,0.2-2.3,0.2l-0.3,0.6h75.6l8.9-30.7h-0.7
	c-0.4,0.8-0.9,1.8-1.6,3.2c-0.7,1.3-1.5,2.8-2.4,4.4c-0.9,1.6-1.9,3.3-3,5c-1.1,1.8-2.2,3.5-3.3,5.1c-1.1,1.6-2.3,3.2-3.4,4.6
	c-1.1,1.5-2.2,2.7-3.3,3.6c-1,0.9-2.5,1.7-4.4,2.1c-1.9,0.5-4,0.9-6.4,1.1c-2.4,0.2-4.8,0.4-7.4,0.4c-2.6,0-5,0-7.3,0
	c-3.2,0-5.9-0.2-7.9-0.5c-2-0.3-3.5-1-4.5-2c-1-1-1.4-2.5-1.4-4.4c0-1.9,0.4-4.5,1.2-7.7l9.9-40.9h13.5c1.9,0,3.4,0.2,4.7,0.5
	s2.2,0.7,3,1.2c0.8,0.5,1.4,1,1.8,1.6c0.4,0.6,0.7,1.1,1,1.6c0.5,1,0.7,2.4,0.9,3.9c0.1,1.6,0.2,3.2,0.1,4.9
	c-0.1,1.7-0.2,3.3-0.4,4.9c-0.2,1.6-0.4,2.9-0.6,4h0.7l10.8-44.5h-0.8c-1.4,4.1-2.7,7.3-3.9,9.8c-1.2,2.5-2.5,4.3-3.8,5.5
	c-0.5,0.5-1.2,1.1-1.9,1.7c-0.7,0.6-1.6,1.2-2.7,1.7c-1,0.5-2.3,0.9-3.7,1.3c-1.4,0.3-3,0.5-4.8,0.5H532l12.1-50.2H560.4z"/>
<path d="M403,54.1c0-4.3-0.4-8.4-1.3-12.1c-0.9-3.8-2.1-7.2-3.7-10.4c-1.6-3.2-3.4-6-5.6-8.5c-2.2-2.5-4.5-4.7-7.1-6.4
	c-2.5-1.7-5.2-3.1-8-4c-2.8-0.9-5.7-1.4-8.6-1.4c-4.3,0-8.7,0.8-13,2.5c-4.3,1.7-8.4,4-12.3,7c-3.9,3-7.6,6.7-10.9,10.9
	c-3.4,4.3-6.3,9-8.7,14.2c-2.5,5.2-4.4,10.9-5.8,16.9c-1.4,6.1-2.1,12.4-2.1,18.9c0,6.8,1,12.9,3,18.3s4.6,9.9,7.9,13.7
	c3.2,3.7,6.8,6.6,10.9,8.6c4,2,8,3,12.1,3c5.2,0,10.1-0.9,14.7-2.8c4.6-1.9,8.9-4.5,12.9-7.8c4-3.3,7.5-7.3,10.7-11.8
	c3.2-4.5,5.9-9.4,8.1-14.7c2.2-5.3,4-10.8,5.1-16.7C402.4,65.8,403,60,403,54.1 M390.7,68c-0.8,5.8-2,11.5-3.5,16.9
	c-1.6,5.4-3.5,10.5-5.8,15.3c-2.3,4.8-5,8.9-8.1,12.4c-3.1,3.5-6.5,6.3-10.3,8.4c-3.8,2.1-7.9,3.1-12.4,3.1c-4.4,0-8.1-1.1-11.1-3.2
	c-3-2.1-5.4-4.9-7.3-8.4c-1.8-3.5-3.2-7.6-4-12.1c-0.8-4.6-1.2-9.3-1.2-14.3c0-5.5,0.4-11.2,1.1-17c0.8-5.8,1.9-11.4,3.5-16.8
	c1.5-5.4,3.5-10.6,5.7-15.4c2.3-4.8,5-9,8-12.6c3.1-3.6,6.5-6.5,10.4-8.5c3.9-2.1,8.1-3.1,12.7-3.1c4.4,0,8.1,1.1,11.1,3.3
	c3,2.2,5.4,5.1,7.2,8.6c1.8,3.6,3.1,7.6,3.9,12.2s1.2,9.3,1.2,14C391.8,56.4,391.5,62.1,390.7,68"/>
<path d="M672.7,106.6c-1,2.6-2.1,4.9-3.3,6.8c-1.2,1.9-2.5,3.4-3.9,4.6c-1.4,1.1-2.8,1.7-4.3,1.7c-2,0-3.5-0.9-4.4-2.7
	c-0.9-1.8-1.4-4.9-1.4-9.3V89.3c0-3.2-0.3-6-0.8-8.5c-0.6-2.5-1.5-4.7-2.8-6.6c-1.3-1.9-3-3.4-5.2-4.6c-2.2-1.2-4.8-2.1-8-2.7v-0.5
	c5.8-1.1,10.7-2.6,14.8-4.6c4.1-2,7.4-4.3,9.9-7c2.5-2.7,4.4-5.7,5.5-9c1.2-3.3,1.7-6.9,1.7-10.7c0-6.7-2.2-12-6.7-15.8
	c-4.5-3.8-11.4-5.7-20.7-5.7h-36.4l-0.1,0.6c0.5,0.1,1.2,0.2,2,0.4c0.8,0.2,1.7,0.4,2.6,0.7c0.9,0.3,1.8,0.5,2.6,0.9
	c0.8,0.3,1.5,0.6,2,0.8c1.6,1,2.4,2.2,2.6,3.5c0.1,1.3,0,2.9-0.3,4.5l-21.1,87.7c-0.4,1.7-1,3.2-1.9,4.6c-0.9,1.4-2.2,2.5-4,3.2
	c-0.5,0.2-1.2,0.4-2.1,0.6c-0.9,0.2-1.8,0.4-2.9,0.5c-1,0.2-2,0.3-2.9,0.4c-0.9,0.1-1.7,0.1-2.3,0.2l-0.1,0.6h38.5l0.1-0.6
	c-0.7,0-1.5-0.2-2.5-0.4c-1-0.2-1.9-0.4-2.9-0.6s-1.9-0.5-2.7-0.7c-0.8-0.3-1.4-0.5-1.7-0.7c-1.5-0.8-2.4-1.8-2.7-3.2
	c-0.2-1.3-0.2-2.8,0.2-4.5l11-45.1h6.5c4.2,0,7.6,0.3,10.3,0.9c2.6,0.6,4.7,1.8,6.2,3.5c1.5,1.7,2.5,4.1,3,7.3
	c0.5,3.1,0.8,7.2,0.8,12.3v17c0,2.8,0.2,5.3,0.7,7.4c0.4,2.1,1.2,3.8,2.2,5.2c1,1.4,2.3,2.4,3.9,3c1.6,0.7,3.6,1,6,1
	c2.6,0,4.9-0.7,6.8-2c1.9-1.3,3.6-3.2,5-5.5c1.5-2.3,2.7-5.1,3.9-8.3c1.1-3.2,2.2-6.6,3.1-10.3l-0.9-0.3
	C674.6,101.2,673.8,104,672.7,106.6 M628.4,65.8h-10.2L630.6,15h10.8c6,0,10.5,1.9,13.4,5.7c3,3.8,4.4,9.2,4.4,16.1
	c0,4.9-0.8,9.2-2.4,12.8c-1.6,3.6-3.7,6.6-6.5,9c-2.8,2.4-6,4.2-9.8,5.3C636.9,65.2,632.8,65.8,628.4,65.8"/>
<path d="M761.6,13.7l-0.1,0.6c0.8,0.1,1.8,0.2,3,0.5s2.5,0.7,3.7,1.2c1.3,0.5,2.5,1,3.6,1.5c1.1,0.5,2,1.1,2.6,1.6
	c0.7,0.6,1.2,1.5,1.5,2.6c0.3,1.1,0.5,2.3,0.5,3.7c0,1.4,0,2.8-0.2,4.3c-0.2,1.5-0.4,3-0.6,4.3s-0.5,2.7-0.8,3.8
	c-0.3,1.2-0.5,2.1-0.7,2.8l-14.7,64.7l-35.1-91.7h-24.9l-0.3,0.6c7.1,0.4,11.9,2,14.5,5c0.8,1,1.5,2.1,1.8,3.4
	c0.4,1.2,0.6,2.5,0.6,3.8c0,1.3,0,2.6-0.2,3.9c-0.2,1.3-0.4,2.6-0.7,3.7L700.8,96c-1.4,6.3-2.9,11.2-4.5,14.7
	c-1.6,3.5-3.3,5.9-5.2,7.2c-0.6,0.5-1.6,0.9-2.8,1.4c-1.2,0.5-2.5,0.9-3.9,1.4c-1.4,0.4-2.7,0.8-4,1c-1.3,0.3-2.3,0.4-3.1,0.5
	l-0.1,0.6h38l0.1-0.6c-0.6,0-1.6-0.2-2.8-0.5c-1.3-0.3-2.6-0.7-3.9-1.1c-1.3-0.5-2.6-1-3.8-1.6c-1.2-0.6-2-1.2-2.6-1.9
	c-0.9-1.1-1.5-2.6-1.7-4.6c-0.2-2-0.2-4.1,0.1-6.2c0.2-2.2,0.6-4.2,1-6.2c0.4-2,0.8-3.6,1-4.7l15.6-69l37.6,97.7h0.7l19.4-84.2
	c0.6-2.5,1.2-4.9,1.8-7.1c0.6-2.2,1.3-4.3,2.1-6.2c0.7-1.9,1.6-3.5,2.5-4.9c0.9-1.4,2-2.5,3.1-3.2c0.7-0.5,1.7-0.9,3-1.4
	c1.3-0.5,2.6-0.9,4-1.3c1.4-0.4,2.7-0.7,3.9-0.9c1.2-0.2,2.2-0.4,2.8-0.4l0.1-0.6H761.6z"/>
<path d="M499.7,56c0-7.9-1.1-14.5-3.2-19.9c-2.1-5.4-4.9-9.8-8.3-13.1c-3.5-3.3-7.4-5.7-11.9-7.2c-4.5-1.5-9.1-2.2-13.8-2.2h-38.9
	l-0.3,0.6c0.5,0.1,1.2,0.2,2,0.4c0.8,0.2,1.7,0.4,2.7,0.7c0.9,0.3,1.8,0.5,2.7,0.9c0.8,0.3,1.5,0.6,2,0.8c1.6,1,2.4,2.2,2.6,3.5
	c0.1,1.4,0,2.9-0.3,4.5l-21.1,87.7c-0.5,2-1.1,3.6-2,4.8c-0.8,1.2-2.1,2.2-4,3c-0.5,0.2-1.2,0.4-2.1,0.6c-0.9,0.2-1.8,0.4-2.9,0.5
	c-1,0.2-2,0.3-2.9,0.3c-0.9,0.1-1.7,0.1-2.3,0.2l-0.1,0.6h38.9c5.7,0,11.3-0.7,16.6-2c5.4-1.3,10.4-3.3,15.1-6
	c4.7-2.6,9-5.8,12.8-9.7c3.8-3.8,7.2-8.2,9.9-13.2c2.8-5,4.9-10.5,6.5-16.5C498.9,69.5,499.7,63,499.7,56 M486.7,75
	c-1.2,5.6-2.9,10.7-5.1,15.5c-2.2,4.8-4.9,9.1-8,12.9c-3.1,3.8-6.6,7.1-10.4,9.9c-3.8,2.7-7.9,4.8-12.2,6.3s-8.9,2.2-13.6,2.2
	c-2.9,0-5.2-0.2-7.1-0.6c-1.9-0.4-3.3-1.1-4.3-2.1c-1-1-1.6-2.3-1.7-3.8c-0.2-1.6,0-3.5,0.6-5.8l22.7-94.2c0.8,0,1.7-0.1,3-0.1
	c1.2,0,2.4-0.1,3.6-0.1c1.2,0,2.2,0,3-0.1c0.8,0,1.3,0,1.3,0c4.8,0,9.1,0.8,12.9,2.5c3.7,1.7,6.9,4.3,9.4,7.8
	c2.6,3.5,4.5,7.9,5.8,13.3c1.3,5.4,2,11.7,2,19C488.5,63.6,487.9,69.4,486.7,75"/>
</svg>
