<svg height='100px' width='100px'  fill="#3b4aff" xmlns:dc="http://purl.org/dc/elements/1.1/" xmlns:cc="http://creativecommons.org/ns#" xmlns:rdf="http://www.w3.org/1999/02/22-rdf-syntax-ns#" xmlns:svg="http://www.w3.org/2000/svg" xmlns="http://www.w3.org/2000/svg" xmlns:sodipodi="http://sodipodi.sourceforge.net/DTD/sodipodi-0.dtd" xmlns:inkscape="http://www.inkscape.org/namespaces/inkscape" version="1.1" viewBox="0 0 32 32" x="0px" y="0px"><g transform="translate(0,-1020.3622)"><path style="color:#000000;font-style:normal;font-variant:normal;font-weight:normal;font-stretch:normal;font-size:medium;line-height:normal;font-family:sans-serif;text-indent:0;text-align:start;text-decoration:none;text-decoration-line:none;text-decoration-style:solid;text-decoration-color:#000000;letter-spacing:normal;word-spacing:normal;text-transform:none;direction:ltr;block-progression:tb;writing-mode:lr-tb;baseline-shift:baseline;text-anchor:start;white-space:normal;clip-rule:nonzero;display:inline;overflow:visible;visibility:visible;opacity:1;isolation:auto;mix-blend-mode:normal;color-interpolation:sRGB;color-interpolation-filters:linearRGB;solid-color:#000000;solid-opacity:1;fill:#3b4aff;fill-opacity:1;fill-rule:nonzero;stroke:none;stroke-width:1;stroke-linecap:round;stroke-linejoin:round;stroke-miterlimit:4;stroke-dasharray:none;stroke-dashoffset:0;stroke-opacity:1;color-rendering:auto;image-rendering:auto;shape-rendering:auto;text-rendering:auto;enable-background:accumulate" d="m 5,1024.3622 c -1.65336,0 -3,1.3467 -3,3 l 0,11 c 0,1.6534 1.34664,3 3,3 l 1.62305,0 2.98635,3.75 c 0.2002,0.2504 0.581,0.2504 0.7812,0 l 1.3926,-1.75 6.8398,0 2.9864,3.75 c 0.2002,0.2504 0.581,0.2504 0.7812,0 l 2.9844,-3.75 1.625,0 c 1.6534,0 3,-1.3466 3,-3 l 0,-11 c 0,-1.6534 -1.3466,-3 -3,-3 l -1.1836,0 c -0.4141,-1.1617 -1.5148,-2 -2.8164,-2 z m 5,19.6367 -2.74414,-3.4492 c -0.095,-0.1186 -0.2387,-0.1876 -0.39063,-0.1875 l -1.86523,0 c -1.11666,0 -2,-0.8833 -2,-2 l 0,-11 c 0,-1.1167 0.88334,-2 2,-2 l 18,0 c 1.1166,0 2,0.8834 2,2 l 0,11 c 0,1.1167 -0.8834,2 -2,2 l -9.8652,0 c -0.152,-10e-5 -0.2957,0.069 -0.3907,0.1875 z m 16,-16.6367 1,0 c 1.1166,0 2,0.8834 2,2 l 0,11 c 0,1.1167 -0.8834,2 -2,2 l -1.8652,0 c -0.152,-10e-5 -0.2957,0.069 -0.3907,0.1875 l -2.7441,3.4492 -2.7441,-3.4492 c -0.095,-0.1186 -0.2387,-0.1876 -0.3907,-0.1875 l -6.2851,0 0.7949,-1 9.625,0 c 1.6534,0 3,-1.3466 3,-3 z m -19.54297,2 c -0.66667,0.034 -0.61589,1.0339 0.0508,1 l 6.55667,0 c 0.6762,0.01 0.6762,-1.0096 0,-1 l -6.55667,0 c -0.0169,-9e-4 -0.0339,-9e-4 -0.0508,0 z m 0,2 c -0.66667,0.034 -0.61589,1.0339 0.0508,1 l 13.11327,0 c 0.6762,0.01 0.6762,-1.0096 0,-1 l -13.11327,0 c -0.0169,-9e-4 -0.0339,-9e-4 -0.0508,0 z m 0,2 c -0.66667,0.034 -0.61589,1.0339 0.0508,1 l 10.30267,0 c 0.6762,0.01 0.6762,-1.0096 0,-1 l -10.30267,0 c -0.0169,-9e-4 -0.0339,-9e-4 -0.0508,0 z m 0,2 c -0.66667,0.034 -0.61589,1.0339 0.0508,1 l 8.78907,0 c 0.6762,0.01 0.6762,-1.0096 0,-1 l -8.78907,0 c -0.0169,-9e-4 -0.0339,-9e-4 -0.0508,0 z m 10.99997,0 c -0.6667,0.034 -0.6159,1.0339 0.051,1 l 1.6426,0 c 0.6762,0.01 0.6762,-1.0096 0,-1 l -1.6426,0 c -0.017,-9e-4 -0.034,-9e-4 -0.051,0 z"></path></g><style type="text/css">
	.st0{fill:#3b4aff;}
</style></svg>