<svg height='100px' width='100px'  fill="#3b4aff" xmlns="http://www.w3.org/2000/svg" xmlns:xlink="http://www.w3.org/1999/xlink" version="1.1" x="0px" y="0px" viewBox="0 0 64 64" style="enable-background:new 0 0 64 64;" xml:space="preserve"><g><path d="M63,31H52.202l5.615-8.422C59.245,20.436,60,17.942,60,15.367V15c0-2.714-0.838-5.234-2.266-7.32l4.973-4.973l-1.414-1.414   l-4.826,4.826C54.094,3.591,50.733,2,47,2c-7.168,0-13,5.832-13,13v0.367c0,2.575,0.755,5.069,2.184,7.211L41.798,31H25v-9.877   c0-2.299-1.558-4.293-3.788-4.851L17,15.219v-1.76c1.224-1.099,2-2.688,2-4.46V7c0-3.309-2.691-6-6-6S7,3.691,7,7v2   c0,1.771,0.776,3.36,2,4.46v1.76l-4.212,1.053C2.558,16.83,1,18.824,1,21.123V41h5v22h54V37h3V31z M36,15.367V15   c0-6.065,4.935-11,11-11c3.182,0,6.043,1.366,8.054,3.532L53.64,8.946C51.993,7.141,49.63,6,47,6c-2.012,0-3.918,0.656-5.514,1.896   l1.227,1.579C43.955,8.51,45.438,8,47,8c2.079,0,3.943,0.916,5.226,2.36L47,15.586l-2.293-2.293l-1.414,1.414L47,18.414   l6.347-6.347C53.762,12.96,54,13.952,54,15c0,1.562-0.51,3.044-1.476,4.286l1.58,1.228C55.345,18.917,56,17.011,56,15   c0-1.606-0.428-3.111-1.168-4.418l1.454-1.454C57.365,10.83,58,12.84,58,15v0.367c0,2.179-0.639,4.289-1.848,6.102L47,35.197   l-9.152-13.729C36.639,19.656,36,17.546,36,15.367z M43.132,33l1.333,2H25v-2H43.132z M9,7c0-2.206,1.794-4,4-4s4,1.794,4,4v2   c0,2.206-1.794,4-4,4s-4-1.794-4-4V7z M13,15c0.702,0,1.373-0.128,2-0.35v0.936l-2,2l-2-2V14.65C11.627,14.872,12.298,15,13,15z    M3,39V21.123c0-1.379,0.935-2.576,2.272-2.91l4.421-1.105L13,20.414l3.307-3.307l4.421,1.105C22.065,18.547,23,19.744,23,21.123   V39h-3V22h-2v11H8V22H6v17H3z M18,35v26h-4V35H18z M8,35h4v26H8V35z M42,45h-6v-2h6V45z M49,47c0.552,0,1,0.449,1,1v2H28v-2   c0-0.551,0.448-1,1-1H49z M37,52h4v1h-4V52z M28,52h7v3h8v-3h7v9H28V52z M58,61h-6V48c0-1.654-1.346-3-3-3h-5v-2   c0-1.103-0.897-2-2-2h-6c-1.103,0-2,0.897-2,2v2h-5c-1.654,0-3,1.346-3,3v13h-6V41h5v-4h20.798L47,38.803L48.202,37H58V61z M61,35   H49.535l1.333-2H61V35z"></path><path d="M52.515,22.104l-1.229-1.579C50.045,21.49,48.562,22,47,22c-3.859,0-7-3.14-7-7c0-1.562,0.51-3.045,1.476-4.287   l-1.58-1.227C38.655,11.083,38,12.989,38,15c0,4.962,4.037,9,9,9C49.012,24,50.919,23.344,52.515,22.104z"></path></g></svg>