<?xml version="1.0" encoding="UTF-8"?>
<!-- Generator: Adobe Illustrator 22.0.1, SVG Export Plug-In . SVG Version: 6.00 Build 0)  -->

<svg
   xmlns="http://www.w3.org/2000/svg"
   xmlns:xlink="http://www.w3.org/1999/xlink"
   version="1.1"
   id="Layer_1"
   x="0px"
   y="0px"
   viewBox="0 0 22.646 22.646"
   enable-background="new 0 0 28 28"
   xml:space="preserve">
<path
     stroke-miterlimit="10"
     d="m 11.323,22.323 c 6.1,0 11,-4.9 11,-11 0,-6.1 -4.9,-10.99999999 -11,-10.99999999 -6.1,0 -10.99999999,4.89999999 -10.99999999,10.99999999 0,6.1 4.89999999,11 10.99999999,11"
     id="path3"
     style="fill:none;stroke:#000000;stroke-width:0.64600003;stroke-miterlimit:10" /><g
     id="g5"
     transform="translate(-2.677,-4.977)"><path
       d="m 14,11.1 c -1.4,0 -1.6,0 -2.2,0 -0.6,0 -1,0.1 -1.3,0.2 -0.3,0.1 -0.6,0.3 -0.9,0.6 -0.3,0.3 -0.5,0.6 -0.6,0.9 -0.1,0.3 -0.2,0.7 -0.2,1.3 0,0.6 0,0.8 0,2.2 0,1.4 0,1.6 0,2.2 0,0.6 0.1,1 0.2,1.3 0.1,0.3 0.3,0.6 0.6,0.9 0.3,0.3 0.6,0.5 0.9,0.6 0.3,0.1 0.7,0.2 1.3,0.2 0.6,0 0.8,0 2.2,0 1.4,0 1.6,0 2.2,0 0.6,0 1,-0.1 1.3,-0.2 0.3,-0.1 0.6,-0.3 0.9,-0.6 0.3,-0.3 0.5,-0.6 0.6,-0.9 0.1,-0.3 0.2,-0.7 0.2,-1.3 0,-0.6 0,-0.8 0,-2.2 0,-1.4 0,-1.6 0,-2.2 0,-0.6 -0.1,-1 -0.2,-1.3 -0.1,-0.3 -0.3,-0.6 -0.6,-0.9 -0.3,-0.3 -0.6,-0.5 -0.9,-0.6 -0.3,-0.1 -0.7,-0.2 -1.3,-0.2 -0.6,0 -0.8,0 -2.2,0 m 0,0.9 c 1.4,0 1.6,0 2.2,0 0.5,0 0.8,0.1 1,0.2 0.2,0.1 0.4,0.2 0.6,0.4 0.2,0.2 0.3,0.4 0.4,0.6 0.1,0.2 0.2,0.5 0.2,1 0,0.6 0,0.7 0,2.2 0,1.5 0,1.6 0,2.2 0,0.5 -0.1,0.8 -0.2,1 -0.1,0.2 -0.2,0.4 -0.4,0.6 -0.2,0.2 -0.4,0.3 -0.6,0.4 -0.2,0.1 -0.5,0.2 -1,0.2 -0.6,0 -0.7,0 -2.2,0 -1.4,0 -1.6,0 -2.2,0 -0.5,0 -0.8,-0.1 -1,-0.2 C 10.6,20.5 10.4,20.4 10.2,20.2 10,20 9.9,19.8 9.8,19.6 9.7,19.4 9.6,19.1 9.6,18.6 c 0,-0.6 0,-0.7 0,-2.2 0,-1.5 0,-1.6 0,-2.2 0,-0.5 0.1,-0.8 0.2,-1 0.1,-0.2 0.2,-0.4 0.4,-0.6 0.2,-0.2 0.4,-0.3 0.6,-0.4 0.2,-0.1 0.5,-0.2 1,-0.2 0.6,0.1 0.8,0 2.2,0"
       id="path7" /><path
       d="m 14,18.2 c -1,0 -1.8,-0.8 -1.8,-1.8 0,-1 0.8,-1.8 1.8,-1.8 1,0 1.8,0.8 1.8,1.8 0,1 -0.8,1.8 -1.8,1.8 m 0,-4.5 c -1.5,0 -2.7,1.2 -2.7,2.7 0,1.5 1.2,2.7 2.7,2.7 1.5,0 2.7,-1.2 2.7,-2.7 0,-1.5 -1.2,-2.7 -2.7,-2.7"
       id="path9" /><path
       d="m 17.5,13.6 c 0,0.4 -0.3,0.6 -0.6,0.6 -0.4,0 -0.6,-0.3 -0.6,-0.6 0,-0.4 0.3,-0.6 0.6,-0.6 0.3,-0.1 0.6,0.2 0.6,0.6"
       id="path11" /></g></svg>
