<?xml version="1.0" encoding="UTF-8"?>
<!-- Generator: Adobe Illustrator 22.0.1, SVG Export Plug-In . SVG Version: 6.00 Build 0)  -->

<svg
   xmlns="http://www.w3.org/2000/svg"
   xmlns:xlink="http://www.w3.org/1999/xlink"
   version="1.1"
   id="Layer_1"
   x="0px"
   y="0px"
   viewBox="0 0 11.56875 13.726013"
   enable-background="new 0 0 12.6 28"
   xml:space="preserve">
   <g
     id="g3"
     transform="translate(-0.43125019,-13.9)"><path
       d="M 11,26 C 10.8,25.8 10.7,25.5 10.5,25.3 10.1,24.7 9.6,24.2 9.2,23.6 9.2,23.5 9.1,23.5 9,23.5 c -1,0 -2,0 -3,0 -0.6,0 -1.2,-0.4 -1.3,-1 0,-0.1 -0.1,-0.3 -0.1,-0.4 0,-1.1 0,-2.3 0,-3.4 0,-0.6 0.3,-1 0.8,-1.2 0.5,-0.2 1,-0.2 1.4,0.2 0.4,0.3 0.5,0.7 0.5,1.1 0,1.1 0,2.2 0,3.3 v 0.1 h 0.1 c 0.7,0 1.4,0 2.2,0 0.1,0 0.1,0 0.2,0.1 0.7,1 1.5,1.9 2.2,2.9 0,0 0,0 0,0 -0.3,0.3 -0.7,0.5 -1,0.8"
       id="path5" /><path
       d="M 8.7,24.2 C 8.6,24.4 8.6,24.7 8.5,24.9 8.1,26 7.4,26.7 6.4,27.2 5.7,27.5 4.9,27.7 4.1,27.6 2.7,27.4 1.6,26.6 0.9,25.4 0.4,24.4 0.3,23.4 0.6,22.3 1,21.5 1.4,20.9 2,20.4 c 0.6,-0.5 1.2,-0.8 1.9,-1 0,0 0,0 0.1,0 0,0 0,0.1 0,0.1 0,0.4 0,0.8 0,1.2 0,0.1 0,0.1 -0.1,0.1 -1,0.3 -1.6,1 -1.9,2 -0.3,1.2 0.3,2.5 1.5,3.1 1.4,0.7 3.1,0.1 3.7,-1.3 0.1,-0.1 0.1,-0.3 0.1,-0.4 0,0 0,-0.1 0.1,-0.1 0.4,0.1 0.8,0.1 1.3,0.1 0,0 0,0 0,0"
       id="path7" /><path
       d="m 6,13.9 c 0.8,0 1.4,0.6 1.4,1.4 0,0.7 -0.6,1.4 -1.4,1.4 -0.8,0 -1.4,-0.6 -1.4,-1.4 0,-0.8 0.7,-1.4 1.4,-1.4"
       id="path9" /></g></svg>
