<?xml version="1.0" encoding="UTF-8"?>
<!-- Generator: Adobe Illustrator 22.0.1, SVG Export Plug-In . SVG Version: 6.00 Build 0)  -->

<svg
   xmlns="http://www.w3.org/2000/svg"
   xmlns:xlink="http://www.w3.org/1999/xlink"
   version="1.1"
   id="Layer_1"
   x="0px"
   y="0px"
   viewBox="0 0 22.646 22.646"
   enable-background="new 0 0 28 28"
   xml:space="preserve">
<g
     id="g3"
     transform="translate(-2.677,-4.977)"><path
       stroke-miterlimit="10"
       d="m 14,27.3 c 6.1,0 11,-4.9 11,-11 0,-6.1 -4.9,-11 -11,-11 -6.1,0 -11,4.9 -11,11 0,6.1 4.9,11 11,11"
       id="path5"
       style="fill:none;stroke:#000000;stroke-width:0.64600003;stroke-miterlimit:10" /></g><path
     d="m 17.223,8.423 c -0.4,0.2 -0.8,0.3 -1.3,0.4 0.5,-0.3 0.8,-0.7 1,-1.2 -0.4,0.3 -0.9,0.4 -1.4,0.5 -0.4,-0.4 -1,-0.7 -1.6,-0.7 -1.2,0 -2.3,1 -2.3,2.3 0,0.2 0,0.3 0.1,0.5 -1.9,-0.1 -3.5,-1 -4.7,-2.4 -0.2,0.3 -0.3,0.7 -0.3,1.1 0,0.8 0.4,1.5 1,1.9 -0.4,0 -0.7,-0.1 -1,-0.3 v 0 c 0,1.1 0.8,2 1.8,2.2 -0.2,0.1 -0.4,0.1 -0.6,0.1 -0.1,0 -0.3,0 -0.4,0 0.3,0.9 1.1,1.6 2.1,1.6 -0.8,0.6 -1.7,1 -2.8,1 -0.2,0 -0.4,0 -0.5,0 1,0.6 2.2,1 3.5,1 4.2,0 6.4,-3.4 6.4,-6.4 0,-0.1 0,-0.2 0,-0.3 0.3,-0.5 0.7,-0.9 1,-1.3"
     id="path7" /></svg>
