<?xml version="1.0" encoding="UTF-8"?>
<!-- Generator: Adobe Illustrator 22.0.1, SVG Export Plug-In . SVG Version: 6.00 Build 0)  -->

<svg
   xmlns="http://www.w3.org/2000/svg"
   xmlns:xlink="http://www.w3.org/1999/xlink"
   version="1.1"
   id="Layer_1"
   x="0px"
   y="0px"
   viewBox="0 0 14.1 14.1"
   enable-background="new 0 0 15.4 28"
   xml:space="preserve">
   <g
     id="g3"
     transform="translate(-0.6,-13.6)"><g
       id="g5"><path
         d="m 2.9,18.2 4.5,-2.7 4.8,2.8 v 4.6 H 2.9 V 18.2 z M 0.6,17.6 v 1.5 h 0.8 l 0,0 v 5.2 H 13.8 V 19 l 0.1,0 h 0.8 v -1.5 l -7.2,-3.9 -6.9,4 z"
         id="path7" /></g><path
       d="M 3.6,25.9 3.5,25.8 c 0.1,-0.1 0.1,-0.2 0.1,-0.4 0,-0.5 -0.4,-0.6 -0.5,-0.6 -0.1,0 -0.5,0.1 -0.5,0.6 0,0.5 0.4,0.6 0.5,0.6 0.1,0 0.2,0 0.3,-0.1 L 3.5,26 3.6,25.9 z m -0.5,-0.3 0.1,0.1 c 0,0 -0.1,0 -0.1,0 C 3,25.7 2.8,25.6 2.8,25.3 2.8,25 2.9,25 3.1,25 c 0.1,0 0.3,0.1 0.3,0.4 0,0.1 0,0.2 -0.1,0.2 L 3.2,25.5 3.1,25.6 z"
       id="path9" /><path
       d="M 4.6,24.8 H 4.4 v 0.7 c 0,0.1 -0.1,0.2 -0.2,0.2 C 4.1,25.7 4,25.6 4,25.5 V 24.8 H 3.7 v 0.7 c 0,0.1 0,0.2 0.1,0.3 0.1,0.1 0.2,0.2 0.3,0.2 0.3,0 0.4,-0.1 0.4,-0.4 v -0.8 z"
       id="path11" /><path
       d="m 8.1,25.4 c 0,0.5 0.4,0.6 0.5,0.6 0.1,0 0.5,-0.1 0.5,-0.6 0,-0.5 -0.4,-0.6 -0.5,-0.6 -0.1,0 -0.5,0.1 -0.5,0.6 m 0.2,0 c 0,-0.3 0.2,-0.4 0.3,-0.4 0.1,0 0.3,0.1 0.3,0.4 0,0.3 -0.2,0.4 -0.3,0.4 -0.1,0 -0.3,-0.1 -0.3,-0.4"
       id="path13" /><path
       d="M 10.1,24.8 H 9.9 v 0.7 c 0,0.1 -0.1,0.2 -0.2,0.2 -0.1,0 -0.2,-0.1 -0.2,-0.2 V 24.8 H 9.3 v 0.7 c 0,0.1 0,0.2 0.1,0.3 0.1,0.1 0.2,0.2 0.3,0.2 0.3,0 0.4,-0.1 0.4,-0.4 v -0.8 z"
       id="path15" /><path
       d="m 10.5,25.6 c 0,0.1 0,0.2 0.2,0.2 0.1,0 0.2,0 0.2,-0.1 0,-0.1 -0.1,-0.1 -0.2,-0.1 l -0.1,0 c -0.2,0 -0.3,-0.1 -0.3,-0.3 0,-0.1 0.1,-0.3 0.4,-0.3 0.3,0 0.4,0.2 0.4,0.4 h -0.2 c 0,0 0,-0.2 -0.2,-0.2 -0.1,0 -0.2,0 -0.2,0.1 0,0.1 0.1,0.1 0.1,0.1 l 0.3,0.1 c 0.1,0 0.3,0.1 0.3,0.3 0,0.3 -0.3,0.4 -0.4,0.4 -0.4,0 -0.5,-0.2 -0.5,-0.4 h 0.2 z"
       id="path17" /><polygon
       points="2.4,25.7 1.8,25.7 1.8,25.4 2.4,25.4 2.4,25.3 1.8,25.3 1.8,25 2.4,25 2.4,24.8 1.6,24.8 1.6,25.9 2.4,25.9 "
       id="polygon19" /><path
       d="m 5,25.7 h 0.4 l 0.1,0.2 H 5.7 L 5.3,24.8 H 5.1 L 4.7,25.9 H 4.9 L 5,25.7 z m 0.2,-0.6 0,0 0.1,0.4 H 5.1 l 0.1,-0.4 z"
       id="path21" /><polygon
       points="6.6,25.7 6.1,25.7 6.1,24.8 5.8,24.8 5.8,25.9 6.6,25.9 "
       id="polygon23" /><polygon
       points="7.3,24.8 7.1,24.8 7.1,25.9 7.3,25.9 7.3,25.4 7.7,25.4 7.7,25.9 8,25.9 8,24.8 7.7,24.8 7.7,25.2 7.3,25.2 "
       id="polygon25" /><rect
       x="11.3"
       y="24.799999"
       width="0.2"
       height="1.1"
       id="rect27" /><polygon
       points="11.9,24.8 11.7,24.8 11.7,25.9 11.9,25.9 11.9,25.1 11.9,25.1 12.3,25.9 12.6,25.9 12.6,24.8 12.3,24.8 12.3,25.6 12.3,25.6 "
       id="polygon29" /><polygon
       points="8,27.6 8.3,27.6 8.3,26.7 8.7,26.7 8.7,26.6 7.7,26.6 7.7,26.7 8,26.7 "
       id="polygon31" /><polygon
       points="10.3,26.6 10,26.6 10,27.6 10.3,27.6 10.3,26.9 10.3,26.9 10.8,27.6 11,27.6 11,26.6 10.8,26.6 10.8,27.3 10.8,27.3 "
       id="polygon33" /><rect
       x="11.2"
       y="26.6"
       width="0.30000001"
       height="1.1"
       id="rect35" /><polygon
       points="12,27.6 12.2,27.6 12.2,26.7 12.6,26.7 12.6,26.6 11.6,26.6 11.6,26.7 12,26.7 "
       id="polygon37" /><polygon
       points="12.6,26.6 13.1,27.2 13.1,27.6 13.3,27.6 13.3,27.2 13.7,26.6 13.4,26.6 13.2,27 12.9,26.6 "
       id="polygon39" /><path
       d="m 9.8,27.2 c 0,0.3 -0.2,0.4 -0.5,0.4 -0.1,0 -0.3,0 -0.4,-0.1 C 8.8,27.4 8.8,27.3 8.8,27.2 v -0.7 h 0.3 v 0.7 c 0,0.1 0.1,0.2 0.2,0.2 0.2,0 0.2,-0.1 0.2,-0.2 v -0.7 h 0.3 v 0.7 z"
       id="path41" /><path
       d="m 2.2,27.5 c 0.1,0 0.3,-0.1 0.3,-0.4 0,-0.3 -0.2,-0.4 -0.3,-0.4 -0.1,0 -0.3,0.1 -0.3,0.4 0,0.3 0.2,0.4 0.3,0.4 m 0,-1 c 0.2,0 0.6,0.1 0.6,0.6 0,0.5 -0.4,0.6 -0.6,0.6 -0.2,0 -0.6,-0.1 -0.6,-0.6 0,-0.5 0.4,-0.6 0.6,-0.6"
       id="path43" /><path
       d="m 3.5,27 c 0.2,0 0.2,-0.1 0.2,-0.2 0,-0.1 -0.1,-0.1 -0.2,-0.1 H 3.2 V 27 H 3.5 z M 3.2,27.6 H 3 v -1.1 h 0.6 c 0.2,0 0.4,0.1 0.4,0.3 0,0.1 -0.1,0.3 -0.4,0.3 H 3.2 v 0.5 z"
       id="path45" /><path
       d="m 4.6,27 c 0.2,0 0.2,-0.1 0.2,-0.2 0,-0.1 -0.1,-0.1 -0.2,-0.1 H 4.4 V 27 H 4.6 z M 4.4,27.6 H 4.1 v -1.1 h 0.6 c 0.2,0 0.4,0.1 0.4,0.3 C 5,27 5,27.2 4.7,27.2 H 4.4 v 0.4 z"
       id="path47" /><path
       d="m 5.8,27.5 c 0.1,0 0.3,-0.1 0.3,-0.4 0,-0.3 -0.2,-0.4 -0.3,-0.4 -0.1,0 -0.3,0.1 -0.3,0.4 0,0.3 0.1,0.4 0.3,0.4 m 0,-1 c 0.2,0 0.6,0.1 0.6,0.6 0,0.5 -0.4,0.6 -0.6,0.6 -0.2,0 -0.6,-0.1 -0.6,-0.6 0,-0.5 0.4,-0.6 0.6,-0.6"
       id="path49" /><path
       d="m 7.1,27 c 0.1,0 0.2,0 0.2,-0.1 0,-0.1 0,-0.1 -0.2,-0.1 H 6.8 V 27 H 7.1 z M 6.6,26.6 h 0.6 c 0.3,0 0.4,0.2 0.4,0.3 0,0.1 -0.1,0.2 -0.2,0.3 0.1,0 0.2,0.1 0.2,0.3 0,0.2 0,0.2 0.1,0.2 v 0 H 7.3 c 0,-0.1 0,-0.1 0,-0.2 0,-0.1 0,-0.2 -0.2,-0.2 H 6.8 v 0.4 H 6.6 v -1.1 z"
       id="path51" /><path
       d="m 13.2,25.3 h 0.5 v 0.6 h -0.2 l 0,-0.1 c -0.1,0.1 -0.1,0.2 -0.3,0.2 -0.3,0 -0.5,-0.2 -0.5,-0.6 0,-0.3 0.2,-0.6 0.5,-0.6 0.3,0 0.5,0.2 0.5,0.4 h -0.2 c 0,0 -0.1,-0.2 -0.2,-0.2 -0.2,0 -0.3,0.1 -0.3,0.4 0,0.3 0.2,0.4 0.3,0.4 0,0 0.2,0 0.3,-0.2 h -0.3 v -0.3 z"
       id="path53" /><rect
       x="5.3000002"
       y="18"
       width="4.5"
       height="1.4"
       id="rect55" /><rect
       x="5.3000002"
       y="20"
       width="4.5"
       height="1.4"
       id="rect57" /></g></svg>
