<?xml version="1.0" encoding="utf-8"?>
<!-- Generator: Adobe Illustrator 22.0.1, SVG Export Plug-In . SVG Version: 6.00 Build 0)  -->

<svg
   xmlns="http://www.w3.org/2000/svg"
   xmlns:xlink="http://www.w3.org/1999/xlink"
   version="1.1"
   id="Layer_1"
   x="0px"
   y="0px"
   viewBox="0 0 22.646 22.646"
   enable-background="new 0 0 28 28"
   xml:space="preserve">
   <g
     id="g3"
     transform="translate(-2.677,-4.977)"><path
       stroke-miterlimit="10"
       d="m 14,27.3 c 6.1,0 11,-4.9 11,-11 0,-6.1 -4.9,-11 -11,-11 -6.1,0 -11,4.9 -11,11 0,6.1 4.9,11 11,11"
       id="path5" 
       style="fill:none;stroke:#000000;stroke-width:0.64600003;stroke-miterlimit:10" /></g><g
     id="g7"
     transform="translate(-2.677,-4.977)"><path
       d="m 10.1,15.8 2.6,1.3 c 0.5,0.2 0.4,1 -0.1,1.1 L 9.7,19 C 9.4,19 9,18.8 9,18.4 8.9,17.6 9,16.9 9.2,16.1 9.3,15.8 9.7,15.7 10.1,15.8"
       id="path9" /><path
       d="m 11.1,21.3 2,-2.2 c 0.4,-0.4 1.1,-0.1 1.1,0.4 L 14,22.4 C 14,22.8 13.7,23 13.3,23 12.5,22.9 11.8,22.6 11.2,22.2 10.9,22 10.9,21.5 11.1,21.3"
       id="path11" /><path
       d="m 15.8,18.4 2.8,0.9 c 0.3,0.1 0.5,0.5 0.4,0.8 -0.3,0.7 -0.8,1.3 -1.4,1.8 -0.3,0.2 -0.7,0.2 -0.9,-0.1 l -1.6,-2.5 c -0.3,-0.5 0.1,-1.1 0.7,-0.9"
       id="path13" /><path
       d="m 18.6,16.6 -2.8,0.8 c -0.5,0.2 -1,-0.5 -0.7,-0.9 l 1.6,-2.4 c 0.2,-0.3 0.6,-0.4 0.9,-0.1 0.6,0.5 1,1.1 1.3,1.8 0.2,0.3 0.1,0.7 -0.3,0.8"
       id="path15" /><path
       d="m 12,9.8 c -0.5,0.1 -1,0.3 -1.4,0.5 -0.3,0.2 -0.4,0.5 -0.3,0.8 l 2.8,4.8 c 0.3,0.5 1.1,0.3 1.1,-0.3 v -5.5 c 0,-0.4 -0.3,-0.6 -0.7,-0.6 -0.5,0 -1,0.1 -1.5,0.3"
       id="path17" /></g></svg>
