<?xml version="1.0" encoding="UTF-8"?>
<!-- Generator: Adobe Illustrator 22.0.1, SVG Export Plug-In . SVG Version: 6.00 Build 0)  -->

<svg
   xmlns="http://www.w3.org/2000/svg"
   xmlns:xlink="http://www.w3.org/1999/xlink"
   version="1.1"
   id="Layer_1"
   x="0px"
   y="0px"
   viewBox="0 0 79.1 14.4"
   enable-background="new 0 0 79.8 28"
   xml:space="preserve">
   <g
     id="g3"
     transform="translate(-0.40000153,-13.4)"><path
       d="m 53.8,23.6 0,-10 h 1 l 0,10.2 c 0,2.1 1,3.1 3,3.1 1.9,0 3,-1.1 3,-3.1 l 0,-10.2 h 1 l 0,10 c 0,2.6 -1.4,4.1 -4,4.1 -2.7,0 -4,-1.4 -4,-4.1 z"
       id="path5" /><polygon
       points="52.7,14.5 52.7,13.6 45,13.6 45,14.5 51.6,14.5 44.6,26.6 44.6,27.5 52.7,27.5 52.7,26.6 45.6,26.6 52.7,14.6 "
       id="polygon7" /><polygon
       points="43.4,13.6 35.7,13.6 35.7,14.5 42.3,14.5 35.3,26.6 35.3,27.5 43.5,27.5 43.5,26.6 36.4,26.6 43.4,14.5 "
       id="polygon9" /><path
       d="m 31,13.4 c -3.1,0 -4.6,2.4 -4.6,7.2 0,4.8 1.5,7.2 4.6,7.2 2.1,0 4.6,-1.2 4.6,-7.2 0,-4.9 -1.5,-7.2 -4.6,-7.2 z m 0,13.5 c -2.5,0 -3.6,-2 -3.6,-6.3 0,-4.2 1.2,-6.3 3.6,-6.3 2.4,0 3.6,2 3.6,6.3 0,4.3 -1.1,6.3 -3.6,6.3 z"
       id="path11" /><path
       d="m 74.9,13.4 c -3.1,0 -4.6,2.4 -4.6,7.2 0,4.8 1.5,7.2 4.6,7.2 2.1,0 4.6,-1.2 4.6,-7.2 0,-4.9 -1.5,-7.2 -4.6,-7.2 z m 0,13.5 c -2.5,0 -3.6,-2 -3.6,-6.3 0,-4.2 1.2,-6.3 3.6,-6.3 2.4,0 3.6,2 3.6,6.3 0,4.3 -1.1,6.3 -3.6,6.3 z"
       id="path13" /><polygon
       points="70.9,14.5 70.9,13.6 62.4,13.6 62.4,14.5 66.1,14.5 66.1,27.5 67.1,27.5 67.1,14.5 "
       id="polygon15" /><path
       d="m 22.9,20.2 c 1.4,-0.4 2.2,-1.5 2.2,-3.1 0,-2.4 -1.2,-3.5 -3.8,-3.5 h -3.9 l 0,13.9 h 4 c 2.5,0 4.1,-1.5 4.1,-3.8 0.1,-1.9 -0.9,-3.2 -2.6,-3.5 z m -4.4,-5.8 h 3 c 1.8,0 2.7,0.9 2.7,2.7 0,2.3 -1.9,2.7 -3,2.7 l -2.6,0 -0.1,-5.4 z m 2.7,12.2 -2.7,0 0,-6 h 2.6 c 2.3,0 3.4,1 3.4,3 0.1,2.2 -0.9,3 -3.3,3 z"
       id="path17" /><polygon
       points="8.2,13.9 0.4,27.2 16,27.2 13.3,22.7 8.3,22.7 10.8,18.4 "
       id="polygon19" /></g></svg>
