<?xml version="1.0" encoding="utf-8"?>
<!-- Generator: Adobe Illustrator 22.0.1, SVG Export Plug-In . SVG Version: 6.00 Build 0)  -->

<svg
   xmlns="http://www.w3.org/2000/svg"
   xmlns:xlink="http://www.w3.org/1999/xlink" 
   version="1.1"
   id="Layer_1"
   x="0px"
   y="0px"
   viewBox="0 0 22.646 22.646"
   enable-background="new 0 0 28 28"
   xml:space="preserve">
   <g
     id="g3"
     transform="translate(-2.677,-4.977)"><path
       d="m 14,27.3 c 6.1,0 11,-4.9 11,-11 0,-6.1 -4.9,-11 -11,-11 -6.1,0 -11,4.9 -11,11 0,6.1 4.9,11 11,11"
       id="path5"
       style="fill:none;stroke:#000000;stroke-width:0.64600003;stroke-miterlimit:10" /></g><path
     d="m 8.823,9.523 h 1.1 v -1.1 c 0,-0.5 0,-1.2 0.4,-1.7 0.4,-0.5 0.9,-0.8 1.8,-0.8 1.4,0 2,0.2 2,0.2 l -0.3,1.7 c 0,0 -0.5,-0.1 -0.9,-0.1 -0.4,0 -0.8,0.2 -0.8,0.6 v 1.3 h 1.8 l -0.1,1.6 h -1.7 v 5.7 h -2.1 v -5.7 h -1.1 v -1.7 z"
     id="path7" /></svg>
