<svg height='100px' width='100px'  fill="#3b4aff" xmlns="http://www.w3.org/2000/svg" xmlns:xlink="http://www.w3.org/1999/xlink" version="1.1" x="0px" y="0px" viewBox="0 0 64 64" style="enable-background:new 0 0 64 64;" xml:space="preserve"><path d="M62,21c0-3.309-2.691-6-6-6h-0.026C56.609,14.162,57,13.13,57,12c0-2.757-2.243-5-5-5s-5,2.243-5,5  c0,1.13,0.391,2.162,1.026,3H48c-3.309,0-6,2.691-6,6v3.424C41.386,24.154,40.712,24,40,24c-2.757,0-5,2.243-5,5  c0,1.13,0.391,2.162,1.026,3H36c-3.309,0-6,2.691-6,6v5c0,1.654,1.346,3,3,3c0.352,0,0.686-0.072,1-0.184V53.5  c0,1.93,1.57,3.5,3.5,3.5c0.98,0,1.864-0.407,2.5-1.058C40.636,56.593,41.52,57,42.5,57c1.93,0,3.5-1.57,3.5-3.5v-7.684  C46.314,45.928,46.648,46,47,46c1.654,0,3-1.346,3-3v-3.051c0.778-0.113,1.475-0.47,2-1.008C52.636,39.593,53.52,40,54.5,40  c1.93,0,3.5-1.57,3.5-3.5v-7.684C58.314,28.928,58.648,29,59,29c1.654,0,3-1.346,3-3V21z M49,12c0-1.654,1.346-3,3-3s3,1.346,3,3  s-1.346,3-3,3S49,13.654,49,12z M46,32.35C45.373,32.128,44.702,32,44,32h-0.026C44.609,31.162,45,30.13,45,29  c0.352,0,0.686-0.072,1-0.184V32.35z M37,29c0-1.654,1.346-3,3-3c0.917,0,1.73,0.423,2.281,1.074  c0.003,0.004,0.003,0.009,0.007,0.013c0.108,0.129,0.202,0.258,0.282,0.388c0.01,0.017,0.018,0.035,0.028,0.052  c0.07,0.119,0.134,0.238,0.183,0.36c0,0.001,0.001,0.001,0.001,0.002C42.919,28.233,43,28.607,43,29c0,1.654-1.346,3-3,3  S37,30.654,37,29z M48,43c0,0.551-0.449,1-1,1s-1-0.449-1-1v-1v-5h-2v5v1v10.5c0,0.827-0.673,1.5-1.5,1.5S41,54.327,41,53.5V44h-2  v9.5c0,0.827-0.673,1.5-1.5,1.5S36,54.327,36,53.5V43v-1v-5h-2v5v1c0,0.551-0.449,1-1,1s-1-0.449-1-1v-5c0-2.206,1.794-4,4-4h8  c0.9,0,1.722,0.309,2.391,0.813c0.003,0.002,0.004,0.006,0.006,0.008c0.241,0.182,0.453,0.389,0.643,0.61  c0.023,0.028,0.047,0.056,0.069,0.084c0.156,0.191,0.287,0.398,0.403,0.611c0.031,0.057,0.065,0.112,0.093,0.171  c0.097,0.201,0.168,0.412,0.229,0.626c0.02,0.069,0.048,0.135,0.064,0.206C47.962,37.412,48,37.703,48,38v0.95V43z M60,26  c0,0.551-0.449,1-1,1s-1-0.449-1-1v-1v-5h-2v5v1v10.5c0,0.827-0.673,1.5-1.5,1.5S53,37.327,53,36.5V27h-2v9.5  c0,0.652-0.418,1.208-1,1.415c-0.001-0.083-0.012-0.165-0.016-0.247c-0.006-0.11-0.01-0.221-0.022-0.33  c-0.01-0.089-0.027-0.177-0.041-0.265c-0.018-0.114-0.034-0.229-0.059-0.341c-0.017-0.078-0.039-0.153-0.059-0.23  c-0.031-0.122-0.063-0.243-0.102-0.362c-0.02-0.061-0.044-0.121-0.066-0.181c-0.049-0.135-0.1-0.268-0.158-0.398  c-0.017-0.039-0.037-0.076-0.055-0.115c-0.073-0.154-0.151-0.304-0.236-0.45c-0.007-0.012-0.015-0.024-0.022-0.036  C48.85,34.428,48.457,33.951,48,33.54V26v-1v-5h-2v5v1c0,0.551-0.449,1-1,1c-0.197,0-0.36-0.06-0.486-0.134  c-0.025-0.052-0.066-0.101-0.094-0.152c-0.123-0.236-0.257-0.463-0.415-0.676c-0.002-0.003-0.003-0.006-0.005-0.009  c0-0.01,0-0.02,0-0.029v-5c0-2.206,1.794-4,4-4h8c2.206,0,4,1.794,4,4V26z"></path><path d="M30.231,18.495c-0.312-0.484-0.74-0.862-1.231-1.119v-5.632l9.287-2.786c0.393-0.118,0.674-0.463,0.709-0.872  c0.036-0.408-0.182-0.797-0.549-0.98l-10-5c-0.31-0.154-0.679-0.138-0.973,0.044S27,2.653,27,3v6v2v6.037  c-1.104,0.167-2.057,0.891-2.506,1.938l-1.894,4.418C22.442,23.762,22.082,24,21.681,24H18.46c0.954-1.063,1.54-2.462,1.54-4  c0-3.309-2.691-6-6-6s-6,2.691-6,6c0,1.593,0.628,3.038,1.644,4.114C5.324,24.771,2,28.5,2,33v8.5C2,43.43,3.57,45,5.5,45  c0.539,0,1.044-0.133,1.5-0.351V58c0,2.206,1.794,4,4,4c1.2,0,2.266-0.542,3-1.382C14.734,61.458,15.8,62,17,62c2.206,0,4-1.794,4-4  V30.901l4.153-0.432c0.12-0.012,0.236-0.046,0.344-0.101c0.817-0.409,1.475-1.091,1.853-1.922l3.108-6.838  C30.919,20.595,30.834,19.431,30.231,18.495z M29,4.618l6.297,3.148L29,9.656V9V4.618z M14,16c2.206,0,4,1.794,4,4s-1.794,4-4,4  s-4-1.794-4-4S11.794,16,14,16z M28.638,20.781l-3.109,6.838c-0.166,0.365-0.44,0.673-0.783,0.882l-4.85,0.504  C19.387,29.058,19,29.488,19,30v28c0,1.103-0.897,2-2,2s-2-0.897-2-2V43h-2v15c0,1.103-0.897,2-2,2s-2-0.897-2-2V41.5V41v-9H7v9v0.5  C7,42.327,6.327,43,5.5,43S4,42.327,4,41.5V33c0-3.86,3.14-7,7-7h10.681c1.202,0,2.284-0.714,2.757-1.818l1.894-4.418  C26.531,19.3,26.985,19,27.49,19c0.437,0,0.823,0.21,1.06,0.578C28.786,19.945,28.818,20.384,28.638,20.781z"></path></svg>