<svg width="177" height="86" viewBox="0 0 177 86" fill="none" xmlns="http://www.w3.org/2000/svg">
<g id="Isolation_Mode" clip-path="url(#clip0_744_4047)">
<path id="Vector" d="M65.919 63.2267C65.2381 63.0831 64.5166 63.0079 63.7565 63.0079C62.9964 63.0079 62.2324 63.0831 61.4743 63.2267C55.9873 64.2629 50.8111 68.867 49.3256 74.3738C47.6352 80.6406 51.3575 85.7386 57.6243 85.7386C63.8911 85.7386 70.3628 80.6406 72.0533 74.3738C73.5388 68.868 70.8458 64.2629 65.919 63.2267ZM58.7456 81.5808C54.771 81.5808 52.4115 78.3464 53.4843 74.3738C54.5562 70.4001 58.6605 67.1667 62.6352 67.1667C66.6099 67.1667 68.9673 70.4011 67.8955 74.3738C66.8236 78.3474 62.7193 81.5808 58.7456 81.5808Z" fill="#FFFC00"/>
<path id="Vector_2" d="M134.083 63.0079C127.816 63.0079 121.341 68.1069 119.651 74.3738C117.96 80.6406 121.684 85.7386 127.95 85.7386C134.217 85.7386 140.689 80.6406 142.379 74.3738C144.07 68.1069 140.347 63.0079 134.083 63.0079ZM129.072 81.5808C125.096 81.5808 122.737 78.3464 123.808 74.3738C124.88 70.4001 128.985 67.1667 132.96 67.1667C136.936 67.1667 139.292 70.4011 138.221 74.3738C137.149 78.3474 133.044 81.5808 129.071 81.5808H129.072Z" fill="#FFFC00"/>
<path id="Subtract" fill-rule="evenodd" clip-rule="evenodd" d="M176.718 36.948C176.72 36.859 176.706 36.7709 176.674 36.6877L175.04 32.3786L168.329 14.6954C168.153 14.2322 167.9 13.8185 167.578 13.4682C167.257 13.1149 166.869 12.8229 166.421 12.6042C160.959 9.92205 154.661 8.53943 147.917 8.53943H143.346C142.673 8.53943 141.998 8.79081 141.422 9.20649C140.759 9.68452 140.235 10.3803 140.026 11.1533L127.364 58.0833C124.829 59.1927 122.435 60.7456 120.328 62.631H77.7089C75.4355 58.7009 71.1362 56.2038 65.5899 56.2038C60.0436 56.2038 54.3983 58.7009 50.002 62.631H35.6245L33.8994 69.0245H44.7664C43.9697 70.4042 43.3106 71.8541 42.8236 73.3515H47.6861C48.2165 71.8224 48.9826 70.3666 49.9377 69.0245C51.6241 66.6492 53.8856 64.6361 56.4143 63.2278C56.7973 63.014 57.1863 62.8151 57.5792 62.631C59.7209 61.6255 62.0131 61.0554 64.2815 61.0554C66.5499 61.0554 68.5343 61.6255 70.1347 62.631C70.4296 62.8151 70.7097 63.014 70.9779 63.2278C72.7455 64.6361 73.9213 66.6492 74.3261 69.0245C74.5547 70.3666 74.5389 71.8224 74.241 73.3515H79.1054C79.427 71.8541 79.5527 70.4042 79.5003 69.0245H115.091C114.293 70.4042 113.635 71.8541 113.147 73.3515H118.01C118.541 71.8224 119.307 70.3666 120.264 69.0245C121.743 66.9382 123.669 65.132 125.831 63.7682C125.842 63.7599 125.855 63.7516 125.868 63.7433C125.877 63.7377 125.886 63.7322 125.894 63.7266C126.545 63.3188 127.218 62.9517 127.904 62.631C130.048 61.6255 132.338 61.0554 134.606 61.0554C140.048 61.0554 143.853 64.3353 144.65 69.0245C144.652 69.0295 144.652 69.0354 144.654 69.0404C144.878 70.3775 144.862 71.8284 144.567 73.3515H149.429C149.748 71.861 149.875 70.4151 149.823 69.0404H167.43C167.564 69.0404 167.7 69.0334 167.833 69.0215C167.842 69.0196 167.851 69.0196 167.859 69.0196C168.086 69.0136 168.29 68.978 168.473 68.9166C170.394 68.4653 172.167 66.8363 172.689 64.8994L176.569 50.5219L176.657 42.4845L176.718 36.948ZM143.548 39.3189H168.286C170.546 39.3189 172.581 36.815 171.862 34.9207L165.516 18.1966C165.21 17.388 164.444 16.8981 163.479 16.8981H149.596C148.024 16.8981 146.405 18.1728 145.98 19.7465L141.468 36.4706C141.043 38.0442 141.975 39.3189 143.548 39.3189Z" fill="#FFFC00"/>
<path id="Vector_3" d="M39.7282 56.1849C39.0779 58.5968 40.5051 60.5505 42.917 60.5505H49.6342C52.4855 58.1841 55.6813 56.4056 58.9552 55.3268C58.977 55.3189 58.9998 55.312 59.0215 55.305C61.3919 54.5301 63.8028 54.1233 66.1534 54.1233C67.0491 54.1233 67.922 54.1827 68.7662 54.2995C70.1389 54.4866 71.4394 54.825 72.6479 55.305C75.3636 56.3818 77.6182 58.1673 79.2027 60.5495H119.959C121.743 59.0669 123.66 57.8149 125.683 56.8074L139.755 4.6547C140.405 2.24377 138.978 0.289093 136.567 0.289093H98.886C98.4842 0.104017 98.028 0.00207728 97.5153 0.00207728H36.955C36.1385 0.00207728 35.323 -0.00287126 34.5045 0.00207728H34.3966C33.3821 0.00207728 32.1945 0.444477 31.283 1.16301C30.411 1.84986 29.5886 2.97714 29.3669 3.96289C29.1373 4.98724 29.1877 6.05019 29.7717 6.76476C30.2794 7.38432 30.9771 7.80494 31.859 7.90293C31.9886 7.91678 32.1222 7.9247 32.2598 7.9247H54.1789C55.0607 8.02268 55.7565 8.4443 56.2642 9.06385C56.8501 9.77842 56.9006 10.8404 56.669 11.8637C56.4463 12.8505 55.6259 13.9778 54.7529 14.6656C53.9582 15.2921 52.9556 15.7068 52.0382 15.8038H9.9003C8.60873 15.8038 7.32112 15.7939 6.02757 15.8038C5.97116 15.8048 5.91573 15.8038 5.85932 15.8038C5.72967 15.8038 5.59804 15.8117 5.46542 15.8255C3.48501 16.0344 1.28192 17.7604 0.830608 19.7646C0.377322 21.7767 1.36406 23.4978 3.31874 23.7036C3.44938 23.7175 3.58497 23.7254 3.72254 23.7254H34.6915C35.5734 23.8234 36.2701 24.245 36.7778 24.8646C37.3618 25.5791 37.4122 26.6411 37.1816 27.6644C36.9609 28.6512 36.1385 29.7795 35.2665 30.4663C34.4678 31.0948 33.4603 31.5114 32.5399 31.6055H31.5235C30.2329 31.6055 15.1131 31.5946 13.8205 31.6055H13.6503C13.5236 31.6055 13.396 31.6114 13.2663 31.6253C11.2839 31.8291 9.0739 33.5572 8.62061 35.5663C8.16831 37.5764 9.15406 39.2985 11.1087 39.5053C11.2394 39.5192 11.375 39.5271 11.5125 39.5271H47.817C48.6989 39.6251 49.3966 40.0447 49.9043 40.6653C50.4902 41.3798 50.5387 42.4418 50.3091 43.4671C50.0874 44.4529 49.265 45.5812 48.3931 46.267C47.6023 46.8896 46.6056 47.3042 45.6941 47.4042C36.0167 47.4042 27.1678 47.4042 26.8016 47.4062H26.6947C26.564 47.4062 26.4314 47.4141 26.2968 47.428C25.3794 47.5249 24.3768 47.9396 23.5811 48.5661C22.7091 49.254 21.8886 50.3803 21.666 51.368C21.4354 52.3913 21.4858 53.4543 22.0698 54.1679C22.6537 54.8795 23.4841 55.3288 24.5579 55.3288H39.9597L39.7282 56.1869V56.1849Z" fill="#FFFC00"/>
</g>
<defs>
<clipPath id="clip0_744_4047">
<rect width="176" height="85.7395" fill="white" transform="translate(0.719727)"/>
</clipPath>
</defs>
</svg>
