<svg height='100px' width='100px'  fill="#3b4aff" xmlns="http://www.w3.org/2000/svg" viewBox="0 0 66 66" x="0px" y="0px"><title>Artboard 11</title><g data-name="Layer 8"><path d="M57,60a1,1,0,1,0-.71-.29A1.05,1.05,0,0,0,57,60Z"></path><circle cx="33" cy="59" r="1"></circle><circle cx="54" cy="59" r="1"></circle><circle cx="36" cy="59" r="1"></circle><circle cx="45" cy="59" r="1"></circle><circle cx="48" cy="59" r="1"></circle><circle cx="39" cy="59" r="1"></circle><circle cx="42" cy="59" r="1"></circle><circle cx="24" cy="59" r="1"></circle><circle cx="12" cy="59" r="1"></circle><circle cx="51" cy="59" r="1"></circle><circle cx="15" cy="59" r="1"></circle><circle cx="27" cy="59" r="1"></circle><circle cx="30" cy="59" r="1"></circle><circle cx="21" cy="59" r="1"></circle><circle cx="18" cy="59" r="1"></circle><path d="M9.38,58.08a1,1,0,0,0-.76,0,1,1,0,0,0-.33.21A1.05,1.05,0,0,0,8,59a1,1,0,0,0,.08.38.9.9,0,0,0,.54.54.94.94,0,0,0,.76,0,.9.9,0,0,0,.54-.54A1,1,0,0,0,10,59a1.05,1.05,0,0,0-.29-.71A1,1,0,0,0,9.38,58.08Z"></path><circle cx="9" cy="56.2" r="1"></circle><circle cx="9" cy="53.4" r="1"></circle><circle cx="9" cy="50.6" r="1"></circle><circle cx="9" cy="47.8" r="1"></circle><path d="M8.29,45.71a1.15,1.15,0,0,0,.33.21.94.94,0,0,0,.76,0,.9.9,0,0,0,.54-.54A1,1,0,0,0,10,45a1.05,1.05,0,0,0-.29-.71,1,1,0,0,0-.33-.21,1,1,0,0,0-.76,0,1,1,0,0,0-.33.21A1.05,1.05,0,0,0,8,45a1,1,0,0,0,.08.38A1.15,1.15,0,0,0,8.29,45.71Z"></path><circle cx="30" cy="45" r="1"></circle><circle cx="27" cy="45" r="1"></circle><circle cx="33" cy="45" r="1"></circle><circle cx="24" cy="45" r="1"></circle><circle cx="36" cy="45" r="1"></circle><circle cx="12" cy="45" r="1"></circle><circle cx="48" cy="45" r="1"></circle><circle cx="15" cy="45" r="1"></circle><circle cx="21" cy="45" r="1"></circle><circle cx="18" cy="45" r="1"></circle><circle cx="39" cy="45" r="1"></circle><circle cx="45" cy="45" r="1"></circle><circle cx="54" cy="45" r="1"></circle><circle cx="42" cy="45" r="1"></circle><circle cx="51" cy="45" r="1"></circle><path d="M57,46a1,1,0,1,0-.71-.29A1.05,1.05,0,0,0,57,46Z"></path><circle cx="57" cy="50.6" r="1"></circle><circle cx="57" cy="47.8" r="1"></circle><circle cx="57" cy="53.4" r="1"></circle><circle cx="57" cy="56.2" r="1"></circle><path d="M63,36H54.46a34.77,34.77,0,0,0,.5-7.15v-.22c0-3.31-3-5.58-8.66-6.46a13.1,13.1,0,0,0,2.48-7.63c0-4.07-4.45-5.15-6.8-5.15s-6.81,1.08-6.81,5.15a12.93,12.93,0,0,0,2.54,7.68c-6.86,1.14-8.34,4.08-8.34,6.41v.21a34.82,34.82,0,0,0,.5,7.16H24V33a1,1,0,0,0-1-1H22V31h1a1,1,0,0,0,0-2V28a7,7,0,0,0-6-6.92V19h1a1,1,0,0,0,0-2H14a1,1,0,0,0,0,2h1v2.08A7,7,0,0,0,9,28v1a1,1,0,0,0,0,2h1v1H9a1,1,0,0,0-1,1v3H3a1,1,0,0,0-1,1v4a1,1,0,0,0,1,1V64a1,1,0,0,0,1,1H62a1,1,0,0,0,1-1V42a1,1,0,0,0,1-1V37A1,1,0,0,0,63,36ZM53,28.63v.21a31.42,31.42,0,0,1-.53,7.09H49.61V29.46a1,1,0,1,0-2,0V36H43.92l1.35-1.79a1,1,0,0,0,.17-.82l-1.56-7,1.73-2.3C48.6,24.5,53,25.63,53,28.63ZM38.5,14.71a1.83,1.83,0,0,0,1.82,1.66h6.29C46,19.53,44.14,22.66,42,22.66c-2.55,0-4.73-4.33-4.8-7.95ZM42,27.15H42l1.38,6.23L42,35.26l-1.41-1.88Zm0-2.49a4.53,4.53,0,0,0,.74-.07l-.41.56h-.66l-.42-.56A4.76,4.76,0,0,0,42,24.66Zm4.79-10.29H40.48a1.83,1.83,0,0,0-1.82-1.66h-.72c1.31-1.28,3.89-1.32,4-1.32S46.59,11.44,46.77,14.37Zm-8.38,9.76,1.68,2.25-1.56,7a1,1,0,0,0,.18.82L40,36H36.35V29.46a1,1,0,0,0-2,0v6.46H31.9a31.38,31.38,0,0,1-.53-7.09v-.2C31.37,25.71,35.53,24.57,38.39,24.13ZM11,28a5,5,0,0,1,10,0v1H11Zm1,3h8v1H12Zm-2,3H22v2H10ZM4,38H62v2H4ZM61,63H5V42H61Z"></path><circle cx="40.32" cy="17.85" r="0.83"></circle><circle cx="43.64" cy="17.85" r="0.83"></circle></g></svg>