<svg height='100px' width='100px'  fill="#3b4aff" xmlns:dc="http://purl.org/dc/elements/1.1/" xmlns:cc="http://creativecommons.org/ns#" xmlns:rdf="http://www.w3.org/1999/02/22-rdf-syntax-ns#" xmlns:svg="http://www.w3.org/2000/svg" xmlns="http://www.w3.org/2000/svg" xmlns:sodipodi="http://sodipodi.sourceforge.net/DTD/sodipodi-0.dtd" xmlns:inkscape="http://www.inkscape.org/namespaces/inkscape" version="1.1" x="0px" y="0px" viewBox="0 0 100 100"><g transform="translate(0,-952.36218)"><path style="text-indent:0;text-transform:none;direction:ltr;block-progression:tb;baseline-shift:baseline;color:#000000;enable-background:accumulate;" d="m 50,956.36217 c -25.3695,0 -46,20.6306 -46,46.00003 0,25.3695 20.6305,46 46,46 25.3695,0 46,-20.6305 46,-46 0,-25.36943 -20.6305,-46.00003 -46,-46.00003 z m 0,6 c 22.1269,0 40,17.8732 40,40.00003 0,22.1269 -17.8731,40 -40,40 -22.1269,0 -40,-17.8731 -40,-40 0,-22.12683 17.8731,-40.00003 40,-40.00003 z m -16,20 c -3.8661,0 -7,3.134 -7,7 0,3.866 3.1339,7 7,7 3.86599,0 7,-3.134 7,-7 0,-3.866 -3.13401,-7 -7,-7 z m 32,0 c -3.8661,0 -7,3.134 -7,7 0,3.866 3.1339,7 7,7 3.86599,0 7,-3.134 7,-7 0,-3.866 -3.13401,-7 -7,-7 z m -46,19.00003 c -1.8601,0.016 -3.0454,1.8787 -3,3.1875 1.1402,17.1833 15.521,30.8125 33,30.8125 17.479,0 31.8599,-13.6292 33,-30.8125 0.102,-1.6321 -1.3648,-3.1905 -3,-3.1875 l -60,0 z m 3.53125,6 52.9375,0 c -2.3726,12.4981 -13.22495,22 -26.46875,22 -13.2438,0 -24.09605,-9.5019 -26.46875,-22 z" fill="#3b4aff" fill-opacity="1" stroke="none" marker="none" visibility="visible" display="inline" overflow="visible"></path></g></svg>