<svg height='100px' width='100px'  fill="#3b4aff" xmlns="http://www.w3.org/2000/svg" viewBox="0 0 64 64" x="0px" y="0px"><title>Hotel-parking-service-travel</title><g><path d="M41,52V43a3,3,0,0,0-1-2.24L38.37,33a5,5,0,0,0-4.9-4H10.53a5,5,0,0,0-4.9,4L4,40.76A3,3,0,0,0,3,43v9a1,1,0,0,0-1,1v4a1,1,0,0,0,1,1v3a1,1,0,0,0,1,1H9a1,1,0,0,0,1-1V58H34v3a1,1,0,0,0,1,1h5a1,1,0,0,0,1-1V58a1,1,0,0,0,1-1V53A1,1,0,0,0,41,52ZM9,56H4V54H40v2H9ZM7.59,33.39A3,3,0,0,1,10.53,31H33.47a3,3,0,0,1,2.94,2.39L37.77,40H6.23ZM5,43a1,1,0,0,1,1-1H38a1,1,0,0,1,1,1v9H5ZM8,60H5V58H8Zm31,0H36V58h3Z"></path><path d="M9,43a3,3,0,1,0,3,3A3,3,0,0,0,9,43Zm0,4a1,1,0,1,1,1-1A1,1,0,0,1,9,47Z"></path><path d="M35,43a3,3,0,1,0,3,3A3,3,0,0,0,35,43Zm0,4a1,1,0,1,1,1-1A1,1,0,0,1,35,47Z"></path><path d="M29,43H15a1,1,0,0,0,0,2H29a1,1,0,0,0,0-2Z"></path><path d="M29,46H15a1,1,0,0,0,0,2H29a1,1,0,0,0,0-2Z"></path><path d="M29,49H15a1,1,0,0,0,0,2H29a1,1,0,0,0,0-2Z"></path><path d="M61,2H39a1,1,0,0,0-1,1V25a1,1,0,0,0,1,1h8V61a1,1,0,0,0,1,1h4a1,1,0,0,0,1-1V26h8a1,1,0,0,0,1-1V3A1,1,0,0,0,61,2ZM51,60H49V26h2Zm9-36H40V4H60Z"></path><path d="M47,22a1,1,0,0,0,1-1V14h3a4,4,0,0,0,2.86-1.17,4,4,0,0,0,0-5.66A4,4,0,0,0,51,6H47a1,1,0,0,0-1,1V21A1,1,0,0,0,47,22ZM48,8h3a2.15,2.15,0,0,1,1.46.59,2,2,0,0,1,0,2.82A2.15,2.15,0,0,1,51,12H48Z"></path></g></svg>