<svg height='100px' width='100px'  fill="#3b4aff" xmlns="http://www.w3.org/2000/svg" viewBox="0 0 64 64" x="0px" y="0px"><g><path d="M38,20.57h2.117a12.353,12.353,0,0,0,3.593-.526l.58,1.914a14.393,14.393,0,0,1-4.173.612H38ZM35,15.5A1.5,1.5,0,1,1,36.5,17,1.5,1.5,0,0,1,35,15.5Zm9,0A1.5,1.5,0,1,1,45.5,17,1.5,1.5,0,0,1,44,15.5ZM62,42.2V62H60V42.2a5.026,5.026,0,0,0-4.293-4.95l-.707-.1V62H53V57H46a1,1,0,0,1-1-1V52a1,1,0,0,1,1-1h7V36.828l-3-.57V41a1,1,0,0,1-1,1,.983.983,0,0,1-.316-.052l-1.291-.43L42,56.178V62H40V56.178l-5.393-14.66-1.291.43A.983.983,0,0,1,33,42a1,1,0,0,1-1-1V36.258l-3,.57V40a1,1,0,0,1,1,1,4.952,4.952,0,0,1-1,2.969V62H27V45.576A4.95,4.95,0,0,1,25,46H23.444A3.959,3.959,0,0,1,24,48V62H22V57H16.459L16,62.091,14,61.909l.9-9.909H14a6.006,6.006,0,0,1-6-6H7a5.006,5.006,0,0,1-5-5,1,1,0,0,1,1-1H4V26a6,6,0,0,1,3-5.191V11a1,1,0,0,1,1-1h4a1,1,0,0,1,1,1v9.809a5.992,5.992,0,0,1,2.214,2.234A.983.983,0,0,1,15.45,23h13.1a1,1,0,0,1,.988.846A38.314,38.314,0,0,1,30,29.714a5.23,5.23,0,0,1-4,5.179v.379h0l1.834-.258L32,34.222V33a1,1,0,0,1,1.316-.948l1.345.448A3.171,3.171,0,0,0,35,31.09V27.974A9.947,9.947,0,0,1,31.062,21H31a4,4,0,0,1,0-8V8a6.027,6.027,0,0,1,.049-.728,4.546,4.546,0,0,1,.681-2.145c.031-.055.061-.1.092-.148h0A6,6,0,0,1,37,2H50a1,1,0,0,1,1,1V5a3.968,3.968,0,0,1-.237,1.307A6.224,6.224,0,0,1,51,8v5a4,4,0,0,1,0,8h-.062A9.947,9.947,0,0,1,47,27.973V31.09a3.175,3.175,0,0,0,.331,1.413l1.353-.451A1,1,0,0,1,50,33v1.222l4.157.79,1.833.261A7.037,7.037,0,0,1,62,42.2ZM24,40V38.22A5.029,5.029,0,0,0,22.513,40Zm-8,0h2V34.893a4.833,4.833,0,0,1-2-.978Zm4,0h.36A7.026,7.026,0,0,1,24,35.894v-1a4.834,4.834,0,0,1-1.986-.965A4.834,4.834,0,0,1,20,34.89Zm2.32-15A35.779,35.779,0,0,0,22,29.714,3.157,3.157,0,0,0,25,33a3.157,3.157,0,0,0,3-3.286A35.779,35.779,0,0,0,27.68,25H22.32Zm-6,0A36.25,36.25,0,0,0,16,29.71,3.159,3.159,0,0,0,19,33a2.766,2.766,0,0,0,1.718-.6A5.464,5.464,0,0,1,20,29.714,37.821,37.821,0,0,1,20.308,25ZM9,14h2V12H9ZM6,35H9V28H6Zm0,5h8V26a4,4,0,0,0-2.4-3.662,1,1,0,0,1-.6-.916V16H9v5.422a1,1,0,0,1-.6.916A4,4,0,0,0,6,26h4a1,1,0,0,1,1,1v9a1,1,0,0,1-1,1H6ZM22,55V52H16.913l-.273,3Zm-2-9H10a4,4,0,0,0,4,4h8V48A2,2,0,0,0,20,46Zm5-2a3.006,3.006,0,0,0,2.829-2H4.171A3.006,3.006,0,0,0,7,44H25Zm2-4V37.15l-.711.1c-.093.014-.194.053-.289.073V40Zm18.436-6.866A5.135,5.135,0,0,1,45,31.09V29.147a9.805,9.805,0,0,1-8,0V31.09a5.18,5.18,0,0,1-.439,2.043l2.6.867h3.678ZM40,36v2h2V36ZM33,11.472c.742-.838,1.44-1.682,2.072-2.472H33ZM39.434,7l1.8-3H38.566l-1.8,3Zm2.332,0h2.668l1.8-3H43.566ZM47,9h-.072c.632.79,1.33,1.634,2.072,2.472V8.444A3.959,3.959,0,0,1,47,9Zm4,6v4a2,2,0,0,0,0-4ZM49,4h-.434l-1.8,3H47a2,2,0,0,0,2-2ZM33.127,7h1.307l1.743-2.9A4.006,4.006,0,0,0,33.127,7ZM31,19V15.005A2,2,0,1,0,31,19Zm5.556,7.649a8.11,8.11,0,0,0,8.886,0A7.982,7.982,0,0,0,49,20V14.406A62.261,62.261,0,0,1,44.386,9H37.614A62.261,62.261,0,0,1,33,14.406V20A7.982,7.982,0,0,0,36.556,26.649ZM34,39.612l4-1.333V35.721l-2.954-.985-.262-.084c-.007,0-.012-.007-.019-.009L34,34.388Zm2.506,1.273L40,50.385V40h-.839Zm8.988,0L42.839,40H42V50.385ZM48,34.388l-.766.255c-.006,0-.011.007-.018.009l-.262.084L44,35.721v2.558l4,1.333ZM53,55V53H47v2Z"></path></g></svg>