<svg height='100px' width='100px'  fill="#3b4aff" xmlns:dc="http://purl.org/dc/elements/1.1/" xmlns:cc="http://creativecommons.org/ns#" xmlns:rdf="http://www.w3.org/1999/02/22-rdf-syntax-ns#" xmlns:svg="http://www.w3.org/2000/svg" xmlns="http://www.w3.org/2000/svg" xmlns:sodipodi="http://sodipodi.sourceforge.net/DTD/sodipodi-0.dtd" xmlns:inkscape="http://www.inkscape.org/namespaces/inkscape" version="1.1" x="0px" y="0px" viewBox="0 0 100 100"><g transform="translate(0,-952.36218)"><path style="text-indent:0;text-transform:none;direction:ltr;block-progression:tb;baseline-shift:baseline;color:#000000;enable-background:accumulate;" d="m 85.749554,966.61266 c -3.80161,-3.80161 -10.18604,-3.95611 -14.14213,10e-6 l -11.49049,11.49048 -30.09624,-8.70625 a 3.0003,3.0003 0 0 0 -2.961,0.7513 l -8.48528,8.48528 a 3.0003,3.0003 0 0 0 0.7071,4.77297 l 24.01953,12.92678 -13.85487,13.85487 -9.23658,-0.6187 a 3.0003,3.0003 0 0 0 -2.34229,0.8838 l -5.65685,5.6569 a 3.0003,3.0003 0 0 0 0.6629,4.7288 l 11.99872,6.6512 6.65123,11.9987 a 3.0003,3.0003 0 0 0 4.72877,0.6629 l 5.65686,-5.6568 a 3.0003,3.0003 0 0 0 0.88388,-2.3423 l -0.61872,-9.2366 13.85487,-13.8549 12.9268,24.0196 a 3.0003,3.0003 0 0 0 4.77297,0.7071 l 8.48528,-8.4853 a 3.0003,3.0003 0 0 0 0.75127,-2.961 l -8.70626,-30.09627 11.49049,-11.49044 c 3.95614,-3.95614 3.80165,-10.34049 0,-14.14214 z m -4.24264,4.24264 c 1.48665,1.48666 1.615,4.04184 0,5.65686 l -12.72792,12.72787 a 3.0003,3.0003 0 0 0 -0.75136,2.961 l 8.70626,30.09627 -4.39731,4.3973 -12.92681,-24.0195 a 3.0003,3.0003 0 0 0 -4.77296,-0.7071 l -17.67768,17.6776 a 3.0003,3.0003 0 0 0 -0.86179,2.3202 l 0.61873,9.2366 -1.87826,1.8782 -5.14862,-9.2586 a 3.0003,3.0003 0 0 0 -1.14905,-1.1491 l -9.25868,-5.1486 1.87826,-1.8783 9.23657,0.6188 a 3.0003,3.0003 0 0 0 2.32021,-0.8618 l 17.67766,-17.67767 a 3.0003,3.0003 0 0 0 -0.70711,-4.773 l -24.01953,-12.92675 4.39732,-4.39732 30.09623,8.70625 a 3.0003,3.0003 0 0 0 2.96102,-0.7513 l 12.72792,-12.72792 c 1.61504,-1.61504 4.1703,-1.48656 5.65685,0 z" fill="#3b4aff" fill-opacity="1" stroke="none" marker="none" visibility="visible" display="inline" overflow="visible"></path></g></svg>