<svg height='100px' width='100px'  fill="#3b4aff" xmlns="http://www.w3.org/2000/svg" xmlns:xlink="http://www.w3.org/1999/xlink" version="1.1" x="0px" y="0px" viewBox="0 0 64 64" style="enable-background:new 0 0 64 64;" xml:space="preserve"><g><path d="M-161-48.295V-45v4v14v2c0,1.654,1.346,3,3,3h2c1.654,0,3-1.346,3-3v-2v-14v-4v-3.295c2.888-0.863,5-3.541,5-6.705v-8v-1   v-17c0-0.552-0.448-1-1-1s-1,0.448-1,1v16h-2v-16c0-0.552-0.448-1-1-1s-1,0.448-1,1v16h-2v-16c0-0.552-0.448-1-1-1s-1,0.448-1,1v16   h-2v-16c0-0.552-0.448-1-1-1s-1,0.448-1,1v16h-2v-16c0-0.552-0.448-1-1-1s-1,0.448-1,1v17v1v8   C-166-51.835-163.888-49.158-161-48.295z M-155-28h-4v-12h4V-28z M-155-42h-4v-2h4V-42z M-155-25c0,0.551-0.449,1-1,1h-2   c-0.551,0-1-0.449-1-1v-1h4V-25z M-155-46h-4v-2h4V-46z M-164-63h2v2c0,0.552,0.448,1,1,1s1-0.448,1-1v-2h2v2c0,0.552,0.448,1,1,1   s1-0.448,1-1v-2h2v2c0,0.552,0.448,1,1,1s1-0.448,1-1v-2h2v8c0,2.757-2.243,5-5,5h-4c-2.757,0-5-2.243-5-5V-63z"></path><path d="M-139-51.986V-48v4v17v2c0,1.654,1.346,3,3,3h2c1.654,0,3-1.346,3-3v-2v-17v-4v-4c0-0.037-0.017-0.068-0.021-0.103   c3.044-2.546,5.101-7.888,5.101-14.227c0-8.882-4.023-15.84-9.16-15.84c-5.142,0-9.17,6.958-9.17,15.84   C-144.25-59.892-142.126-54.481-139-51.986z M-135.08-80.17c3.881,0,7.16,6.338,7.16,13.84c0,7.497-3.279,13.83-7.16,13.83   c-3.887,0-7.17-6.333-7.17-13.83C-142.25-73.832-138.967-80.17-135.08-80.17z M-133-28h-4v-15h4V-28z M-133-45h-4v-2h4V-45z    M-133-25c0,0.551-0.449,1-1,1h-2c-0.551,0-1-0.449-1-1v-1h4V-25z M-133-49h-4v-1.838c0.618,0.219,1.259,0.338,1.92,0.338   c0.719,0,1.413-0.149,2.08-0.408V-49z"></path><path d="M-109-82h-4c-4.962,0-9,4.038-9,9v20c0,4.829,3.441,8.869,8,9.798V-41v1v4v1v8v2c0,1.654,1.346,3,3,3h2   c1.654,0,3-1.346,3-3v-2v-8v-1v-4v-1v-3v-35C-106-80.654-107.346-82-109-82z M-120-53h4c0.552,0,1-0.448,1-1s-0.448-1-1-1h-4v-4h4   c0.552,0,1-0.448,1-1s-0.448-1-1-1h-4v-4h4c0.552,0,1-0.448,1-1s-0.448-1-1-1h-4v-4h4c0.552,0,1-0.448,1-1s-0.448-1-1-1h-4   c0-3.86,3.14-7,7-7h4c0.551,0,1,0.449,1,1v34h-4C-116.411-45-120-48.589-120-53z M-108-37h-4v-2h4V-37z M-108-25   c0,0.551-0.449,1-1,1h-2c-0.551,0-1-0.449-1-1v-1h4V-25z M-108-28h-4v-7h4V-28z M-112-41v-2h4v2H-112z"></path><path d="M5-34h36c0.553,0,1-0.448,1-1s-0.447-1-1-1H5c-0.551,0-1-0.449-1-1v-42c0-0.551,0.449-1,1-1h54c0.552,0,1,0.449,1,1v24   c0,0.552,0.447,1,1,1s1-0.448,1-1v-24c0-1.654-1.346-3-3-3H5c-1.654,0-3,1.346-3,3v42C2-35.346,3.346-34,5-34z"></path><path d="M56.445-22.334c0.167,0.112,0.36,0.168,0.555,0.168c0.162,0,0.324-0.039,0.472-0.118C57.797-22.459,58-22.798,58-23.167   v-14.749c2.406-2.014,3.94-5.036,3.94-8.411c0-6.043-4.922-10.96-10.971-10.96S40-52.37,40-46.327c0,3.404,1.559,6.451,4,8.465   v14.695c0,0.369,0.203,0.708,0.528,0.882c0.324,0.174,0.72,0.154,1.026-0.05L51-25.965L56.445-22.334z M50.97-55.287   c4.946,0,8.971,4.02,8.971,8.96c0,4.946-4.024,8.97-8.971,8.97S42-41.38,42-46.327C42-51.267,46.023-55.287,50.97-55.287z    M46-25.035V-36.56c1.221,0.624,2.57,1.028,4,1.154V-32c0,0.552,0.447,1,1,1s1-0.448,1-1v-3.409c1.431-0.134,2.781-0.548,4-1.18   v11.553l-4.445-2.963c-0.336-0.224-0.773-0.224-1.109,0L46-25.035z"></path><path d="M50.967-42.686c-0.553,0-1,0.448-1,1s0.447,1,1,1c3.108,0,5.637-2.528,5.637-5.636c0-3.108-2.528-5.636-5.637-5.636   c-0.553,0-1,0.448-1,1s0.447,1,1,1c2.005,0,3.637,1.631,3.637,3.636S52.972-42.686,50.967-42.686z"></path><path d="M18.93-46.842c-0.133-0.328-0.424-0.567-0.777-0.618l-3.34-0.484l-1.497-3.029c-0.158-0.32-0.476-0.523-0.828-0.548   l-0.069-0.14l-0.069,0.141c-0.352,0.026-0.669,0.229-0.827,0.549l-1.487,3.027L6.696-47.46c-0.353,0.051-0.644,0.29-0.777,0.618   L5.765-46.82l0.112,0.109c-0.086,0.343,0.009,0.707,0.265,0.957l2.414,2.354l-0.57,3.321c-0.06,0.352,0.077,0.703,0.347,0.93   l-0.026,0.152l0.138-0.073c0.161,0.1,0.341,0.16,0.526,0.16c0.159,0,0.318-0.038,0.465-0.114l2.985-1.567l2.996,1.567   c0.315,0.165,0.692,0.143,0.991-0.046l0.136,0.071l0,0l0.001,0l-0.026-0.151c0.27-0.227,0.408-0.578,0.347-0.93l-0.57-3.322   l2.413-2.353c0.256-0.249,0.35-0.614,0.265-0.957l0.112-0.109L18.93-46.842z M14.235-43.581l0.317,1.847l-1.669-0.873   c-0.145-0.076-0.304-0.114-0.463-0.114c-0.16,0-0.319,0.038-0.465,0.114l-1.656,0.87l0.316-1.844   c0.056-0.325-0.052-0.656-0.287-0.885l-1.339-1.306l1.854-0.269c0.326-0.047,0.608-0.253,0.754-0.549l0.825-1.679l0.831,1.681   c0.146,0.295,0.427,0.5,0.753,0.547l1.854,0.269l-1.339,1.306C14.287-44.236,14.179-43.905,14.235-43.581z"></path><path d="M34.93-46.843c-0.133-0.327-0.423-0.566-0.776-0.617l-3.34-0.484l-1.497-3.029c-0.158-0.32-0.476-0.523-0.828-0.548   l-0.069-0.14l-0.069,0.141c-0.352,0.026-0.669,0.229-0.827,0.549l-1.487,3.027l-3.339,0.484c-0.353,0.051-0.644,0.29-0.777,0.618   l-0.154,0.022l0.112,0.109c-0.086,0.343,0.009,0.707,0.265,0.957l2.414,2.354l-0.57,3.321c-0.06,0.352,0.077,0.703,0.347,0.93   l-0.026,0.152l0.138-0.073c0.161,0.1,0.341,0.16,0.526,0.16c0.159,0,0.318-0.038,0.465-0.114l2.985-1.567l2.996,1.567   c0.315,0.165,0.692,0.143,0.992-0.046l0.136,0.071l-0.026-0.151c0.27-0.227,0.408-0.578,0.347-0.93l-0.57-3.322l2.413-2.353   c0.256-0.249,0.35-0.614,0.265-0.957l0.111-0.108l-0.001,0l0.001-0.001L34.93-46.843z M30.235-43.581l0.317,1.847l-1.669-0.873   c-0.145-0.076-0.304-0.114-0.463-0.114c-0.16,0-0.319,0.038-0.465,0.114l-1.656,0.87l0.316-1.844   c0.056-0.325-0.052-0.656-0.287-0.885l-1.339-1.306l1.854-0.269c0.326-0.047,0.608-0.253,0.754-0.549l0.825-1.679l0.831,1.681   c0.146,0.295,0.427,0.5,0.753,0.547l1.854,0.269l-1.339,1.306C30.287-44.236,30.179-43.905,30.235-43.581z"></path><path d="M9-73h16c0.552,0,1-0.448,1-1s-0.448-1-1-1H9c-0.552,0-1,0.448-1,1S8.448-73,9-73z"></path><path d="M55-69H39c-0.553,0-1,0.448-1,1s0.447,1,1,1h16c0.553,0,1-0.448,1-1S55.553-69,55-69z"></path><path d="M55-75H29c-0.552,0-1,0.448-1,1s0.448,1,1,1h26c0.553,0,1-0.448,1-1S55.553-75,55-75z"></path><path d="M9-67h26c0.553,0,1-0.448,1-1s-0.447-1-1-1H9c-0.552,0-1,0.448-1,1S8.448-67,9-67z"></path><path d="M9-61h16c0.552,0,1-0.448,1-1s-0.448-1-1-1H9c-0.552,0-1,0.448-1,1S8.448-61,9-61z"></path><path d="M56-62c0-0.552-0.447-1-1-1H29c-0.552,0-1,0.448-1,1s0.448,1,1,1h26C55.553-61,56-61.448,56-62z"></path><path d="M36-56c0-0.552-0.447-1-1-1H9c-0.552,0-1,0.448-1,1s0.448,1,1,1h26C35.553-55,36-55.448,36-56z"></path><path d="M115.46-22H124c0.459,0,0.858-0.312,0.97-0.757L125.531-25h6.654l0.878,2.35c0.146,0.391,0.52,0.65,0.937,0.65h8.61   c0.869,0,1.694-0.376,2.264-1.032c0.57-0.657,0.828-1.527,0.706-2.388c0,0,0,0,0,0l-4.37-30.82   c-0.044-0.308-0.229-0.578-0.499-0.73l-6.358-3.584L134.066-65c1.624-0.036,2.934-1.368,2.934-3v-2c0-1.302-0.839-2.402-2-2.816   V-76c0-0.099-0.029-0.188-0.056-0.278c-0.168-1.303-0.752-2.514-1.701-3.473c-1.141-1.128-2.647-1.749-4.243-1.749   s-3.103,0.621-4.251,1.757c-0.943,0.953-1.525,2.163-1.693,3.467C123.029-76.187,123-76.098,123-76v3.184   c-1.161,0.414-2,1.514-2,2.816v2c0,1.632,1.31,2.964,2.934,3l-0.286,4.445l-6.358,3.584c-0.271,0.153-0.456,0.424-0.499,0.733   l-4.301,30.827c-0.114,0.866,0.148,1.737,0.721,2.391C113.778-22.372,114.599-22,115.46-22z M125-74.5h8v1.5h-8V-74.5z M129-79.5   c1.065,0,2.073,0.416,2.829,1.163c0.386,0.39,0.683,0.844,0.882,1.337h-7.422c0.198-0.492,0.492-0.943,0.874-1.329   C126.927-79.084,127.935-79.5,129-79.5z M118.702-55.472l6.399-3.607c0.294-0.166,0.485-0.47,0.507-0.807l0.39-6.05   c0.018-0.276-0.079-0.547-0.269-0.749S125.276-67,125-67h-1c-0.552,0-1-0.449-1-1v-2c0-0.551,0.448-1,1-1h10c0.552,0,1,0.449,1,1v2   c0,0.551-0.448,1-1,1h-1c-0.276,0-0.54,0.114-0.729,0.316s-0.286,0.473-0.269,0.749l0.39,6.05c0.021,0.337,0.213,0.641,0.507,0.807   l6.4,3.608l4.301,30.332c0.041,0.291-0.042,0.573-0.235,0.796c-0.192,0.221-0.46,0.343-0.754,0.343h-7.916l-0.878-2.35   c-0.146-0.391-0.52-0.65-0.937-0.65h-8.13c-0.459,0-0.858,0.312-0.97,0.757L123.219-24h-7.759c-0.289,0-0.555-0.12-0.745-0.338   c-0.196-0.224-0.282-0.511-0.244-0.803L118.702-55.472z"></path><path d="M96.64-22h4.721c2.495,0,4.9-1.05,6.599-2.881c1.699-1.833,2.566-4.313,2.378-6.806l-0.64-8.29c0,0,0,0,0,0l-0.7-9.099   C108.957-49.598,108.522-50,108-50H90c-0.522,0-0.957,0.402-0.997,0.923l-0.53,6.88l-0.81,10.512   c-0.188,2.491,0.679,4.971,2.378,6.804C91.739-23.05,94.145-22,96.64-22z M90.926-48h16.148l0.587,7.637   c-0.025,0.019-0.051,0.04-0.076,0.059c-0.32,0.238-0.638,0.451-0.955,0.64c-0.056,0.033-0.111,0.063-0.167,0.094   c-0.329,0.187-0.658,0.357-0.989,0.494c-1.864,0.754-4.001,0.756-5.861-0.001c-0.78-0.313-1.514-0.754-2.289-1.221   c-0.347-0.208-0.693-0.417-1.046-0.615c-0.486-0.272-0.987-0.517-1.496-0.743c-0.165-0.073-0.334-0.134-0.501-0.203   c-0.349-0.143-0.699-0.282-1.055-0.404c-0.201-0.069-0.404-0.128-0.607-0.19c-0.331-0.101-0.662-0.194-0.996-0.276   c-0.213-0.052-0.426-0.099-0.64-0.143c-0.148-0.031-0.296-0.073-0.445-0.099L90.926-48z M89.657-31.533l0.725-9.415   c0.095,0.018,0.19,0.03,0.285,0.05c0.175,0.037,0.35,0.08,0.525,0.123c0.303,0.075,0.604,0.158,0.904,0.25   c0.174,0.054,0.348,0.107,0.52,0.167c0.314,0.108,0.623,0.229,0.93,0.356c0.147,0.061,0.295,0.116,0.441,0.181   c0.447,0.2,0.887,0.414,1.313,0.653c0.333,0.188,0.663,0.386,0.993,0.584c0.404,0.243,0.816,0.491,1.242,0.724   c0.426,0.233,0.867,0.452,1.331,0.638c0.555,0.226,1.131,0.394,1.717,0.512c0.029,0.006,0.057,0.015,0.085,0.021   c0.262,0.05,0.528,0.085,0.793,0.114c0.046,0.005,0.092,0.015,0.138,0.02c0.261,0.025,0.523,0.033,0.785,0.037   c0.052,0.001,0.103,0.007,0.155,0.007c0,0,0,0,0.001,0c1.257,0,2.516-0.238,3.692-0.714c0.105-0.043,0.208-0.097,0.312-0.144   c0.16-0.072,0.321-0.141,0.48-0.223c0.112-0.057,0.223-0.126,0.335-0.188c0.152-0.085,0.305-0.166,0.457-0.259   c0.008-0.005,0.016-0.009,0.025-0.014l0.503,6.519c0.148,1.966-0.509,3.846-1.851,5.293C105.151-24.796,103.329-24,101.36-24H96.64   c-1.969,0-3.791-0.796-5.132-2.241C90.166-27.688,89.509-29.568,89.657-31.533z"></path><path d="M124.77-32h8.461c0.972,0,1.855-0.453,2.425-1.243c0.562-0.781,0.717-1.791,0.414-2.7l-0.663-2.01   C134.988-39.177,133.844-40,132.56-40h-7.119c-1.284,0-2.429,0.823-2.85,2.057l-0.66,1.998c-0.303,0.912-0.148,1.922,0.414,2.703   C122.914-32.453,123.798-32,124.77-32z M123.829-35.316l0.657-1.99c0.142-0.415,0.525-0.693,0.954-0.693h7.119   c0.429,0,0.812,0.279,0.951,0.684l0.66,2.002c0.104,0.308,0.053,0.637-0.139,0.901C133.844-34.15,133.551-34,133.23-34h-8.461   c-0.32,0-0.613-0.15-0.802-0.413C123.776-34.677,123.726-35.006,123.829-35.316z"></path><path d="M128.88-43.94c3.309,0,6-2.691,6-6s-2.691-6-6-6s-6,2.691-6,6S125.571-43.94,128.88-43.94z M128.88-53.94   c2.206,0,4,1.794,4,4s-1.794,4-4,4s-4-1.794-4-4S126.674-53.94,128.88-53.94z"></path><path d="M98.16-70.62c0.029,0.06,0.06,0.12,0.09,0.18c0.04,0.05,0.08,0.1,0.13,0.15c0.18,0.18,0.439,0.29,0.71,0.29   c0.06,0,0.13-0.01,0.19-0.02c0.06-0.01,0.13-0.03,0.189-0.06c0.061-0.02,0.12-0.05,0.17-0.09c0.05-0.04,0.11-0.08,0.15-0.12   c0.05-0.05,0.09-0.1,0.13-0.15c0.03-0.06,0.06-0.12,0.09-0.18c0.021-0.06,0.04-0.12,0.05-0.18c0.021-0.07,0.03-0.14,0.03-0.2   c0-0.26-0.11-0.52-0.3-0.71c-0.04-0.04-0.101-0.08-0.15-0.12s-0.109-0.07-0.17-0.09c-0.06-0.03-0.13-0.05-0.189-0.06   c-0.131-0.03-0.261-0.02-0.391,0c-0.06,0.01-0.13,0.03-0.189,0.06c-0.061,0.02-0.12,0.05-0.17,0.09   c-0.051,0.04-0.11,0.08-0.15,0.12c-0.19,0.19-0.3,0.45-0.3,0.71c0,0.06,0.01,0.13,0.02,0.2C98.12-70.74,98.14-70.68,98.16-70.62z"></path><path d="M98.53-58.17c0.05,0.04,0.109,0.07,0.17,0.09c0.06,0.03,0.13,0.05,0.189,0.06c0.061,0.01,0.13,0.02,0.2,0.02   c0.06,0,0.13-0.01,0.19-0.02c0.06-0.01,0.13-0.03,0.189-0.06c0.061-0.02,0.12-0.05,0.17-0.09c0.05-0.04,0.11-0.08,0.15-0.12   c0.189-0.19,0.3-0.45,0.3-0.71c0-0.06-0.01-0.13-0.03-0.2c-0.01-0.06-0.029-0.12-0.05-0.18c-0.03-0.06-0.06-0.12-0.09-0.18   c-0.04-0.05-0.08-0.1-0.13-0.15c-0.04-0.04-0.101-0.08-0.15-0.12s-0.109-0.07-0.17-0.09c-0.06-0.03-0.13-0.05-0.189-0.06   c-0.33-0.07-0.671,0.04-0.9,0.27c-0.05,0.05-0.09,0.1-0.13,0.15c-0.03,0.06-0.061,0.12-0.09,0.18c-0.021,0.06-0.04,0.12-0.061,0.18   c-0.01,0.07-0.02,0.14-0.02,0.2c0,0.26,0.109,0.52,0.3,0.71C98.42-58.25,98.479-58.21,98.53-58.17z"></path><path d="M104.38-64.29c0.18,0.18,0.439,0.29,0.7,0.29c0.27,0,0.52-0.11,0.71-0.29c0.189-0.19,0.3-0.45,0.3-0.71   c0-0.13-0.03-0.26-0.08-0.38c-0.05-0.13-0.13-0.23-0.22-0.33c-0.37-0.37-1.04-0.37-1.41,0c-0.1,0.1-0.17,0.2-0.22,0.33   c-0.051,0.12-0.07,0.25-0.07,0.38C104.09-64.74,104.189-64.48,104.38-64.29z"></path><path d="M92.16-64.62c0.029,0.06,0.06,0.12,0.09,0.18c0.04,0.05,0.08,0.1,0.13,0.15c0.04,0.04,0.09,0.08,0.15,0.12   c0.05,0.04,0.109,0.07,0.17,0.09c0.06,0.03,0.119,0.05,0.189,0.06C92.95-64.01,93.02-64,93.08-64c0.069,0,0.14-0.01,0.2-0.02   c0.06-0.01,0.13-0.03,0.189-0.06c0.061-0.02,0.12-0.05,0.17-0.09c0.05-0.04,0.11-0.08,0.15-0.12c0.05-0.05,0.09-0.1,0.13-0.15   c0.03-0.06,0.06-0.12,0.09-0.18c0.021-0.06,0.04-0.12,0.05-0.18c0.021-0.07,0.03-0.14,0.03-0.2c0-0.26-0.11-0.52-0.3-0.71   c-0.04-0.04-0.101-0.08-0.15-0.12s-0.109-0.07-0.17-0.09c-0.06-0.03-0.13-0.05-0.189-0.06c-0.131-0.03-0.261-0.03-0.391,0   c-0.07,0.01-0.13,0.03-0.189,0.06c-0.061,0.02-0.12,0.05-0.17,0.09c-0.061,0.04-0.11,0.08-0.15,0.12c-0.19,0.19-0.3,0.45-0.3,0.71   c0,0.06,0.01,0.13,0.02,0.2C92.12-64.74,92.14-64.68,92.16-64.62z"></path><path d="M103.09-60c0.12,0,0.26-0.03,0.38-0.08c0.061-0.02,0.12-0.05,0.17-0.09c0.05-0.04,0.11-0.08,0.15-0.12   c0.189-0.19,0.3-0.45,0.3-0.71c0-0.13-0.03-0.26-0.08-0.38c-0.05-0.13-0.13-0.24-0.22-0.33c-0.09-0.09-0.2-0.16-0.32-0.21   c-0.189-0.08-0.39-0.1-0.58-0.06c-0.06,0.01-0.13,0.03-0.189,0.06c-0.061,0.02-0.12,0.05-0.17,0.09   c-0.051,0.03-0.11,0.08-0.15,0.12c-0.09,0.09-0.17,0.2-0.22,0.33c-0.051,0.12-0.07,0.25-0.07,0.38c0,0.26,0.1,0.52,0.29,0.71   C102.56-60.11,102.819-60,103.09-60z"></path><path d="M94.38-68.29c0.09,0.09,0.2,0.16,0.32,0.21c0.119,0.05,0.25,0.08,0.38,0.08c0.069,0,0.14-0.01,0.2-0.02   c0.06-0.01,0.13-0.03,0.189-0.06c0.061-0.02,0.12-0.05,0.17-0.09c0.05-0.03,0.11-0.08,0.15-0.12c0.189-0.19,0.3-0.45,0.3-0.71   c0-0.13-0.03-0.26-0.08-0.38c-0.05-0.13-0.13-0.23-0.22-0.33c-0.04-0.04-0.101-0.08-0.15-0.12s-0.109-0.07-0.17-0.09   c-0.06-0.03-0.13-0.05-0.189-0.06c-0.32-0.06-0.671,0.04-0.9,0.27c-0.1,0.09-0.17,0.2-0.22,0.33c-0.051,0.12-0.07,0.25-0.07,0.38   c0,0.13,0.02,0.26,0.07,0.38C94.21-68.49,94.28-68.38,94.38-68.29z"></path><path d="M95.64-61.83c-0.05-0.04-0.109-0.07-0.17-0.09c-0.06-0.03-0.13-0.05-0.189-0.06c-0.19-0.04-0.391-0.02-0.58,0.06   c-0.12,0.05-0.23,0.12-0.32,0.21c-0.1,0.1-0.17,0.21-0.22,0.33c-0.051,0.12-0.07,0.25-0.07,0.38c0,0.13,0.02,0.26,0.07,0.38   c0.05,0.12,0.12,0.23,0.22,0.33c0.18,0.18,0.439,0.29,0.7,0.29c0.069,0,0.14-0.01,0.2-0.02c0.06-0.01,0.13-0.03,0.189-0.06   c0.061-0.02,0.12-0.05,0.17-0.09c0.05-0.04,0.11-0.08,0.15-0.12c0.189-0.19,0.3-0.45,0.3-0.71c0-0.26-0.11-0.52-0.3-0.71   C95.75-61.75,95.689-61.79,95.64-61.83z"></path><path d="M102.53-68.17c0.05,0.04,0.109,0.07,0.17,0.09c0.06,0.03,0.13,0.05,0.189,0.06c0.061,0.01,0.13,0.02,0.2,0.02   c0.12,0,0.26-0.03,0.38-0.08c0.061-0.02,0.12-0.05,0.17-0.09c0.05-0.04,0.11-0.08,0.15-0.12c0.189-0.19,0.3-0.45,0.3-0.71   c0-0.06-0.01-0.13-0.03-0.19c-0.01-0.07-0.029-0.13-0.05-0.19c-0.03-0.06-0.06-0.12-0.09-0.18c-0.04-0.05-0.08-0.1-0.13-0.15   c-0.04-0.04-0.101-0.08-0.15-0.12s-0.109-0.07-0.17-0.09c-0.37-0.15-0.82-0.06-1.09,0.21c-0.05,0.05-0.09,0.1-0.13,0.15   c-0.03,0.06-0.061,0.12-0.09,0.18c-0.021,0.06-0.04,0.12-0.061,0.19c-0.01,0.06-0.01,0.13-0.01,0.19c0,0.27,0.1,0.52,0.29,0.71   C102.42-68.25,102.479-68.21,102.53-68.17z"></path><path d="M204.88-22h14.24c1.585,0,2.898-1.24,2.988-2.819l0.49-8.08c0.001-0.014,0.009-0.025,0.01-0.039l0.55-9   c0.001-0.02-0.008-0.038-0.008-0.058L224-56.02c0-0.932-0.426-1.795-1.169-2.371l-3.743-2.893   c-0.212-0.163-0.349-0.401-0.386-0.672l-0.473-3.916c0.012-0.087,0.014-0.177,0.002-0.266l-0.453-3.475L217-76.063V-79   c0-1.654-1.346-3-3-3h-4c-1.654,0-3,1.346-3,3v2.939l-1.161,9.301l-0.101,0.795c-0.001,0.005,0.001,0.01,0,0.015l-0.499,4   c-0.036,0.271-0.17,0.504-0.385,0.673l-3.698,2.888c-0.734,0.571-1.156,1.435-1.154,2.431l1.89,31.137   C201.981-23.24,203.295-22,204.88-22z M219.12-24h-14.24c-0.526,0-0.962-0.412-0.992-0.94L203.459-32h2.507l0.142,0.106   c1.395,1.053,3.501,2.644,5.933,2.644s4.538-1.591,5.933-2.644L218.114-32h2.427l-0.429,7.063C220.082-24.412,219.646-24,219.12-24   z M220.662-34h-2.882c-0.214,0-0.423,0.069-0.595,0.196l-0.419,0.314c-1.251,0.945-2.966,2.24-4.727,2.24s-3.476-1.294-4.727-2.24   l-0.419-0.314C206.723-33.931,206.514-34,206.3-34h-2.923l-0.459-7.045L206.097-41c0.004,0,0.009,0,0.014,0   c0.332,0,0.643-0.165,0.829-0.44c1.113-1.651,2.925-2.56,5.101-2.56c2.184,0,3.994,0.908,5.099,2.557   c0.186,0.277,0.497,0.443,0.831,0.443h3.117L220.662-34z M207.816-66.447L208.141-69h7.697l0.312,2.583l-4.164,3.329l-4.19-3.196   L207.816-66.447z M208.384-71l0.499-4h6.23l0.483,4H208.384z M209-79c0-0.551,0.448-1,1-1h4c0.552,0,1,0.449,1,1v2h-6V-79z    M202.385-56.812l3.702-2.892c0.627-0.492,1.03-1.197,1.136-1.992l0.286-2.293l3.885,2.964c0.179,0.137,0.393,0.205,0.606,0.205   c0.221,0,0.442-0.073,0.624-0.219l3.807-3.044l0.286,2.372c0.001,0.004,0.001,0.008,0.002,0.012c0.106,0.803,0.517,1.515,1.15,2   l3.738,2.89c0.249,0.193,0.393,0.481,0.395,0.729L221.208-43h-2.727c-1.501-1.939-3.767-3-6.441-3   c-2.662,0-4.926,1.058-6.434,2.993l-2.818-0.04L202-56.02C202-56.333,202.14-56.622,202.385-56.812z"></path><path d="M182.649-42.449c0.201,1.415,1.145,2.57,2.393,3.112l0.806,11.904l-5.403,3.602c-0.366,0.245-0.53,0.7-0.402,1.122   C180.171-22.289,180.56-22,181-22h14c0.44,0,0.829-0.289,0.957-0.71c0.128-0.421-0.036-0.877-0.402-1.122l-5.44-3.627l0.841-11.878   c1.25-0.541,2.194-1.698,2.395-3.117l2.939-21.33l0.7-5.08c0.04-0.287-0.047-0.576-0.236-0.794C196.563-69.875,196.289-70,196-70   h-16c-0.289,0-0.563,0.125-0.754,0.343c-0.189,0.218-0.276,0.507-0.236,0.794l0.98,7.11L182.649-42.449z M188.148-28h-0.334   l-0.744-11h1.856L188.148-28z M184.303-24l3-2h1.395l3,2H184.303z M191.37-42.73c-0.14,0.987-0.991,1.73-1.98,1.73h-2.779   c-0.989,0-1.841-0.744-1.98-1.727l-2.511-18.227c0.021,0,0.042,0.002,0.063,0.003c0.324,0.011,0.646,0.048,0.966,0.117   c0.028,0.006,0.056,0.015,0.084,0.022c0.325,0.076,0.65,0.179,0.973,0.317c0.02,0.009,0.04,0.02,0.061,0.029   c0.331,0.145,0.662,0.32,0.993,0.53c0.01,0.007,0.02,0.014,0.031,0.021c0.341,0.219,0.682,0.47,1.025,0.759   c0.103,0.087,0.223,0.144,0.349,0.183c0.037,0.011,0.074,0.013,0.112,0.02c0.061,0.012,0.121,0.032,0.184,0.032   c0.054,0,0.108-0.004,0.162-0.013c0.289-0.047,0.542-0.219,0.693-0.469c1.338-2.21,3.766-3.638,6.185-3.638   c0.053,0,0.113,0.007,0.168,0.008L191.37-42.73z M194.853-68l-0.41,2.974c-0.151-0.009-0.298-0.014-0.442-0.014   c-2.75,0-5.496,1.418-7.264,3.685c-1.534-1.079-3.093-1.605-4.736-1.605c-0.053,0-0.105,0-0.157,0.002L181.147-68H194.853z"></path><path d="M211.99-47.97c2.238,0,4.06-1.821,4.06-4.06c0-2.244-1.821-4.07-4.06-4.07c-2.239,0-4.061,1.826-4.061,4.07   C207.93-49.792,209.751-47.97,211.99-47.97z M211.99-54.1c1.136,0,2.06,0.929,2.06,2.07c0,1.136-0.924,2.06-2.06,2.06   s-2.061-0.924-2.061-2.06C209.93-53.171,210.854-54.1,211.99-54.1z"></path><path d="M204,28v8v12v11c0,1.654,1.346,3,3,3h12c1.654,0,3-1.346,3-3V48V36v-8c0-3.165-2.112-5.842-5-6.705V9.22   c0.609-0.549,1-1.337,1-2.22V5c0-1.654-1.346-3-3-3h-4c-1.654,0-3,1.346-3,3v2c0,0.883,0.391,1.67,1,2.22v12.075   C206.113,22.158,204,24.835,204,28z M210.06,35.69c0-1.654,1.346-3,3-3s3,1.346,2.989,3.088c-0.001,0.009-0.013,0.116-0.014,0.125   c-0.027,0.281,0.064,0.56,0.255,0.769c0.189,0.209,0.458,0.328,0.74,0.328H220v10h-2.97c-0.522,0-0.956,0.402-0.997,0.922   c-0.12,1.552-1.427,2.768-2.974,2.768c-1.564,0-2.843-1.192-2.973-2.772C210.044,47.399,209.61,47,209.09,47H206V37h3.09   c0.553,0,1-0.448,1-1C210.09,35.904,210.079,35.803,210.06,35.69z M219,60h-12c-0.552,0-1-0.449-1-1V49h2.252   c0.579,2.157,2.508,3.69,4.808,3.69c2.268,0,4.226-1.56,4.808-3.69H220v10C220,59.551,219.552,60,219,60z M220,28v7h-1.988   c-0.337-2.432-2.43-4.31-4.952-4.31s-4.615,1.878-4.952,4.31H206v-7c0-2.062,1.255-3.834,3.041-4.598   C209.245,25.417,210.932,27,213,27s3.755-1.583,3.959-3.598C218.745,24.166,220,25.938,220,28z M211,23h4c0,1.103-0.897,2-2,2   S211,24.103,211,23z M210,5c0-0.551,0.448-1,1-1h4c0.552,0,1,0.449,1,1v2c0,0.551-0.448,1-1,1h-4c-0.552,0-1-0.449-1-1V5z M215,10   v11h-4V10H215z"></path><path d="M211.5,44.024c0.213,0,0.415-0.044,0.599-0.123c-0.079,0.184-0.123,0.386-0.123,0.599c0,0.841,0.684,1.524,1.524,1.524   s1.524-0.684,1.524-1.524c0-0.191-0.039-0.373-0.104-0.542c0.635-0.184,1.104-0.764,1.104-1.458c0-0.191-0.039-0.373-0.104-0.542   c0.635-0.184,1.104-0.764,1.104-1.458c0-0.841-0.684-1.524-1.524-1.524c-0.384,0-0.732,0.148-1,0.383   c-0.152-0.133-0.329-0.235-0.525-0.3c0.203-0.142,0.382-0.316,0.508-0.535c0.299-0.517,0.304-1.155,0.014-1.708l-0.146-0.28   l-0.316,0.013c-0.623,0.026-1.173,0.349-1.471,0.865c-0.299,0.517-0.304,1.156-0.014,1.708l0.072,0.137   c-0.043,0.03-0.082,0.066-0.121,0.1c-0.268-0.235-0.616-0.383-1-0.383c-0.841,0-1.524,0.684-1.524,1.524   c0,0.384,0.148,0.732,0.383,1c-0.235,0.268-0.383,0.616-0.383,1C209.976,43.341,210.659,44.024,211.5,44.024z M211.5,42.976   c-0.262,0-0.476-0.213-0.476-0.476s0.214-0.476,0.476-0.476s0.476,0.213,0.476,0.476S211.762,42.976,211.5,42.976z M213,42.742   c0.017,0.104,0.043,0.204,0.08,0.3c-0.06,0.017-0.121,0.032-0.178,0.057C212.95,42.986,212.98,42.866,213,42.742z M213,42.258   c-0.02-0.124-0.05-0.245-0.099-0.357c0.057,0.024,0.118,0.039,0.178,0.057C213.043,42.054,213.017,42.154,213,42.258z    M213.5,44.976c-0.262,0-0.476-0.213-0.476-0.476s0.214-0.476,0.476-0.476s0.476,0.213,0.476,0.476S213.762,44.976,213.5,44.976z    M214.5,42.976c-0.262,0-0.476-0.213-0.476-0.476s0.214-0.476,0.476-0.476s0.476,0.213,0.476,0.476S214.762,42.976,214.5,42.976z    M215.5,40.024c0.262,0,0.476,0.213,0.476,0.476s-0.214,0.476-0.476,0.476s-0.476-0.213-0.476-0.476S215.238,40.024,215.5,40.024z    M213.5,40.976c-0.262,0-0.476-0.213-0.476-0.476s0.214-0.476,0.476-0.476s0.476,0.213,0.476,0.476S213.762,40.976,213.5,40.976z    M213.429,37.914c0.067-0.116,0.165-0.208,0.283-0.271c0.005,0.134-0.026,0.264-0.094,0.381c-0.067,0.116-0.165,0.208-0.283,0.271   C213.33,38.161,213.361,38.031,213.429,37.914z M211.5,40.024c0.262,0,0.476,0.213,0.476,0.476s-0.214,0.476-0.476,0.476   s-0.476-0.213-0.476-0.476S211.238,40.024,211.5,40.024z"></path><path d="M187,46.617V60h-3c-0.553,0-1,0.448-1,1s0.447,1,1,1h8c0.553,0,1-0.448,1-1s-0.447-1-1-1h-3V46.611   c5.581-0.59,9.96-5.785,9.96-12.091c0-1.717-0.303-4.251-0.79-6.612c0,0,0-0.001,0-0.001c-0.353-1.701-0.771-3.144-1.246-4.29   C196.77,23.244,196.404,23,196,23h-15.95c-0.397,0-0.757,0.235-0.916,0.599c-0.746,1.702-1.245,3.762-1.534,5.192   c0,0,0,0.001-0.001,0.001c-0.419,2.069-0.67,4.195-0.67,5.688C176.93,40.85,181.368,46.086,187,46.617z M180.721,25h14.593   c0.211,0.589,0.412,1.263,0.598,2c-0.165,0.002-0.325,0.024-0.488,0.035c-0.158,0.011-0.317,0.014-0.473,0.034   c-0.171,0.022-0.336,0.062-0.504,0.095c-0.156,0.03-0.315,0.053-0.468,0.092c-0.163,0.042-0.319,0.101-0.479,0.153   c-0.151,0.049-0.305,0.09-0.452,0.148c-0.158,0.062-0.307,0.14-0.461,0.212c-0.14,0.065-0.284,0.123-0.419,0.196   c-0.156,0.084-0.302,0.185-0.453,0.279c-0.123,0.077-0.25,0.146-0.369,0.23c-0.157,0.111-0.301,0.238-0.45,0.36   c-0.101,0.083-0.208,0.158-0.305,0.246c-0.165,0.15-0.315,0.315-0.467,0.478c-0.069,0.074-0.146,0.141-0.212,0.218   c-0.213,0.247-0.412,0.508-0.596,0.782c-1.812-2.096-4.424-3.308-7.258-3.308c-0.345,0-0.688,0.02-1.029,0.058   c-0.115,0.013-0.229,0.038-0.343,0.054c-0.225,0.033-0.449,0.065-0.671,0.114c-0.023,0.005-0.046,0.007-0.069,0.012   C180.185,26.563,180.446,25.718,180.721,25z M179.456,29.725c0.052-0.019,0.103-0.041,0.156-0.059   c0.091-0.031,0.183-0.06,0.275-0.087c0.149-0.045,0.298-0.085,0.449-0.12c0.09-0.021,0.18-0.043,0.271-0.061   c0.162-0.032,0.326-0.057,0.49-0.078c0.078-0.01,0.156-0.024,0.235-0.031c0.242-0.024,0.485-0.038,0.729-0.038   c2.695,0,5.138,1.385,6.534,3.706c0.047,0.078,0.104,0.148,0.169,0.209c0.028,0.027,0.062,0.046,0.094,0.07   c0.038,0.029,0.075,0.06,0.117,0.083c0.043,0.023,0.089,0.038,0.134,0.055c0.036,0.013,0.071,0.029,0.109,0.038   c0.045,0.011,0.09,0.013,0.137,0.018c0.033,0.003,0.064,0.013,0.097,0.013c0.026,0,0.054-0.001,0.08-0.003   c0.379-0.03,0.707-0.272,0.849-0.625c0.117-0.293,0.256-0.572,0.412-0.838c0.132-0.224,0.282-0.434,0.44-0.637   c0.025-0.033,0.045-0.069,0.071-0.102c0.923-1.142,2.235-1.907,3.702-2.149c0.04-0.006,0.08-0.015,0.12-0.021   c0.208-0.03,0.42-0.039,0.633-0.047c0.13-0.004,0.26-0.009,0.393-0.004c0.066,0.002,0.136,0.014,0.203,0.019   c0.374,1.999,0.608,4.089,0.608,5.487c0,5.597-4.046,10.15-9.02,10.15c-4.969,0-9.011-4.571-9.011-10.19   C178.93,33.258,179.128,31.476,179.456,29.725z"></path><path d="M132.19,7.75c-0.874,0-1.752,0.088-2.669,0.267C126.096,4.16,121.21,1.96,116.02,1.96c-5.136,0-10.006,2.179-13.449,5.999   c-0.804-0.139-1.602-0.208-2.38-0.208c-7.759,0-14.07,6.307-14.07,14.06c0,7.758,6.312,14.07,14.07,14.07   c0.272,0,0.54-0.027,0.81-0.042V59c0,1.654,1.346,3,3,3h24c1.654,0,3-1.346,3-3V35.816c0.395,0.033,0.79,0.064,1.19,0.064   c7.753,0,14.06-6.312,14.06-14.07C146.25,14.057,139.943,7.75,132.19,7.75z M132.19,33.88c-0.401,0-0.796-0.031-1.19-0.07V32   c0-0.552-0.447-1-1-1s-1,0.448-1,1v1.431c-0.79-0.219-1.565-0.505-2.312-0.89c-0.338-0.174-0.749-0.14-1.056,0.088   c-2.803,2.094-6.127,3.201-9.612,3.201c-3.42,0-6.701-1.078-9.488-3.117c-0.175-0.127-0.382-0.193-0.591-0.193   c-0.151,0-0.304,0.035-0.445,0.104c-0.808,0.402-1.642,0.702-2.495,0.912V32c0-0.552-0.447-1-1-1s-1,0.448-1,1v1.833   c-0.269,0.018-0.537,0.047-0.81,0.047c-6.655,0-12.07-5.415-12.07-12.07c0-6.65,5.415-12.06,12.07-12.06   c0.824,0,1.677,0.093,2.537,0.276c0.984,0.549,4.538,2.812,4.256,6.733c-0.04,0.551,0.375,1.03,0.926,1.069   c0.024,0.001,0.048,0.002,0.072,0.002c0.52,0,0.959-0.402,0.996-0.928c0.305-4.23-2.698-6.91-4.431-8.094   c3.028-3.084,7.138-4.848,11.473-4.848c4.354,0,8.455,1.755,11.464,4.831c-1.726,1.14-4.818,3.806-4.511,8.149   c0.037,0.527,0.476,0.93,0.996,0.93c0.023,0,0.048-0.001,0.071-0.002c0.551-0.039,0.966-0.517,0.927-1.068   c-0.273-3.878,3.119-6.092,4.176-6.685c0.078,0.001,0.157-0.003,0.236-0.021c0.985-0.231,1.904-0.344,2.812-0.344   c6.649,0,12.06,5.41,12.06,12.06C144.25,28.465,138.84,33.88,132.19,33.88z M129,59c0,0.551-0.448,1-1,1h-24c-0.552,0-1-0.449-1-1   v-3h23c0.553,0,1-0.448,1-1s-0.447-1-1-1h-2v-6c0-0.552-0.447-1-1-1s-1,0.448-1,1v6h-5v-6c0-0.552-0.447-1-1-1s-1,0.448-1,1v6h-5   v-6c0-0.552-0.447-1-1-1s-1,0.448-1,1v6h-5V35.589c0.969-0.201,1.918-0.505,2.839-0.916c3.024,2.068,6.531,3.157,10.181,3.157   c3.716,0,7.268-1.118,10.311-3.239c0.866,0.4,1.759,0.698,2.67,0.912V59z"></path><path d="M31.998,16.167c-9.913,0-17.977,8.064-17.977,17.978s8.064,17.978,17.977,17.978c9.917,0,17.984-8.064,17.984-17.978   S41.915,16.167,31.998,16.167z M31.998,50.122c-8.81,0-15.977-7.167-15.977-15.978s7.167-15.978,15.977-15.978   c8.813,0,15.984,7.167,15.984,15.978S40.812,50.122,31.998,50.122z"></path><path d="M31.999,22.078c-6.654,0-12.067,5.413-12.067,12.067s5.414,12.067,12.067,12.067c6.654,0,12.067-5.414,12.067-12.067   S38.653,22.078,31.999,22.078z M31.999,44.212c-5.551,0-10.067-4.516-10.067-10.067c0-5.551,4.516-10.067,10.067-10.067   c5.551,0,10.067,4.516,10.067,10.067C42.066,39.696,37.55,44.212,31.999,44.212z"></path><path d="M38.13,33.145c-0.553,0-1,0.448-1,1c0,2.829-2.302,5.131-5.131,5.131c-2.827,0-5.126-2.302-5.126-5.131   c0-0.552-0.448-1-1-1s-1,0.448-1,1c0,3.932,3.197,7.131,7.126,7.131c3.932,0,7.131-3.199,7.131-7.131   C39.13,33.592,38.683,33.145,38.13,33.145z"></path><path d="M4,30.816V35v4v12v2c0,1.654,1.346,3,3,3h2c1.654,0,3-1.346,3-3v-2V39v-4v-4.184c1.161-0.414,2-1.514,2-2.816v-6V11   c0-0.552-0.448-1-1-1s-1,0.448-1,1v10H9V11c0-0.552-0.448-1-1-1s-1,0.448-1,1v10H4V11c0-0.552-0.448-1-1-1s-1,0.448-1,1v11v6   C2,29.302,2.839,30.402,4,30.816z M10,38H6v-2h4V38z M6,40h4v10H6V40z M10,34H6v-3h4V34z M10,53c0,0.551-0.449,1-1,1H7   c-0.551,0-1-0.449-1-1v-1h4V53z M8,25c0.552,0,1-0.448,1-1v-1h3v5c0,0.551-0.449,1-1,1H5c-0.551,0-1-0.449-1-1v-5h3v1   C7,24.552,7.448,25,8,25z"></path><path d="M56,9c-3.925,0-7,4.832-7,11c0,3.812,1.176,7.109,3,9.076V35v4v12v2c0,1.654,1.346,3,3,3h2c1.654,0,3-1.346,3-3v-2V39v-4   v-5.924c1.824-1.966,3-5.263,3-9.076C63,13.832,59.925,9,56,9z M56,29c-2.71,0-5-4.122-5-9s2.29-9,5-9s5,4.122,5,9S58.71,29,56,29z    M58,38h-4v-2h4V38z M54,40h4v10h-4V40z M58,34h-4v-3.446C54.632,30.841,55.302,31,56,31s1.368-0.159,2-0.446V34z M58,53   c0,0.551-0.448,1-1,1h-2c-0.552,0-1-0.449-1-1v-1h4V53z"></path><path d="M-27,2h-50c-2.757,0-5,2.243-5,5v8c0,2.757,2.243,5,5,5v35c-2.757,0-5,2.243-5,5v1c0,0.552,0.448,1,1,1h58   c0.552,0,1-0.448,1-1v-1c0-2.757-2.243-5-5-5V20c2.757,0,5-2.243,5-5V7C-22,4.243-24.243,2-27,2z M-24,60h-56c0-1.654,1.346-3,3-3   h1h14h20h14h1C-25.346,57-24,58.346-24,60z M-59,46V35h14v11c0,2.757-2.243,5-5,5h-4C-56.757,51-59,48.757-59,46z M-43,38h1   c0.551,0,1,0.449,1,1v7c0,0.551-0.449,1-1,1h-1.08c0.047-0.328,0.08-0.66,0.08-1V38z M-50,53h6c0.551,0,1,0.449,1,1v1h-18v-1   c0-0.551,0.449-1,1-1h6H-50z M-29,49h-6c-0.552,0-1,0.448-1,1s0.448,1,1,1h6v4h-12v-1c0-1.654-1.346-3-3-3h-1.11   c0.587-0.574,1.068-1.251,1.425-2H-42c1.654,0,3-1.346,3-3v-7c0-1.654-1.346-3-3-3h-1v-2c0-0.552-0.448-1-1-1h-16   c-0.552,0-1,0.448-1,1v12c0,1.958,0.81,3.728,2.11,5H-60c-1.654,0-3,1.346-3,3v1h-12v-4h6c0.552,0,1-0.448,1-1s-0.448-1-1-1h-6V20   h14v3c0,1.302,0.839,2.402,2,2.816V28c0,0.552,0.448,1,1,1s1-0.448,1-1v-2h10v2c0,0.552,0.448,1,1,1s1-0.448,1-1v-2.184   c1.161-0.414,2-1.514,2-2.816v-3h14V49z M-46,24h-12c-0.551,0-1-0.449-1-1v-3h14v3C-45,23.551-45.449,24-46,24z M-24,15   c0,1.654-1.346,3-3,3h-1h-16h-16h-16h-1c-1.654,0-3-1.346-3-3V7c0-1.654,1.346-3,3-3h50c1.654,0,3,1.346,3,3V15z"></path><path d="M-68.04,27c-1.676,0-3.04,1.364-3.04,3.04s1.364,3.04,3.04,3.04S-65,31.716-65,30.04S-66.364,27-68.04,27z M-68.04,29   c0.573,0,1.04,0.467,1.04,1.04s-0.467,1.04-1.04,1.04s-1.04-0.467-1.04-1.04S-68.613,29-68.04,29z"></path><path d="M-68.04,35c-1.676,0-3.04,1.364-3.04,3.04s1.364,3.04,3.04,3.04S-65,39.716-65,38.04S-66.364,35-68.04,35z M-68.04,37   c0.573,0,1.04,0.467,1.04,1.04s-0.467,1.04-1.04,1.04s-1.04-0.467-1.04-1.04S-68.613,37-68.04,37z"></path><path d="M-39,33h5h0.5c1.378,0,2.5-1.122,2.5-2.5V30v-2c0-0.552-0.448-1-1-1h-5c-1.654,0-3,1.346-3,3v2C-40,32.552-39.552,33-39,33   z M-33,30c0,0.551-0.449,1-1,1h-4v-0.5c0-0.827,0.673-1.5,1.5-1.5h3.5V30z"></path><path d="M-51,6.16c-2.325,0-4.271,1.65-4.733,3.84H-57c-0.552,0-1,0.448-1,1s0.448,1,1,1h1.267c0.462,2.19,2.408,3.84,4.733,3.84   c2.668,0,4.84-2.171,4.84-4.84S-48.332,6.16-51,6.16z M-51,13.84c-1.213,0-2.242-0.768-2.649-1.84H-53c0.552,0,1-0.448,1-1   s-0.448-1-1-1h-0.649c0.406-1.072,1.436-1.84,2.649-1.84c1.566,0,2.84,1.274,2.84,2.84S-49.434,13.84-51,13.84z"></path><path d="M-64,10h-1.267C-65.729,7.81-67.675,6.16-70,6.16c-2.668,0-4.84,2.171-4.84,4.84s2.171,4.84,4.84,4.84   c2.325,0,4.271-1.65,4.733-3.84H-64c0.552,0,1-0.448,1-1S-63.448,10-64,10z M-68,12h0.649c-0.406,1.072-1.436,1.84-2.649,1.84   c-1.566,0-2.84-1.274-2.84-2.84s1.274-2.84,2.84-2.84c1.213,0,2.242,0.768,2.649,1.84H-68c-0.552,0-1,0.448-1,1S-68.552,12-68,12z"></path><path d="M-34,6.16c-2.325,0-4.271,1.65-4.733,3.84H-40c-0.552,0-1,0.448-1,1s0.448,1,1,1h1.267c0.462,2.19,2.408,3.84,4.733,3.84   c2.668,0,4.84-2.171,4.84-4.84S-31.332,6.16-34,6.16z M-34,13.84c-1.213,0-2.242-0.768-2.649-1.84H-36c0.552,0,1-0.448,1-1   s-0.448-1-1-1h-0.649c0.406-1.072,1.436-1.84,2.649-1.84c1.566,0,2.84,1.274,2.84,2.84S-32.434,13.84-34,13.84z"></path><path d="M-109,86h-17c-0.552,0-1,0.447-1,1s0.448,1,1,1h17c0.551,0,1,0.448,1,1v1h-15c-0.552,0-1,0.447-1,1s0.448,1,1,1h15v7h-13   c-0.552,0-1,0.447-1,1s0.448,1,1,1h13v1c0,0.552-0.449,1-1,1h-13c-0.552,0-1,0.447-1,1s0.448,1,1,1h12.279l1.333,4H-109h-22.218   c4.243-1.852,7.218-6.083,7.218-11c0-6.617-5.383-12-12-12s-12,5.383-12,12c0,4.917,2.976,9.148,7.218,11H-163h-0.613l1.333-4H-149   c0.552,0,1-0.447,1-1s-0.448-1-1-1h-14c-0.551,0-1-0.448-1-1v-1h13c0.552,0,1-0.447,1-1s-0.448-1-1-1h-13v-7h15   c0.552,0,1-0.447,1-1s-0.448-1-1-1h-15v-1c0-0.552,0.449-1,1-1h18c0.552,0,1-0.447,1-1s-0.448-1-1-1h-18c-1.654,0-3,1.346-3,3v2v9   v2c0,1.192,0.704,2.215,1.713,2.698l-1.662,4.985c-0.102,0.305-0.05,0.641,0.138,0.901c0.054,0.075,0.12,0.138,0.191,0.195   l-0.073,0.22H-165h1v29.184c-1.161,0.414-2,1.514-2,2.816v2c0,0.553,0.448,1,1,1h58c0.552,0,1-0.447,1-1v-2   c0-1.302-0.839-2.402-2-2.816V111h1h0.694l-0.073-0.22c0.071-0.056,0.136-0.12,0.191-0.195c0.188-0.261,0.239-0.597,0.138-0.901   l-1.662-4.985c1.009-0.484,1.713-1.507,1.713-2.698v-2v-9v-2C-106,87.346-107.346,86-109,86z M-136,88c5.514,0,10,4.486,10,10   s-4.486,10-10,10s-10-4.486-10-10S-141.514,88-136,88z M-108,144h-56v-1c0-0.552,0.449-1,1-1h22h10h22c0.551,0,1,0.448,1,1V144z    M-132,132h-8v-2h8V132z M-132,128h-8v-13h8V128z M-140,134h8v6h-8V134z M-110,140h-20v-7v-4v-15c0-0.553-0.448-1-1-1h-10   c-0.552,0-1,0.447-1,1v15v4v7h-20v-29h52V140z"></path><path d="M-159,137h14c0.552,0,1-0.447,1-1v-4v-18c0-0.553-0.448-1-1-1h-14c-0.552,0-1,0.447-1,1v18v4   C-160,136.553-159.552,137-159,137z M-146,135h-12v-2h12V135z M-150.269,122h-3.463c0.346-0.598,0.993-1,1.731-1   S-150.615,121.402-150.269,122z M-158,115h5v4.142c-1.72,0.447-3,1.999-3,3.858c0,0.366,0.207,0.673,0.5,0.847V124h0.5h6h0.5   v-0.153c0.293-0.174,0.5-0.48,0.5-0.847c0-1.859-1.28-3.411-3-3.858V115h5v16h-12V115z"></path><path d="M-127,137h14c0.552,0,1-0.447,1-1v-4v-18c0-0.553-0.448-1-1-1h-14c-0.552,0-1,0.447-1,1v18v4   C-128,136.553-127.552,137-127,137z M-114,135h-12v-2h12V135z M-120,121c0.739,0,1.385,0.402,1.731,1h-3.463   C-121.385,121.402-120.739,121-120,121z M-126,115h5v4.142c-1.72,0.447-3,1.999-3,3.858c0,0.553,0.448,1,1,1h6c0.552,0,1-0.447,1-1   c0-1.859-1.28-3.411-3-3.858V115h5v16h-12V115z"></path><path d="M-141,101.873V105c0,0.553,0.448,1,1,1h8c0.552,0,1-0.447,1-1v-3.127c1.723-0.444,3-2.013,3-3.873   c0-1.889-1.316-3.477-3.08-3.894C-131.502,91.774-133.548,90-136,90s-4.498,1.774-4.92,4.106C-142.684,94.523-144,96.111-144,98   C-144,99.86-142.723,101.429-141,101.873z M-140.205,96.021c1.293,0.663,1.249,1.608,1.219,1.807   c-0.094,0.536,0.26,1.051,0.797,1.154c0.063,0.012,0.126,0.018,0.189,0.018c0.47,0,0.89-0.333,0.981-0.812   c0.164-0.854-0.084-2.618-1.925-3.749C-138.68,93.053-137.462,92-136,92c1.654,0,3,1.346,3,3c0,0.553,0.448,1,1,1   c1.103,0,2,0.897,2,2s-0.897,2-2,2c-0.552,0-1,0.447-1,1v3h-6v-3c0-0.553-0.448-1-1-1c-1.103,0-2-0.897-2-2   C-142,96.968-141.211,96.125-140.205,96.021z"></path><path d="M-52,126c9.374,0,17-7.626,17-17s-7.626-17-17-17s-17,7.626-17,17S-61.374,126-52,126z M-52,94c8.271,0,15,6.729,15,15   s-6.729,15-15,15s-15-6.729-15-15S-60.271,94-52,94z"></path><path d="M-59,114.242V119c0,0.553,0.448,1,1,1h12c0.552,0,1-0.447,1-1v-4.758c2.178-0.505,4.27-2.582,4.27-5.242   c0-2.641-1.953-4.842-4.512-5.281c-0.451-3.326-3.31-5.898-6.758-5.898s-6.307,2.572-6.758,5.898   c-2.56,0.439-4.512,2.641-4.512,5.281C-63.27,111.66-61.178,113.737-59,114.242z M-58.004,105.658   c2.35,1.144,2.146,2.946,2.11,3.164c-0.098,0.539,0.257,1.057,0.796,1.16c0.063,0.012,0.127,0.018,0.189,0.018   c0.47,0,0.89-0.333,0.981-0.812c0.224-1.168-0.127-3.632-2.833-5.139c0.295-2.377,2.305-4.229,4.76-4.229   c2.658,0,4.82,2.162,4.82,4.819c0,0.553,0.448,1,1,1c1.87,0,3.45,1.539,3.45,3.36c0,1.81-1.798,3.36-3.27,3.36   c-0.552,0-1,0.447-1,1V118h-10v-4.64c0-0.553-0.448-1-1-1c-1.472,0-3.27-1.551-3.27-3.36   C-61.27,107.24-59.791,105.757-58.004,105.658z"></path><path d="M-33,145c0-0.553-0.448-1-1-1h-12.833C-38.306,138.156-28,120.786-28,110c0-13.233-10.767-24-24-24s-24,10.767-24,24   c0,10.786,10.306,28.156,18.833,34H-70c-0.552,0-1,0.447-1,1s0.448,1,1,1h36C-33.448,146-33,145.553-33,145z M-52,88   c12.131,0,22,9.869,22,22c0,12.655-14.996,34-22,34c-8.188,0-22-23.176-22-34C-74,97.869-64.131,88-52,88z"></path><path d="M-52,130c-2.757,0-5,2.243-5,5s2.243,5,5,5s5-2.243,5-5S-49.243,130-52,130z M-52,138c-1.654,0-3-1.346-3-3s1.346-3,3-3   s3,1.346,3,3S-50.346,138-52,138z"></path><path d="M47,105.101V103c0-3.859-3.141-7-7-7h-3.54c0.742-0.827,1.257-1.858,1.45-3H41c0.553,0,1-0.447,1-1s-0.447-1-1-1h-3.09   c-0.478-2.833-2.942-5-5.91-5c-3.309,0-6,2.691-6,6c0,1.538,0.586,2.937,1.54,4H24c-3.86,0-7,3.141-7,7v2.101   c-2.279,0.465-4,2.484-4,4.899v4.424c-1.763,0.774-3,2.531-3,4.576v4H8c-0.552,0-1,0.447-1,1s0.448,1,1,1h3h1.133l2.387,16.711   c0.348,2.445,2.477,4.289,4.951,4.289h25.06c2.474,0,4.603-1.844,4.95-4.288L51.868,125H53h3c0.553,0,1-0.447,1-1s-0.447-1-1-1h-2   v-4c0-2.045-1.237-3.802-3-4.576V110C51,107.586,49.279,105.566,47,105.101z M32,88c2.206,0,4,1.794,4,4s-1.794,4-4,4   c-2.206,0-4-1.794-4-4S29.794,88,32,88z M19,103c0-2.757,2.243-5,5-5h16c2.757,0,5,2.243,5,5v2H19V103z M15,110   c0-1.654,1.346-3,3-3h28c1.654,0,3,1.346,3,3v4h-3h-4h-4h-4h-4h-4h-4h-4h-3V110z M43,116h2v2c0,0.552-0.448,1-1,1s-1-0.448-1-1V116   z M35,116h2v2c0,0.552-0.448,1-1,1s-1-0.448-1-1V116z M27,116h2v2c0,0.552-0.449,1-1,1s-1-0.448-1-1V116z M19,116h2v2   c0,0.552-0.449,1-1,1s-1-0.448-1-1V116z M49.133,130H46c-0.553,0-1,0.447-1,1v3c0,0.552-0.448,1-1,1   c-0.267,0-0.514-0.103-0.713-0.307C43.103,134.514,43,134.267,43,134v-3c0-0.553-0.447-1-1-1h-4c-0.553,0-1,0.447-1,1v3   c0,0.552-0.448,1-1,1c-0.267,0-0.514-0.103-0.713-0.307C35.103,134.514,35,134.267,35,134v-3c0-0.553-0.447-1-1-1h-4   c-0.552,0-1,0.447-1,1v3c0,0.552-0.449,1-1,1c-0.267,0-0.513-0.103-0.712-0.306C27.102,134.513,27,134.267,27,134v-3   c0-0.553-0.448-1-1-1h-4c-0.552,0-1,0.447-1,1v3c0,0.552-0.449,1-1,1c-0.267,0-0.513-0.103-0.712-0.306   C19.102,134.513,19,134.267,19,134v-3c0-0.553-0.448-1-1-1h-3.133l-0.714-5h35.694L49.133,130z M47.5,141.43   c-0.208,1.465-1.485,2.57-2.97,2.57H19.47c-1.485,0-2.762-1.105-2.971-2.571L15.153,132H17v2c0,0.811,0.317,1.565,0.874,2.107   C18.434,136.684,19.189,137,20,137c1.654,0,3-1.346,3-3v-2h2v2c0,0.811,0.317,1.565,0.874,2.107C26.434,136.684,27.189,137,28,137   c1.654,0,3-1.346,3-3v-2h2v2c0,0.812,0.316,1.566,0.873,2.107C34.434,136.684,35.188,137,36,137c1.654,0,3-1.346,3-3v-2h2v2   c0,0.812,0.316,1.566,0.873,2.107C42.434,136.684,43.188,137,44,137c1.654,0,3-1.346,3-3v-2h1.847L47.5,141.43z M52,119v4h-1H13h-1   v-4c0-1.654,1.346-3,3-3h2v2c0,1.654,1.346,3,3,3s3-1.346,3-3v-2h2v2c0,1.654,1.346,3,3,3s3-1.346,3-3v-2h2v2c0,1.654,1.346,3,3,3   s3-1.346,3-3v-2h2v2c0,1.654,1.346,3,3,3s3-1.346,3-3v-2h2C50.654,116,52,117.346,52,119z"></path><path d="M140.263,105.983l-6.97,6.97c-0.391,0.391-0.391,1.023,0,1.414c0.195,0.195,0.451,0.293,0.707,0.293   s0.512-0.098,0.707-0.293l6.975-6.974c0.94-0.953,1.458-2.207,1.458-3.533c0-1.339-0.52-2.595-1.463-3.537   c-1.885-1.888-4.966-2.018-7.074-0.24l-5.31,5.31c-0.391,0.391-0.391,1.023,0,1.414s1.023,0.391,1.414,0l5.246-5.251   c0.97-0.816,2.365-0.932,3.474-0.396l-3.134,3.134c-0.391,0.391-0.391,1.023,0,1.414c0.195,0.195,0.451,0.293,0.707,0.293   s0.512-0.098,0.707-0.293l3.133-3.133c0.189,0.398,0.299,0.832,0.299,1.287C141.14,104.656,140.826,105.412,140.263,105.983z"></path><path d="M94.042,125H92c-0.553,0-1,0.447-1,1s0.447,1,1,1h2.229l4.023,15.272c0.573,2.194,2.559,3.728,4.828,3.728h25.84   c2.27,0,4.255-1.533,4.827-3.726L137.771,127H140c0.553,0,1-0.447,1-1s-0.447-1-1-1h-2.042c-0.405-5.288-3.991-9.809-9.067-11.397   c0.065-0.527,0.109-1.059,0.109-1.603c0-6.83-5.299-12.435-12-12.949V96h3h5h1h1c1.654,0,3-1.346,3-3v-6c0-0.553-0.447-1-1-1h-4h-5   h-2c-1.654,0-3,1.346-3,3v4v2v4.051c-1.172,0.09-2.298,0.337-3.363,0.719c0.58-1.607,0.478-3.448-0.441-5.039   c-0.801-1.388-2.095-2.38-3.644-2.795c-1.222-0.327-2.483-0.258-3.643,0.176l-1.544-2.674c-0.277-0.479-0.89-0.643-1.366-0.366   c-0.479,0.276-0.643,0.888-0.366,1.366l1.545,2.676c-2.213,1.831-2.857,5.048-1.375,7.617c0.801,1.388,2.095,2.38,3.644,2.795   c0.507,0.135,1.02,0.202,1.53,0.205c-1.859,2.249-2.977,5.131-2.977,8.27c0,0.544,0.044,1.077,0.109,1.603   C98.034,115.191,94.447,119.711,94.042,125z M113,127h6h16.674l-1.428,5H130c-0.553,0-1,0.447-1,1v3c0,0.552-0.448,1-1,1   c-0.267,0-0.514-0.103-0.713-0.307c-0.185-0.18-0.287-0.427-0.287-0.693v-3c0-0.553-0.447-1-1-1h-4c-0.553,0-1,0.447-1,1v3   c0,0.552-0.448,1-1,1c-0.267,0-0.514-0.103-0.713-0.307c-0.185-0.18-0.287-0.427-0.287-0.693v-3c0-0.553-0.447-1-1-1h-4   c-0.553,0-1,0.447-1,1v3c0,0.552-0.448,1-1,1c-0.267,0-0.514-0.103-0.713-0.307c-0.185-0.18-0.287-0.427-0.287-0.693v-3   c0-0.553-0.447-1-1-1h-4c-0.553,0-1,0.447-1,1v3c0,0.552-0.448,1-1,1c-0.267,0-0.514-0.103-0.713-0.307   c-0.185-0.18-0.287-0.427-0.287-0.693v-3c0-0.553-0.447-1-1-1h-4.246l-1.428-5H113z M131.812,141.767   c-0.343,1.315-1.533,2.233-2.893,2.233h-25.84c-1.359,0-2.55-0.918-2.894-2.235L98.141,134H101v2c0,0.812,0.316,1.566,0.873,2.107   c0.561,0.576,1.315,0.893,2.127,0.893c1.654,0,3-1.346,3-3v-2h2v2c0,0.812,0.316,1.566,0.873,2.107   c0.561,0.576,1.315,0.893,2.127,0.893c1.654,0,3-1.346,3-3v-2h2v2c0,0.812,0.316,1.566,0.873,2.107   c0.561,0.576,1.315,0.893,2.127,0.893c1.654,0,3-1.346,3-3v-2h2v2c0,0.812,0.316,1.566,0.873,2.107   c0.561,0.576,1.315,0.893,2.127,0.893c1.654,0,3-1.346,3-3v-2h2.858L131.812,141.767z M116,101c6.065,0,11,4.935,11,11   s-4.935,11-11,11s-11-4.935-11-11S109.935,101,116,101z M103.994,94.271c0.002-0.001,0.004-0.001,0.006-0.003   s0.003-0.003,0.005-0.004c0.615-0.354,1.296-0.536,1.987-0.536c0.348,0,0.698,0.046,1.043,0.139   c1.032,0.276,1.895,0.938,2.429,1.863s0.676,2.002,0.398,3.034c-0.276,1.032-0.938,1.896-1.862,2.429   c-0.925,0.536-2.004,0.678-3.035,0.399c-1.032-0.276-1.896-0.938-2.429-1.862C101.435,97.823,102.089,95.376,103.994,94.271z    M121,88h3v6h-3V88z M128,93c0,0.552-0.448,1-1,1h-1v-6h2V93z M117,89c0-0.552,0.448-1,1-1h1v6h-2v-1V89z M103.51,115.568   C105.066,121.005,110.07,125,116,125c5.93,0,10.934-3.995,12.49-9.432c4.143,1.38,7.072,5.09,7.465,9.432H119h-3h-3H96.045   C96.438,120.658,99.367,116.948,103.51,115.568z"></path><path d="M224,102h-2v-5v-2c0-3.859-3.141-7-7-7h-5v-1c0-0.553-0.447-1-1-1s-1,0.447-1,1v1h-9c-3.859,0-7,3.141-7,7v1h-1   c-0.553,0-1,0.447-1,1v2.54c0,0.279,0.117,0.546,0.322,0.735l5.678,5.233V109v31c0,1.302,0.839,2.402,2,2.816V145   c0,0.553,0.447,1,1,1s1-0.447,1-1v-2h8v2c0,0.553,0.447,1,1,1s1-0.447,1-1v-2h7v2c0,0.553,0.447,1,1,1s1-0.447,1-1v-2   c1.654,0,3-1.346,3-3v-3h3c2.757,0,5-2.243,5-5v-24C230,104.691,227.309,102,224,102z M220,98v10h-10V98H220z M194,95   c0-2.757,2.243-5,5-5h16c2.757,0,5,2.243,5,5v1h-26V95z M192,99.102V98h1h15v10h-10v-2.93c0-0.279-0.117-0.546-0.322-0.735   L192,99.102z M220,140c0,0.552-0.448,1-1,1h-20c-0.552,0-1-0.448-1-1v-30h10v21h-7c-0.553,0-1,0.447-1,1s0.447,1,1,1h16   c0.553,0,1-0.447,1-1s-0.447-1-1-1h-7v-21h10V140z M228,132c0,1.654-1.346,3-3,3h-3v-26v-5h2c2.206,0,4,1.794,4,4V132z"></path><path d="M175,115c0.553,0,1-0.447,1-1v-1c0-0.552,0.448-1,1-1c1.654,0,3-1.346,3-3s-1.346-3-3-3c-0.552,0-1-0.448-1-1s0.448-1,1-1   c1.654,0,3-1.346,3-3v-1c0-0.553-0.447-1-1-1s-1,0.447-1,1v1c0,0.552-0.448,1-1,1c-1.654,0-3,1.346-3,3s1.346,3,3,3   c0.552,0,1,0.448,1,1s-0.448,1-1,1c-1.654,0-3,1.346-3,3v1C174,114.553,174.447,115,175,115z"></path><path d="M178,94v2c0,0.553,0.447,1,1,1s1-0.447,1-1v-2c0-0.553-0.447-1-1-1S178,93.447,178,94z"></path><path d="M185,104c1.654,0,3-1.346,3-3v-1c0-0.553-0.447-1-1-1s-1,0.447-1,1v1c0,0.552-0.448,1-1,1c-1.654,0-3,1.346-3,3   s1.346,3,3,3c0.552,0,1,0.448,1,1s-0.448,1-1,1c-1.654,0-3,1.346-3,3v1c0,0.553,0.447,1,1,1s1-0.447,1-1v-1c0-0.552,0.448-1,1-1   c1.654,0,3-1.346,3-3s-1.346-3-3-3c-0.552,0-1-0.448-1-1S184.448,104,185,104z"></path><path d="M188,94c0-0.553-0.447-1-1-1s-1,0.447-1,1v2c0,0.553,0.447,1,1,1s1-0.447,1-1V94z"></path><path d="M177,146h8c3.859,0,7-3.141,7-7v-19c0-0.704-0.793-3-11-3s-11,2.296-11,3v19C170,142.859,173.141,146,177,146z    M182.419,119.022c0.079,0.002,0.16,0.004,0.237,0.007c0.43,0.015,0.842,0.035,1.237,0.059c0.076,0.005,0.15,0.01,0.224,0.015   c0.398,0.027,0.783,0.058,1.144,0.093c0.02,0.002,0.037,0.004,0.057,0.006c0.355,0.036,0.688,0.075,1.005,0.118   c0.047,0.006,0.097,0.012,0.143,0.019c0.313,0.043,0.606,0.089,0.88,0.137c0.047,0.008,0.093,0.016,0.139,0.025   c0.272,0.049,0.529,0.099,0.761,0.151c0.015,0.003,0.028,0.007,0.042,0.01c0.23,0.052,0.439,0.105,0.628,0.157   c0.016,0.005,0.034,0.009,0.05,0.014c0.186,0.053,0.347,0.105,0.49,0.156c0.011,0.004,0.021,0.008,0.032,0.012   C188.262,120.45,185.347,121,181,121s-7.262-0.55-8.49-0.999c0.011-0.004,0.021-0.008,0.032-0.012   c0.142-0.051,0.304-0.104,0.49-0.156c0.016-0.005,0.035-0.009,0.051-0.014c0.189-0.053,0.398-0.105,0.628-0.157   c0.014-0.003,0.027-0.006,0.041-0.01c0.232-0.052,0.489-0.102,0.761-0.151c0.046-0.008,0.092-0.017,0.139-0.025   c0.274-0.048,0.567-0.094,0.88-0.137c0.047-0.006,0.096-0.012,0.143-0.019c0.317-0.042,0.651-0.082,1.005-0.118   c0.019-0.002,0.037-0.004,0.057-0.006c0.361-0.036,0.746-0.066,1.144-0.093c0.075-0.005,0.148-0.01,0.224-0.015   c0.395-0.025,0.807-0.045,1.237-0.06c0.078-0.003,0.158-0.004,0.237-0.007c0.456-0.013,0.925-0.022,1.419-0.022   S181.963,119.009,182.419,119.022z M172,121.894c1.539,0.605,4.237,1.106,9,1.106s7.461-0.501,9-1.106V139c0,2.757-2.243,5-5,5h-8   c-2.757,0-5-2.243-5-5V121.894z"></path><path d="M179.357,139.62c0.001,0.001,0.002,0.002,0.003,0.003c0.526,0.25,1.078,0.377,1.64,0.377c2.804,0,5-3.075,5-7   c0-3.163-1.447-5.863-3.601-6.72c-0.001,0-0.001,0-0.002,0c0,0-0.001,0-0.001,0C181.919,126.092,181.462,126,181,126   c-2.804,0-5,3.075-5,7C176,136.005,177.349,138.663,179.357,139.62z M180.647,137.962c-0.002-0.009-0.005-0.02-0.006-0.029   c-0.033-0.195-0.051-0.378-0.051-0.549c0.005-1.273,0.577-2.504,1.184-3.807c0.477-1.024,0.969-2.083,1.223-3.242   c0.059-0.267,0.103-0.538,0.133-0.81C183.67,130.441,184,131.681,184,133C184,135.907,182.376,138.33,180.647,137.962z M181,128   c0.045,0,0.092,0.002,0.139,0.007c0.001,0.006,0.002,0.011,0.003,0.017c0.029,0.288,0.034,0.571,0.024,0.852   c-0.002,0.067-0.006,0.133-0.011,0.199c-0.019,0.281-0.051,0.56-0.111,0.831v0.001c-0.207,0.944-0.633,1.859-1.083,2.827   c-0.108,0.231-0.215,0.465-0.321,0.699c-0.029,0.065-0.058,0.13-0.087,0.196c-0.112,0.253-0.221,0.508-0.322,0.767   c-0.006,0.016-0.011,0.032-0.017,0.048c-0.091,0.236-0.173,0.475-0.249,0.718c-0.021,0.067-0.042,0.134-0.061,0.202   c-0.075,0.261-0.143,0.524-0.193,0.794c-0.002,0.008-0.004,0.016-0.006,0.024C178.261,135.302,178,134.185,178,133   C178,130.29,179.374,128,181,128z"></path><path d="M216,138.5c0,0.827,0.673,1.5,1.5,1.5s1.5-0.673,1.5-1.5s-0.673-1.5-1.5-1.5S216,137.673,216,138.5z M218,138.5   c0,0.275-0.225,0.5-0.5,0.5s-0.5-0.225-0.5-0.5s0.225-0.5,0.5-0.5S218,138.225,218,138.5z"></path><path d="M213.5,135c-0.827,0-1.5,0.673-1.5,1.5s0.673,1.5,1.5,1.5s1.5-0.673,1.5-1.5S214.327,135,213.5,135z M213.5,137   c-0.275,0-0.5-0.225-0.5-0.5s0.225-0.5,0.5-0.5s0.5,0.225,0.5,0.5S213.775,137,213.5,137z"></path><path d="M209.5,137c-0.827,0-1.5,0.673-1.5,1.5s0.673,1.5,1.5,1.5s1.5-0.673,1.5-1.5S210.327,137,209.5,137z M209.5,139   c-0.275,0-0.5-0.225-0.5-0.5s0.225-0.5,0.5-0.5s0.5,0.225,0.5,0.5S209.775,139,209.5,139z"></path><path d="M205.5,135c-0.827,0-1.5,0.673-1.5,1.5s0.673,1.5,1.5,1.5s1.5-0.673,1.5-1.5S206.327,135,205.5,135z M205.5,137   c-0.275,0-0.5-0.225-0.5-0.5s0.225-0.5,0.5-0.5s0.5,0.225,0.5,0.5S205.775,137,205.5,137z"></path><path d="M201.5,137c-0.827,0-1.5,0.673-1.5,1.5s0.673,1.5,1.5,1.5s1.5-0.673,1.5-1.5S202.327,137,201.5,137z M201.5,139   c-0.275,0-0.5-0.225-0.5-0.5s0.225-0.5,0.5-0.5s0.5,0.225,0.5,0.5S201.775,139,201.5,139z"></path><path d="M-135.119,3.087C-135.622,3.147-136,3.574-136,4.08V7h-12.22c-1.326,0-2.481,0.854-2.877,2.131L-151.963,12h-0.917   c-1.252,0-2.353,0.758-2.806,1.938l-1.02,2.71c-0.116,0.307-0.073,0.651,0.114,0.921c0.187,0.27,0.494,0.431,0.822,0.431h3.857   l3.748,41.277c0.151,1.552,1.438,2.723,2.995,2.723h18.34c1.557,0,2.844-1.171,2.996-2.729L-120.086,18h3.756   c0.329,0,0.637-0.162,0.823-0.432s0.229-0.616,0.111-0.923l-1.031-2.714c-0.451-1.173-1.552-1.931-2.803-1.931h-0.909l-0.876-2.875   C-121.408,7.854-122.559,7-123.88,7H-125V3c0-0.286-0.123-0.558-0.336-0.748c-0.214-0.189-0.5-0.279-0.783-0.245L-135.119,3.087z    M-126.83,60h-18.34c-0.522,0-0.954-0.394-1.004-0.91L-147.09,49h5.317c0.85,2.36,3.123,4,5.683,4c2.555,0,4.824-1.64,5.673-4   h5.507l-0.916,10.083C-125.876,59.606-126.308,60-126.83,60z M-148.905,27h7.875c0.479,0,0.89-0.339,0.981-0.809   c0.367-1.884,2.032-3.251,3.958-3.251c1.921,0,3.582,1.367,3.948,3.251c0.091,0.47,0.503,0.809,0.981,0.809h8.065l-1.818,20h-6.257   c-0.473,0-0.881,0.331-0.979,0.794C-132.54,49.652-134.197,51-136.09,51c-1.898,0-3.561-1.348-3.952-3.206   c-0.097-0.463-0.506-0.794-0.979-0.794h-6.067L-148.905,27z M-122.73,25h-7.665c-0.825-2.396-3.101-4.06-5.694-4.06   c-2.598,0-4.878,1.665-5.705,4.06h-7.475l-0.636-7h27.811L-122.73,25z M-118.294,14.645L-117.78,16H-121h-30h-3.325l0.509-1.351   c0.151-0.395,0.519-0.649,0.937-0.649h1.66h30.34h1.65C-118.812,14-118.445,14.255-118.294,14.645z M-122.927,9.711L-122.23,12   h-27.644l0.689-2.284C-149.054,9.294-148.658,9-148.22,9H-135h9h2.12C-123.441,9-123.058,9.288-122.927,9.711z M-134,7V4.967   l7-0.84V7H-134z"></path><path d="M-126,37c0-5.514-4.486-10-10-10s-10,4.486-10,10s4.486,10,10,10S-126,42.514-126,37z M-136,29c4.411,0,8,3.589,8,8   s-3.589,8-8,8s-8-3.589-8-8S-140.411,29-136,29z"></path><path d="M-141,38h1.142c0.364,1.399,1.459,2.494,2.858,2.858V42c0,0.552,0.448,1,1,1s1-0.448,1-1v-1.142   c1.399-0.364,2.494-1.459,2.858-2.858H-131c0.552,0,1-0.448,1-1s-0.448-1-1-1h-1.142c-0.364-1.399-1.459-2.494-2.858-2.858V32   c0-0.552-0.448-1-1-1s-1,0.448-1,1v1.142c-1.399,0.364-2.494,1.459-2.858,2.858H-141c-0.552,0-1,0.448-1,1S-141.552,38-141,38z    M-136,35c1.103,0,2,0.897,2,2s-0.897,2-2,2s-2-0.897-2-2S-137.103,35-136,35z"></path><path d="M215,195c0.553,0,1-0.447,1-1v-2c0-1.528-1.152-2.778-2.631-2.963c-0.4-7.152-5.226-11.99-12.369-12.405V173   c0-0.552,0.448-1,1-1h9c0.553,0,1-0.447,1-1s-0.447-1-1-1h-9c-1.654,0-3,1.346-3,3v3.632c-7.144,0.415-11.97,5.253-12.369,12.405   C185.152,189.222,184,190.472,184,192v2c0,0.553,0.447,1,1,1h1.824l2.65,30.437c0.228,2.602,2.372,4.563,4.986,4.563h10.96   c2.566,0,4.752-2.004,4.977-4.563L213.056,195H215z M198.903,178.633c0.032-0.002,0.065-0.002,0.097-0.004V181c0,0.553,0.447,1,1,1   s1-0.447,1-1v-2.371c0.032,0.002,0.065,0.002,0.097,0.004c1.69,0.131,3.349,0.577,4.846,1.338c3.184,1.694,5.165,4.86,5.435,9.029   h-22.756c0.27-4.169,2.251-7.336,5.435-9.029C195.554,179.209,197.213,178.763,198.903,178.633z M186,192c0-0.552,0.448-1,1-1h0.09   h0.5h24.82h0.5H213c0.552,0,1,0.448,1,1v1h-1.86H187.74H186V192z M208.404,225.263c-0.135,1.535-1.445,2.737-2.984,2.737h-10.96   c-1.57,0-2.857-1.177-2.994-2.737l-0.859-9.866C192.002,219.241,195.68,222,200,222c4.149,0,7.715-2.542,9.227-6.149   L208.404,225.263z M192,212c0-4.411,3.589-8,8-8s8,3.589,8,8s-3.589,8-8,8S192,216.411,192,212z M209.754,209.821   C208.756,205.353,204.765,202,200,202c-4.922,0-9.016,3.579-9.84,8.269L188.831,195h22.218L209.754,209.821z"></path><path d="M196.142,213c0.364,1.399,1.459,2.495,2.858,2.858V217c0,0.553,0.447,1,1,1s1-0.447,1-1v-1.142   c1.399-0.364,2.495-1.459,2.858-2.858H205c0.553,0,1-0.447,1-1s-0.447-1-1-1h-1.142c-0.364-1.399-1.459-2.495-2.858-2.858V207   c0-0.553-0.447-1-1-1s-1,0.447-1,1v1.142c-1.399,0.364-2.495,1.459-2.858,2.858H195c-0.553,0-1,0.447-1,1s0.447,1,1,1H196.142z    M200,210c1.103,0,2,0.897,2,2s-0.897,2-2,2s-2-0.897-2-2S198.897,210,200,210z"></path><path d="M224,207h-8c-0.553,0-1,0.447-1,1s0.447,1,1,1h8c0.553,0,1-0.447,1-1S224.553,207,224,207z"></path><path d="M229,207h-1c-0.553,0-1,0.447-1,1s0.447,1,1,1h1c0.553,0,1-0.447,1-1S229.553,207,229,207z"></path><path d="M184,209c0.553,0,1-0.447,1-1s-0.447-1-1-1h-8c-0.553,0-1,0.447-1,1s0.447,1,1,1H184z"></path><path d="M172,207h-1c-0.553,0-1,0.447-1,1s0.447,1,1,1h1c0.553,0,1-0.447,1-1S172.553,207,172,207z"></path><path d="M218.021,188.394l5.657-5.657c0.391-0.391,0.391-1.023,0-1.414s-1.023-0.391-1.414,0l-5.657,5.657   c-0.391,0.391-0.391,1.023,0,1.414c0.195,0.195,0.451,0.293,0.707,0.293S217.825,188.589,218.021,188.394z"></path><path d="M227.213,177.787c-0.391-0.391-1.023-0.391-1.414,0l-0.707,0.707c-0.391,0.391-0.391,1.023,0,1.414   c0.195,0.195,0.451,0.293,0.707,0.293s0.512-0.098,0.707-0.293l0.707-0.707C227.604,178.811,227.604,178.178,227.213,177.787z"></path><path d="M184.979,218.606l-5.657,5.657c-0.391,0.391-0.391,1.023,0,1.414c0.195,0.195,0.451,0.293,0.707,0.293   s0.512-0.098,0.707-0.293l5.657-5.657c0.391-0.391,0.391-1.023,0-1.414S185.37,218.216,184.979,218.606z"></path><path d="M176.494,227.092l-0.707,0.707c-0.391,0.391-0.391,1.023,0,1.414c0.195,0.195,0.451,0.293,0.707,0.293   s0.512-0.098,0.707-0.293l0.707-0.707c0.391-0.391,0.391-1.023,0-1.414S176.885,226.701,176.494,227.092z"></path><path d="M176.322,181.322c-0.391,0.391-0.391,1.023,0,1.414l5.657,5.657c0.195,0.195,0.451,0.293,0.707,0.293   s0.512-0.098,0.707-0.293c0.391-0.391,0.391-1.023,0-1.414l-5.657-5.657C177.346,180.932,176.713,180.932,176.322,181.322z"></path><path d="M174.908,178.494l-0.707-0.707c-0.391-0.391-1.023-0.391-1.414,0s-0.391,1.023,0,1.414l0.707,0.707   c0.195,0.195,0.451,0.293,0.707,0.293s0.512-0.098,0.707-0.293C175.299,179.518,175.299,178.885,174.908,178.494z"></path><path d="M215.021,218.606c-0.391-0.391-1.023-0.391-1.414,0s-0.391,1.023,0,1.414l5.657,5.657c0.195,0.195,0.451,0.293,0.707,0.293   s0.512-0.098,0.707-0.293c0.391-0.391,0.391-1.023,0-1.414L215.021,218.606z"></path><path d="M223.506,227.092c-0.391-0.391-1.023-0.391-1.414,0s-0.391,1.023,0,1.414l0.707,0.707c0.195,0.195,0.451,0.293,0.707,0.293   s0.512-0.098,0.707-0.293c0.391-0.391,0.391-1.023,0-1.414L223.506,227.092z"></path><path d="M145,199h-10.559l1.23-3H138c1.654,0,3-1.346,3-3c0-0.812-0.316-1.566-0.873-2.107C139.566,190.316,138.812,190,138,190   h-0.051c-0.489-6.373-5.585-11.466-11.959-11.95c0.001-0.018,0.01-0.032,0.01-0.05v-2h4c1.103,0,2-0.897,2-2v-3   c0-0.553-0.447-1-1-1h-5c-1.103,0-2,0.897-2,2v2v1v3c0,0.022,0.011,0.04,0.012,0.062c-3.661,0.276-6.997,2.064-9.25,4.958   c-2.093-2.166-5.02-3.52-8.262-3.52c-6.003,0-10.94,4.626-11.449,10.5H94c-1.654,0-3,1.346-3,3s1.346,3,3,3h2.441l1.848,3H87   c-0.553,0-1,0.447-1,1v2c0,1.654,1.361,3,3.035,3H96v0.51c0,1.329,0.859,2.485,2.143,2.878l8.255,2.476l2.603,3.47V218h-1   c-0.553,0-1,0.447-1,1v10c0,0.553,0.447,1,1,1h18c0.553,0,1-0.447,1-1v-10c0-0.553-0.447-1-1-1h-1v-3.697l3.535-5.303H129   c1.654,0,3-1.346,3-3v-1h10.965c1.674,0,3.035-1.346,3.035-3v-2C146,199.447,145.553,199,145,199z M126,172h3.999l-0.002,2H126V172   z M125,180c5.729,0,10.448,4.401,10.955,10h-18.006c-0.172-1.977-0.84-3.814-1.888-5.38C118.128,181.726,121.422,180,125,180z    M106.5,181.5c4.9,0,8.946,3.729,9.447,8.5H113h-0.085c-0.484-3.11-3.172-5.5-6.415-5.5s-5.931,2.39-6.415,5.5h-3.032   C97.554,185.229,101.6,181.5,106.5,181.5z M110.888,190h-8.775c0.456-2.002,2.25-3.5,4.388-3.5S110.432,187.998,110.888,190z    M98.791,196H103c0.553,0,1-0.447,1-1s-0.447-1-1-1h-6h-3c-0.552,0-1-0.448-1-1s0.448-1,1-1h2h5h11h1h4h20h1   c0.267,0,0.514,0.103,0.713,0.307c0.185,0.18,0.287,0.427,0.287,0.693c0,0.552-0.448,1-1,1h-3c-0.406,0-0.771,0.245-0.925,0.621   L132.279,199h-31.641L98.791,196z M125,228h-16v-8h1h3v3c0,0.553,0.447,1,1,1s1-0.447,1-1v-3h4v3c0,0.553,0.447,1,1,1s1-0.447,1-1   v-3h3h1V228z M130,206c0,0.552-0.448,1-1,1h-1c-0.334,0-0.646,0.167-0.832,0.445l-4,6C123.059,213.609,123,213.803,123,214v4h-12   v-4c0-0.217-0.07-0.427-0.2-0.6l-3-4c-0.128-0.172-0.308-0.297-0.513-0.358l-8.565-2.568c-0.26-0.08-0.469-0.252-0.594-0.474   h10.067l5.092,3.414c0.567,0.464,1.28,0.693,1.986,0.696l3.946-0.091c0.772-0.015,1.503-0.328,2.058-0.883l4.137-4.137H130V206z    M110.294,205h12.292l-2.723,2.723c-0.187,0.187-0.429,0.292-0.687,0.297l-3.947,0.091c-0.203,0.011-0.477-0.082-0.752-0.301   L110.294,205z M144,202c0,0.552-0.465,1-1.035,1H131h-6H89.035c-0.57,0-1.035-0.448-1.035-1v-1h12.08h32.87H144V202z"></path><path d="M109,194h-2c-0.553,0-1,0.447-1,1s0.447,1,1,1h2c0.553,0,1-0.447,1-1S109.553,194,109,194z"></path><path d="M42,213h-4c-0.553,0-1,0.447-1,1s0.447,1,1,1h4c0.553,0,1-0.447,1-1S42.553,213,42,213z"></path><path d="M42,217h-4c-0.553,0-1,0.447-1,1s0.447,1,1,1h4c0.553,0,1-0.447,1-1S42.553,217,42,217z"></path><path d="M61,175h-5c-0.553,0-1,0.447-1,1v4v14h-3v-7c0-4.537-1.766-8.809-4.974-12.028C43.809,171.766,39.537,170,35,170   c-9.374,0-17,7.626-17,17c-2.757,0-5,2.243-5,5v2H5c-0.811,0-1.566,0.316-2.108,0.874C2.317,195.435,2,196.189,2,197   c0,1.654,1.346,3,3,3h7.83c-2.739,1.751-4.535,4.539-4.828,7.929L7.069,221H3c-0.552,0-1,0.447-1,1v4c0,0.553,0.448,1,1,1h26   c1.654,0,3-1.346,3-3v-1h2.069c0.495,3.94,3.859,7,7.931,7h1c2.137,0,4.146-0.832,5.657-2.343c1.272-1.273,2.056-2.9,2.274-4.657   h4.689h0.32c0.808,0,1.572-0.354,2.099-0.97s0.755-1.428,0.628-2.227c-0.065-0.409-0.148-0.814-0.248-1.214l-1.124-6.502   c-0.931-5.33-4.267-9.693-8.77-12.088H55c0.812,0,1.566-0.316,2.107-0.873C57.684,198.566,58,197.812,58,197   c0-0.883-0.391-1.67-1-2.22V181h4c0.553,0,1-0.447,1-1v-4C62,175.447,61.553,175,61,175z M20,187c0-8.271,6.729-15,15-15   c4.005,0,7.774,1.559,10.612,4.386C48.441,179.226,50,182.995,50,187v7h-2.184c0.112-0.314,0.184-0.648,0.184-1   c0-0.812-0.316-1.566-0.873-2.107c-0.32-0.328-0.707-0.561-1.127-0.711v-0.367V189c0-5.728-4.402-10.442-10-10.949V176   c0-0.553-0.447-1-1-1s-1,0.447-1,1v2.051c-5.598,0.508-10,5.221-10,10.949v1.184c-1.161,0.414-2,1.514-2,2.816   c0,0.349,0.07,0.684,0.181,1H20v-6V187z M24.288,193.694C24.102,193.513,24,193.267,24,193c0-0.552,0.449-1,1-1h20   c0.267,0,0.514,0.103,0.713,0.307C45.897,192.486,46,192.733,46,193c0,0.552-0.448,1-1,1H25   C24.733,194,24.487,193.897,24.288,193.694z M29.288,182.314c1.693-1.466,3.844-2.258,6.073-2.296C40.156,180.21,44,184.159,44,189   v1H26v-0.5C26,186.742,27.198,184.123,29.288,182.314z M15,192c0-1.654,1.346-3,3-3v5h-3V192z M4,197   c0-0.267,0.102-0.513,0.306-0.713C4.487,196.103,4.733,196,5,196h9h4v2H5C4.449,198,4,197.552,4,197z M19,221H9.074l0.857-12H14   c2.757,0,5,2.243,5,5V221z M30,224c0,0.552-0.449,1-1,1H4v-2h4h12h6h4V224z M47.243,226.243C46.109,227.376,44.603,228,43,228h-1   c-2.968,0-5.439-2.166-5.917-5h2.059c0.447,1.721,1.999,3,3.858,3h1c1.066,0,2.071-0.416,2.827-1.173   c0.513-0.512,0.855-1.144,1.031-1.827h2.06C48.714,224.223,48.137,225.349,47.243,226.243z M40.269,223h4.463   c-0.087,0.149-0.193,0.288-0.318,0.413C44.034,223.792,43.532,224,43,224h-1C41.261,224,40.614,223.598,40.269,223z M50,221h-4h-7   h-4h-4h-3.958c0.51-6.15,5.679-11,11.958-11h5.84c2.851,0,5.617,1.02,7.79,2.87c1.891,1.617,3.226,3.774,3.836,6.159l0.139,0.802   c0,0.002,0.001,0.004,0.001,0.007c0.07,0.39-0.104,0.669-0.215,0.801C56.199,220.868,55.918,221,55.62,221H50z M55.324,212.431   l0.067,0.385c-0.452-0.519-0.934-1.015-1.462-1.467C51.393,209.189,48.165,208,44.84,208H39c-7.382,0-13.433,5.747-13.949,13H21v-7   c0-3.859-3.14-7-7-7h-3.844c0.989-4.823,5.567-7,9.924-7h20.46C47.849,200,54.066,205.229,55.324,212.431z M55.693,197.713   C55.514,197.897,55.267,198,55,198H40.54H20.08H20v-2h5h20h6h4c0.552,0,1,0.448,1,1C56,197.267,55.897,197.514,55.693,197.713z    M60,179h-3v-2h3V179z"></path><path d="M16,214c-0.552,0-1,0.447-1,1v2c0,0.553,0.448,1,1,1s1-0.447,1-1v-2C17,214.447,16.552,214,16,214z"></path><path d="M9.92,170.62c-0.05-0.12-0.12-0.23-0.21-0.33c-0.1-0.09-0.21-0.16-0.33-0.21c-0.37-0.15-0.81-0.07-1.09,0.21   c-0.09,0.1-0.16,0.2-0.21,0.33C8.03,170.74,8,170.87,8,171c0,0.27,0.1,0.52,0.29,0.71C8.48,171.899,8.73,172,9,172   s0.52-0.101,0.71-0.29C9.9,171.52,10,171.27,10,171C10,170.87,9.98,170.74,9.92,170.62z"></path><path d="M9.38,182.08c-0.37-0.16-0.81-0.07-1.09,0.21C8.11,182.479,8,182.74,8,183c0,0.13,0.03,0.26,0.08,0.38   c0.05,0.12,0.12,0.229,0.21,0.33c0.1,0.09,0.21,0.16,0.33,0.21C8.74,183.97,8.87,184,9,184c0.27,0,0.52-0.101,0.71-0.29   c0.09-0.101,0.16-0.21,0.21-0.33C9.97,183.26,10,183.13,10,183c0-0.26-0.11-0.521-0.29-0.71C9.61,182.2,9.5,182.13,9.38,182.08z"></path><path d="M14.62,177.92c0.12,0.05,0.25,0.08,0.38,0.08c0.27,0,0.52-0.101,0.71-0.29C15.9,177.52,16,177.27,16,177   c0-0.13-0.02-0.26-0.08-0.38c-0.05-0.12-0.12-0.23-0.21-0.33c-0.05-0.04-0.1-0.09-0.15-0.12c-0.06-0.04-0.12-0.07-0.18-0.09   c-0.06-0.03-0.12-0.05-0.18-0.061c-0.13-0.029-0.27-0.029-0.39,0c-0.07,0.011-0.13,0.03-0.19,0.061c-0.06,0.02-0.12,0.05-0.18,0.09   c-0.05,0.03-0.1,0.08-0.15,0.12c-0.09,0.1-0.16,0.21-0.21,0.33C14.03,176.74,14,176.87,14,177c0,0.27,0.1,0.52,0.29,0.71   C14.39,177.8,14.5,177.87,14.62,177.92z"></path><path d="M2.62,177.92C2.74,177.97,2.87,178,3,178c0.27,0,0.52-0.101,0.71-0.29C3.9,177.52,4,177.27,4,177   c0-0.13-0.03-0.26-0.08-0.38c-0.05-0.13-0.12-0.23-0.21-0.33c-0.1-0.09-0.21-0.16-0.33-0.21C3.2,176,3,175.979,2.8,176.02   c-0.06,0.011-0.12,0.03-0.18,0.061c-0.06,0.02-0.12,0.05-0.17,0.09c-0.06,0.03-0.11,0.08-0.16,0.12c-0.09,0.1-0.16,0.2-0.21,0.33   C2.03,176.74,2,176.87,2,177c0,0.27,0.1,0.52,0.29,0.71C2.39,177.8,2.5,177.87,2.62,177.92z"></path><path d="M13.56,180.17c-0.06-0.04-0.12-0.07-0.18-0.09c-0.06-0.03-0.12-0.05-0.18-0.061c-0.2-0.04-0.4-0.02-0.58,0.061   c-0.12,0.05-0.23,0.12-0.33,0.21c-0.09,0.1-0.16,0.2-0.21,0.33C12.03,180.74,12,180.87,12,181c0,0.27,0.1,0.52,0.29,0.71   c0.1,0.09,0.21,0.16,0.33,0.21c0.12,0.05,0.25,0.08,0.38,0.08c0.13,0,0.26-0.03,0.38-0.08s0.23-0.12,0.33-0.21   C13.9,181.52,14,181.27,14,181c0-0.13-0.02-0.26-0.08-0.38c-0.05-0.12-0.12-0.23-0.21-0.33C13.66,180.25,13.61,180.2,13.56,180.17z   "></path><path d="M5.71,172.29c-0.38-0.37-1.05-0.37-1.42,0C4.11,172.479,4,172.74,4,173c0,0.27,0.1,0.52,0.29,0.71   c0.1,0.09,0.21,0.16,0.33,0.21C4.74,173.97,4.87,174,5,174c0.13,0,0.26-0.03,0.38-0.08s0.23-0.12,0.33-0.21   C5.9,173.52,6,173.27,6,173C6,172.74,5.89,172.479,5.71,172.29z"></path><path d="M5.56,180.17c-0.06-0.04-0.12-0.07-0.18-0.09c-0.06-0.03-0.12-0.05-0.18-0.061c-0.2-0.04-0.4-0.02-0.58,0.061   c-0.12,0.05-0.23,0.12-0.33,0.21c-0.09,0.1-0.16,0.2-0.21,0.33C4.03,180.74,4,180.87,4,181c0,0.27,0.1,0.52,0.29,0.71   c0.1,0.09,0.21,0.16,0.33,0.21C4.74,181.97,4.87,182,5,182c0.13,0,0.26-0.03,0.38-0.08s0.23-0.12,0.33-0.21   C5.9,181.52,6,181.27,6,181c0-0.13-0.02-0.26-0.08-0.38c-0.05-0.12-0.12-0.23-0.21-0.33C5.66,180.25,5.61,180.2,5.56,180.17z"></path><path d="M13.71,172.29c-0.23-0.23-0.58-0.34-0.91-0.271c-0.06,0.011-0.12,0.03-0.18,0.061c-0.06,0.02-0.12,0.05-0.17,0.09   c-0.06,0.03-0.11,0.08-0.16,0.12C12.11,172.479,12,172.74,12,173c0,0.27,0.1,0.52,0.29,0.71c0.19,0.189,0.44,0.29,0.71,0.29   c0.13,0,0.26-0.03,0.38-0.08s0.23-0.12,0.33-0.21C13.9,173.52,14,173.27,14,173C14,172.74,13.89,172.479,13.71,172.29z"></path><path d="M-69,170c-7.168,0-13,5.832-13,13v3c0,0.553,0.448,1,1,1h1v2.184c-1.161,0.414-2,1.514-2,2.816v35c0,1.654,1.346,3,3,3h20   c1.654,0,3-1.346,3-3v-35c0-1.302-0.839-2.402-2-2.816V187h1c0.552,0,1-0.447,1-1v-3c0-3.479-1.351-6.745-3.803-9.197   C-62.255,171.351-65.522,170-69,170z M-59,228h-20c-0.551,0-1-0.448-1-1v-30h11c0.552,0,1-0.447,1-1s-0.448-1-1-1h-11v-3   c0-0.552,0.449-1,1-1h20c0.551,0,1,0.448,1,1v30h-11c-0.552,0-1,0.447-1,1s0.448,1,1,1h11v3C-58,227.552-58.449,228-59,228z    M-60,189h-18v-2h18V189z M-58,185h-1h-20h-1v-2c0-6.065,4.935-11,11-11c2.944,0,5.708,1.143,7.783,3.217   C-59.143,177.291-58,180.056-58,183V185z"></path><path d="M-68,216h-6c-0.552,0-1,0.447-1,1s0.448,1,1,1h6c2.757,0,5-2.243,5-5s-2.243-5-5-5h-2.5c-1.378,0-2.5-1.121-2.5-2.5   s1.122-2.5,2.5-2.5h6.5c0.552,0,1-0.447,1-1s-0.448-1-1-1h-6.5c-2.481,0-4.5,2.019-4.5,4.5s2.019,4.5,4.5,4.5h2.5   c1.654,0,3,1.346,3,3S-66.346,216-68,216z"></path><path d="M-65,197h2c0.552,0,1-0.447,1-1s-0.448-1-1-1h-2c-0.552,0-1,0.447-1,1S-65.552,197-65,197z"></path><path d="M-73,222h-2c-0.552,0-1,0.447-1,1s0.448,1,1,1h2c0.552,0,1-0.447,1-1S-72.448,222-73,222z"></path><path d="M-35,170c-7.168,0-13,5.832-13,13v3c0,0.553,0.448,1,1,1h1v2.184c-1.161,0.414-2,1.514-2,2.816v35c0,1.654,1.346,3,3,3h20   c1.654,0,3-1.346,3-3v-35c0-1.302-0.839-2.402-2-2.816V187h1c0.552,0,1-0.447,1-1v-3c0-3.479-1.351-6.745-3.803-9.197   C-28.255,171.351-31.522,170-35,170z M-25,228h-20c-0.551,0-1-0.448-1-1v-30h11c0.552,0,1-0.447,1-1s-0.448-1-1-1h-11v-3   c0-0.552,0.449-1,1-1h20c0.551,0,1,0.448,1,1v30h-11c-0.552,0-1,0.447-1,1s0.448,1,1,1h11v3C-24,227.552-24.449,228-25,228z    M-26,189h-18v-2h18V189z M-24,185h-1h-20h-1v-2c0-6.065,4.935-11,11-11c2.944,0,5.708,1.143,7.783,3.217   C-25.143,177.291-24,180.056-24,183V185z"></path><path d="M-31,197h2c0.552,0,1-0.447,1-1s-0.448-1-1-1h-2c-0.552,0-1,0.447-1,1S-31.552,197-31,197z"></path><path d="M-39,222h-2c-0.552,0-1,0.447-1,1s0.448,1,1,1h2c0.552,0,1-0.447,1-1S-38.448,222-39,222z"></path><path d="M-33,210c2.757,0,5-2.243,5-5s-2.243-5-5-5h-4c-1.654,0-3,1.346-3,3v6v9c0,0.553,0.448,1,1,1s1-0.447,1-1v-8H-33z M-38,203   c0-0.552,0.449-1,1-1h4c1.654,0,3,1.346,3,3s-1.346,3-3,3h-5V203z"></path><path d="M-111.06,170h-13.812c-0.043-0.001-0.082-0.013-0.125-0.013h-35.004c-1.66,0-3.011,1.352-3.011,3.013v54   c0,1.661,1.351,3.013,3.011,3.013h35.004c0.043,0,0.083-0.012,0.125-0.013h13.812c1.688,0,3.06-1.346,3.06-3v-54   C-108,171.346-109.373,170-111.06,170z M-119.988,178H-116c0.551,0,1,0.448,1,1v19c0,0.552-0.449,1-1,1h-3.988V178z M-160.988,227   v-54c0-0.545,0.442-0.987,0.986-0.987h35.004c1.646,0,2.985,1.34,2.985,2.987v50c0,1.647-1.339,2.987-2.985,2.987h-35.004   C-160.545,227.987-160.988,227.545-160.988,227z M-110,227c0,0.552-0.476,1-1.06,1h-9.949c0.632-0.839,1.021-1.871,1.021-3v-6H-117   c0.552,0,1-0.447,1-1s-0.448-1-1-1h-2.988v-2H-115c0.552,0,1-0.447,1-1s-0.448-1-1-1h-4.988v-2H-117c0.552,0,1-0.447,1-1   s-0.448-1-1-1h-2.988v-2H-115c0.552,0,1-0.447,1-1s-0.448-1-1-1h-4.988v-4H-116c1.654,0,3-1.346,3-3v-19c0-1.654-1.346-3-3-3   h-3.988v-1c0-1.129-0.389-2.161-1.021-3h9.949c0.584,0,1.06,0.448,1.06,1V227z"></path><path d="M-127.126,180.016l-0.119,0.016c-0.089,0.012-0.181,0.027-0.272,0.027c-1.432,0-2.596-1.144-2.596-2.548   c0-0.087,0.015-0.173,0.027-0.256l0.017-0.127c0.037-0.292-0.054-0.587-0.249-0.809s-0.476-0.348-0.771-0.348h-20.817   c-0.295,0-0.576,0.126-0.771,0.348s-0.286,0.517-0.249,0.809l0.017,0.127c0.012,0.083,0.027,0.169,0.027,0.256   c0,1.404-1.165,2.548-2.596,2.548c-0.092,0-0.184-0.016-0.272-0.027l-0.119-0.016c-0.293-0.041-0.587,0.055-0.808,0.25   c-0.221,0.195-0.348,0.476-0.348,0.771v38.928c0,0.295,0.126,0.575,0.348,0.771c0.221,0.195,0.514,0.29,0.808,0.25l0.119-0.016   c0.089-0.012,0.181-0.027,0.272-0.027c1.432,0,2.596,1.144,2.596,2.548c0,0.087-0.015,0.173-0.027,0.256l-0.017,0.127   c-0.037,0.292,0.054,0.587,0.249,0.809s0.476,0.348,0.771,0.348h20.817c0.295,0,0.576-0.126,0.771-0.348s0.286-0.517,0.249-0.809   l-0.017-0.127c-0.012-0.083-0.027-0.169-0.027-0.256c0-1.404,1.165-2.548,2.596-2.548c0.092,0,0.184,0.016,0.272,0.027l0.119,0.016   c0.29,0.041,0.586-0.055,0.808-0.25s0.348-0.476,0.348-0.771v-38.928c0-0.295-0.126-0.575-0.348-0.771   S-126.837,179.974-127.126,180.016z M-128.029,218.912c-2.154,0.233-3.872,1.929-4.114,4.06h-18.715   c-0.242-2.131-1.959-3.826-4.114-4.06v-36.824c2.154-0.233,3.872-1.929,4.114-4.06h18.715c0.242,2.131,1.959,3.826,4.114,4.06   V218.912z"></path><path d="M-134,206h-17c-0.552,0-1,0.447-1,1s0.448,1,1,1h17c0.552,0,1-0.447,1-1S-133.448,206-134,206z"></path><path d="M-151,212h5c0.552,0,1-0.447,1-1s-0.448-1-1-1h-5c-0.552,0-1,0.447-1,1S-151.552,212-151,212z"></path><path d="M-134,210h-8c-0.552,0-1,0.447-1,1s0.448,1,1,1h8c0.552,0,1-0.447,1-1S-133.448,210-134,210z"></path><path d="M-134,214h-5c-0.552,0-1,0.447-1,1s0.448,1,1,1h5c0.552,0,1-0.447,1-1S-133.448,214-134,214z"></path><path d="M-143,214h-8c-0.552,0-1,0.447-1,1s0.448,1,1,1h8c0.552,0,1-0.447,1-1S-142.448,214-143,214z"></path><path d="M-150,190c0.552,0,1-0.447,1-1v-2c0-0.553-0.448-1-1-1s-1,0.447-1,1v2C-151,189.553-150.552,190-150,190z"></path><path d="M-141.5,198.1c3.639,0,6.6-2.96,6.6-6.6s-2.961-6.6-6.6-6.6s-6.6,2.96-6.6,6.6S-145.139,198.1-141.5,198.1z M-141.5,187.1   c2.426,0,4.4,1.975,4.4,4.4s-1.974,4.4-4.4,4.4s-4.4-1.975-4.4-4.4S-143.926,187.1-141.5,187.1z"></path><path d="M-133,186c-0.552,0-1,0.447-1,1v2c0,0.553,0.448,1,1,1s1-0.447,1-1v-2C-132,186.447-132.448,186-133,186z"></path><path d="M-48-48.16c0,3.404,1.559,6.451,4,8.465v14.529c0,0.369,0.203,0.708,0.528,0.882c0.324,0.174,0.718,0.155,1.026-0.05   l5.445-3.63l5.445,3.63c0.167,0.112,0.361,0.168,0.555,0.168c0.162,0,0.324-0.039,0.472-0.118C-30.203-24.459-30-24.798-30-25.167   v-14.583c2.405-2.014,3.94-5.036,3.94-8.411c0-6.043-4.921-10.96-10.97-10.96S-48-54.204-48-48.16z M-37.03-39.19   c-4.946,0-8.97-4.024-8.97-8.97c0-4.94,4.024-8.96,8.97-8.96c4.946,0,8.97,4.02,8.97,8.96C-28.06-43.214-32.084-39.19-37.03-39.19z    M-32-27.035l-4.445-2.963c-0.336-0.224-0.773-0.224-1.109,0L-42-27.035v-11.358c1.494,0.764,3.18,1.203,4.97,1.203   c1.813,0,3.521-0.45,5.03-1.232V-27.035z"></path><path d="M-37.031-53.79c-0.552,0-1,0.448-1,1s0.448,1,1,1c2.005,0,3.636,1.629,3.636,3.631c0,2.005-1.631,3.636-3.636,3.636   c-0.552,0-1,0.448-1,1s0.448,1,1,1c3.108,0,5.636-2.528,5.636-5.636C-31.395-51.263-33.923-53.79-37.031-53.79z"></path><path d="M-65-60c-0.552,0-1,0.448-1,1s0.448,1,1,1h5c0.552,0,1-0.448,1-1s-0.448-1-1-1H-65z"></path><path d="M-56.2-59.98c-0.06,0.01-0.12,0.03-0.18,0.06c-0.06,0.02-0.12,0.05-0.17,0.09c-0.06,0.04-0.11,0.08-0.16,0.12   C-56.89-59.52-57-59.26-57-59c0,0.27,0.11,0.52,0.29,0.71C-56.52-58.11-56.26-58-56-58c0.13,0,0.26-0.03,0.38-0.08   c0.12-0.05,0.23-0.12,0.33-0.21c0.04-0.05,0.09-0.1,0.12-0.15c0.04-0.06,0.07-0.12,0.09-0.18c0.03-0.06,0.05-0.12,0.06-0.18   C-55.01-58.87-55-58.93-55-59c0-0.26-0.11-0.52-0.29-0.71c-0.1-0.09-0.21-0.16-0.33-0.21C-55.8-60-56-60.02-56.2-59.98z"></path><path d="M-74-76c0.552,0,1-0.448,1-1v-2c0-0.552-0.448-1-1-1s-1,0.448-1,1v2C-75-76.448-74.552-76-74-76z"></path><path d="M-74-66c0.552,0,1-0.448,1-1v-2c0-0.552-0.448-1-1-1s-1,0.448-1,1v2C-75-66.448-74.552-66-74-66z"></path><path d="M-71-73c0,0.552,0.448,1,1,1h2c0.552,0,1-0.448,1-1s-0.448-1-1-1h-2C-70.552-74-71-73.552-71-73z"></path><path d="M-80-72h2c0.552,0,1-0.448,1-1s-0.448-1-1-1h-2c-0.552,0-1,0.448-1,1S-80.552-72-80-72z"></path><path d="M-70.464-68.05c0.195,0.195,0.451,0.293,0.707,0.293s0.512-0.098,0.707-0.293c0.391-0.391,0.391-1.023,0-1.414   l-1.697-1.697c-0.391-0.391-1.023-0.391-1.414,0s-0.391,1.023,0,1.414L-70.464-68.05z"></path><path d="M-77.252-74.838c0.195,0.195,0.451,0.293,0.707,0.293s0.512-0.098,0.707-0.293c0.391-0.391,0.391-1.023,0-1.414   l-1.697-1.697c-0.391-0.391-1.023-0.391-1.414,0s-0.391,1.023,0,1.414L-77.252-74.838z"></path><path d="M-77.252-71.162l-1.697,1.697c-0.391,0.391-0.391,1.023,0,1.414c0.195,0.195,0.451,0.293,0.707,0.293   s0.512-0.098,0.707-0.293l1.697-1.697c0.391-0.391,0.391-1.023,0-1.414S-76.862-71.552-77.252-71.162z"></path><path d="M-71.455-74.545c0.256,0,0.512-0.098,0.707-0.293l1.697-1.697c0.391-0.391,0.391-1.023,0-1.414s-1.023-0.391-1.414,0   l-1.697,1.697c-0.391,0.391-0.391,1.023,0,1.414C-71.966-74.643-71.71-74.545-71.455-74.545z"></path><path d="M-78-31.991h31c0.557,0,1.009-0.452,1.009-1.009s-0.452-1.009-1.009-1.009h-31c-0.546,0-0.991-0.444-0.991-0.991v-3   c0-0.546,0.444-0.991,0.991-0.991h29c0.557,0,1.009-0.452,1.009-1.009s-0.452-1.009-1.009-1.009h-27v-3.911   c0-12.663,10.354-22.981,23.079-23c6.478,0.005,12.68,2.771,17.016,7.588c0.37,0.41,1.001,0.444,1.412,0.074   c0.411-0.369,0.444-1.001,0.074-1.412c-3.6-4-8.384-6.693-13.582-7.748v-1.712c0-1.061-0.417-2.061-1.173-2.818   c-0.756-0.756-1.76-1.172-2.827-1.172c-2.206,0-4,1.79-4,3.99v1.409c-12.38,1.535-22,12.074-22,24.8v3.911   c-1.659,0-3.009,1.35-3.009,3.009v3C-81.009-33.341-79.659-31.991-78-31.991z M-54-71.13c0-1.098,0.897-1.99,2-1.99   c0.532,0,1.034,0.208,1.413,0.587C-50.208-72.155-50-71.656-50-71.13V-70h-4V-71.13z"></path><path d="M-27.009-40c0,0.557,0.452,1.009,1.009,1.009c0.546,0,0.991,0.444,0.991,0.991v3c0,0.546-0.444,0.991-0.991,0.991h-1   c-0.557,0-1.009,0.452-1.009,1.009s0.452,1.009,1.009,1.009h1c1.659,0,3.009-1.35,3.009-3.009v-3c0-1.659-1.35-3.009-3.009-3.009   C-26.557-41.009-27.009-40.557-27.009-40z"></path><path d="M-153.71-53.29c0.19,0.18,0.45,0.29,0.71,0.29c0.26,0,0.52-0.11,0.71-0.29c0.09-0.09,0.16-0.2,0.21-0.33   c0.05-0.12,0.08-0.25,0.08-0.38c0-0.26-0.11-0.52-0.29-0.71c-0.09-0.09-0.2-0.16-0.33-0.21c-0.24-0.1-0.52-0.1-0.76,0   c-0.13,0.05-0.23,0.12-0.33,0.21c-0.18,0.19-0.29,0.45-0.29,0.71c0,0.13,0.03,0.26,0.08,0.38   C-153.87-53.49-153.8-53.38-153.71-53.29z"></path><path d="M-133.92-74.62c0.02,0.06,0.05,0.12,0.09,0.18c0.04,0.05,0.08,0.1,0.12,0.15c0.1,0.09,0.21,0.16,0.33,0.21   c0.12,0.05,0.25,0.08,0.38,0.08c0.06,0,0.13-0.01,0.2-0.02c0.06-0.01,0.12-0.03,0.18-0.06c0.06-0.02,0.12-0.05,0.18-0.09   c0.05-0.03,0.1-0.08,0.15-0.12c0.04-0.05,0.08-0.1,0.12-0.15c0.04-0.06,0.07-0.12,0.09-0.18c0.03-0.06,0.05-0.12,0.06-0.18   c0.01-0.07,0.02-0.13,0.02-0.2c0-0.13-0.03-0.26-0.08-0.38c-0.05-0.12-0.12-0.23-0.21-0.33c-0.05-0.04-0.1-0.09-0.15-0.12   c-0.06-0.04-0.12-0.07-0.18-0.09c-0.06-0.03-0.12-0.05-0.18-0.06c-0.2-0.04-0.4-0.02-0.58,0.06c-0.12,0.05-0.23,0.12-0.33,0.21   c-0.09,0.1-0.16,0.21-0.21,0.33c-0.05,0.12-0.08,0.25-0.08,0.38c0,0.07,0.01,0.13,0.02,0.2   C-133.97-74.74-133.95-74.68-133.92-74.62z"></path><path d="M-111.71-76.29c0.1,0.09,0.21,0.16,0.33,0.21c0.12,0.05,0.25,0.08,0.38,0.08c0.26,0,0.52-0.11,0.71-0.29   c0.09-0.1,0.16-0.21,0.21-0.33c0.06-0.12,0.08-0.25,0.08-0.38c0-0.26-0.11-0.52-0.29-0.71c-0.1-0.09-0.2-0.16-0.33-0.21   c-0.24-0.1-0.52-0.1-0.76,0c-0.13,0.05-0.23,0.12-0.33,0.21c-0.18,0.19-0.29,0.45-0.29,0.71c0,0.13,0.03,0.26,0.08,0.38   C-111.87-76.5-111.8-76.39-111.71-76.29z"></path></g></svg>